<svg xmlns="http://www.w3.org/2000/svg" viewBox="0 0 146.64 257.61"><title>Necron_emblem</title><path d="M653.85,255.59c5.08,14.2,13.77,23.59,29.8,23.56s24.39-9.81,30.14-23.37a22,22,0,0,1-8.44,17.51,48.49,48.49,0,0,1-15.7,8.19c-5.65,1.7-4.2,5.49-4.45,9s.17,6.4,4.75,7.25c15.82,2.93,25,13,28.94,28.17,1,4,2.86,5.51,6.88,5.43,8.32-.17,16.65-.05,25,0,1.93,0,3.86.32,5.79.49l.1,1.38a39.27,39.27,0,0,1-4.79.63c-8.49.13-17,.31-25.48.18-4.34-.07-6.32,1.46-7.65,5.86A74.59,74.59,0,0,1,711.17,356c-1.82,3.07-2.2,5.2.17,8,8.33,9.74,16.54,19.57,24.74,29.42,1.38,1.65,2.48,3.53,3.7,5.3l-1.21.94c-1.74-1.86-3.55-3.66-5.21-5.59-8-9.34-16.06-18.68-24-28.13-2.45-2.93-4.72-3.38-8.17-1.52a44.27,44.27,0,0,1-11.16,4.2c-3.94.88-5,2.9-5,6.64q.15,54.48.07,108.94,0,13-.16,26a3.63,3.63,0,0,1-1.91,3c-.13-1.51-.36-3-.36-4.54-.17-43.64-.4-87.27-.36-130.91,0-5.46-.93-9-7.09-9.62a22.2,22.2,0,0,1-6.6-2.23c-7-3.14-6.35-4.95-12.75,2.66-8.13,9.68-16.35,19.29-24.56,28.91a3.54,3.54,0,0,1-3.13,1.22,40.71,40.71,0,0,1,2.79-4.46c8.32-10.18,16.64-20.37,25.15-30.4,2.18-2.57,1.68-4.28.15-7a117.48,117.48,0,0,1-8.22-17.44c-1.3-3.6-2.79-5.12-6.66-5-8.82.21-17.65.06-26.48,0a42.11,42.11,0,0,1-5-.6V332.2a37.74,37.74,0,0,1,4.46-.56c9.16-.1,18.32-.29,27.47-.11,3.71.08,5.17-1.17,6-4.84,3.71-15.66,13.08-26,29.34-28.94,4.24-.77,5-3.31,4.76-6.77-.26-3.7,1.34-8-4.71-9.33-10.83-2.37-19.12-8.43-23.47-19a46.34,46.34,0,0,1-1.66-6.33Zm-3.46,77.65C650,351.51,664.07,366,682.47,366.3c19.27.32,33.88-13.35,34.22-32,.35-19.33-13-33.32-31.32-34.41C666.7,298.77,649.31,314.51,650.39,333.24Z" transform="translate(-610 -255.59)" style="fill:#6ded32"/></svg>