<svg xmlns="http://www.w3.org/2000/svg" viewBox="0 0 250.19 396.19"><title>Necron_warrior</title><path d="M811.1,249q-.2,97-.1,194t.1,194" transform="translate(-560.9 -244.9)" style="fill:#fefefe"/><path d="M565,244.9q121,.19,242,0" transform="translate(-560.9 -244.9)" style="fill:#fefefe"/><path d="M560.9,637q.18-194,0-388" transform="translate(-560.9 -244.9)" style="fill:#fefefe"/><path d="M807,641.1q-121-.2-242,0" transform="translate(-560.9 -244.9)" style="fill:#fefefe"/><path d="M628,301.1c.74-4.66,5.71-5.66,7.86-9.09.3-1.11,1.27-1.49,2.13-2a3.89,3.89,0,0,1,2.83-.23c4.42.87,7.71-.41,9.13-5a16.35,16.35,0,0,1,1-1.86L651,279c3.14-4.39,4-4.51,9.89-1.49a4.3,4.3,0,0,1,.59,2.82c-.08,1.6.64,3,1.12,4.46,1.22,3,4.64,4,6,6.81.64,4.7-2.19,9.3-.39,14-2.18,10.32,0,8.38-8.59,10.64-1.77,0-3,1.21-4.43,2a39.32,39.32,0,0,0-8.69,2.08c-2.65.87-5,.73-6.3-2.41.19.88.3,1.52.48,2.13.2,1.88,2.51,2.49,2.65,4.41a3.25,3.25,0,0,1-.87,3c-1.54,1.25-3,.64-4.55-.07-3.5-2-5.67-5.53-9.92-6.93-2.92-1-4.12-.24-5.77,1.39-6.56.27-7.08-.27-6.77-6.93.08-3.95,2.83-6.2,5.71-7.94A21.21,21.21,0,0,0,628,301.1Z" transform="translate(-560.9 -244.9)" style="fill:#0f0f0f"/><path d="M646,437l-.06-1.72c-3.86-1.77-2.52-4.82-1.89-7.7,1.07-2.08,3.45-1.14,5-2.16a11.13,11.13,0,0,1,2.81-.91c3.32-1.79,4.79,3.07,7.85,2.16,1.5-1.92,1.73-4.16,1.74-6.46-.79-3.12,0-5.4,3.31-6.39a7.12,7.12,0,0,1,6.13,5.78,20.72,20.72,0,0,0,.53,2.2c-2,8.07,5.7,8.95,9.52,12.71a5.21,5.21,0,0,1,1.49,1.43c3.27,4.38,8.5,6.21,12.53,9.61a3.45,3.45,0,0,1-1.41,4.7,3.92,3.92,0,0,1-5.34-.62c-1.74-1.78-4.06-1.51-6.16-1s-4.1,1.73-6.77.74c-1.73-.64-3.08,1.8-4,3.48a11.3,11.3,0,0,0-1.91,4.53c-.39,2.21-1.78,3.58-4.19,4.36-3.42,1.11-7-.68-10.4,1.16-.85.46-2.1-.79-2.57-2-2.65-6.64-5.57-13.25-4.83-20.65A3.21,3.21,0,0,0,646,437Z" transform="translate(-560.9 -244.9)" style="fill:#121212"/><path d="M646,437c2.41-.8,3,.64,3,2.56,0,7.06,3,13.34,5.15,19.84.21.63.34,1.49,1.15,1.36.51-.08,1-.69,1.35-1.18s.18-1,.31-1.45c.43-1.58-.69-4.29,2.07-4.26,2.1,0,1.78,2.42,2,4,.19,1.21.42,2.57,2,2.27,1.89-.35,4.18-.5,4.51-3.13.24-2,.1-4.09,2.43-5,.8-.42,1.37,0,1.9.52a14.45,14.45,0,0,1,1.07,3.4c-.48,2.15-.58,4.26-2.52,6-2.91,2.65,1.52,4.8,1.08,7.44-.07,2.3-.8,4.5-1,6.81a5.72,5.72,0,0,0,2.42,5.26c1,4.85-1,8.85-3.64,12.67-3.12.21-3.54,3.58-5.71,4.91-4.09,1.77-7.65.1-7.33-4.15s-1.71-7.08-4.22-9.89c-2.39-12.51-5.43-24.9-6.57-37.62A33.48,33.48,0,0,1,646,437Z" transform="translate(-560.9 -244.9)" style="fill:#1a1a1a"/><path d="M770.86,501.1l-1.8-1c-3.45.41-5.74-.6-5.66-4.56,0-1.53-.95-2.67-1.54-4,.08-2.69-2.22-4.5-2.62-7,1.34-2.62,2-5.19-.55-7.53-.37-4.14,1.83-4.82,5.11-3.61a5.87,5.87,0,0,0,4.21.38,73.44,73.44,0,0,1,20,1c1.05,1,2.14,2.05.05,2.9a21.88,21.88,0,0,1-5.67,1.3c-2.92.36-4.12,2-1.57,4.56,1.83,1.67,3.64,3.37,6,4.23,1.33,1,1.82,2.59,2.45,4.07,1.94,3.51,7.56,4.08,7.7,10.28-7.14-7.43-14.81-7.93-23.09-4.26C773.09,499.19,773.6,501.75,770.86,501.1Z" transform="translate(-560.9 -244.9)" style="fill:#1d1d1d"/><path d="M697.14,559.18c-.36,1.61-.73,3.22-1.09,4.84-1.25.77-2.07.07-3-.76-2.83-2.68-5.19-1.94-7.15,1.13-1.39,2.23,1,4.73-.48,7a9.82,9.82,0,0,1-1.61,2.72,4.85,4.85,0,0,1-3.08,1,4.16,4.16,0,0,1-3.06-3.43c.26-4.69-.4-9.42.28-14.08.34-2.33-1.21-3.67-1.89-5.48-.52-1.53-1.28-3-1.71-4.54a62.91,62.91,0,0,0-1.25-16.54,7.24,7.24,0,0,1,1.62-2.9c4.66-1.44,4.3,1.56,4,4.3,3.34-2,6.46-.6,9.57,1.06,1.23,1.3,1.18,3.46,3,4.38.85,3.32,3.26,6.29,2,10.1-.41,1.28,1.16,1.79,1.86,2.64a7,7,0,0,1,1.74,5.86C697,557.39,697.64,558.25,697.14,559.18Z" transform="translate(-560.9 -244.9)" style="fill:#1d1d1d"/><path d="M728.91,316.07l-1.93-.2c-2.32,1.79-6-.44-7.81,2.59-.54,1.53.5,3,.14,4.53a3.16,3.16,0,0,1-2.83,2.37A4.82,4.82,0,0,1,713,323.8c-2.52-2.16-5.9-2.63-8.56-3.95-4.38-2.18-8.5-2.32-12.93-3-2-.32-5.68-1.6-6.9-4.72-.24-1.48.31-2.89.39-4.34,0-1.83,1.37-3.29,1.22-5.25-.26-3.32,1.62-5.76,4.39-7.18S695,296.75,697,298c1.4,1.16,2.52,2.6,3.92,3.77,4.54,3.78,9.2,7.15,15.64,5.67,5.39-2.41,9.7,1,14.35,2.62C734,313.94,733.68,314.79,728.91,316.07Z" transform="translate(-560.9 -244.9)" style="fill:#131313"/><path d="M679.05,571l2,3c3,3.17.56,7,1.25,10.44.15,3.28-1.45,6.28-1.55,9.52a2.73,2.73,0,0,1-.46.79,1.42,1.42,0,0,0-.39,1.26c0,.31,0,.21,0-.3a1.24,1.24,0,0,1,.29-.87c.83-2.88,1.53-5.78,2.09-8.73,1-1.72,2.18-3.21,4.4-3.28,2,.45,2.57-3.83,5.12-1.56a10.4,10.4,0,0,1,0,6.27,22.63,22.63,0,0,0,.34,12.43l.93,1c-.4,3,.43,6,0,9q-1,2.5-2,5a1.54,1.54,0,0,1-1.14.56,5.26,5.26,0,0,1-2.29-1.28,12.51,12.51,0,0,1-2.67-1.91c-2.24-2.19-4.59-3.92-7.79-1.68-2.5.84-2,5.22-5.64,4.71a1.36,1.36,0,0,1-.64-1.84c-1.37-3.75.43-7.72-.85-11.47a2.42,2.42,0,0,1-.59-1.21c.17-1.36,1.2-2.44,1.22-3.85a4.57,4.57,0,0,1,1-1.75c1.76-2.27,3.76-4.46,2.91-7.72a4,4,0,0,1,.6-2.66c1.75-3.27,1.26-6.87,1.51-10.37a11.82,11.82,0,0,0,1.27-2.66A2.33,2.33,0,0,1,679.05,571Z" transform="translate(-560.9 -244.9)" style="fill:#292929"/><path d="M652.07,485c5.62,1.87,6.37,3.43,6.09,9.74-.13,2.83,2.09,3.81,4.83,3.24l.65.22c3.8,1.53,2,6.28,4.79,8.35,2,1.31,2.74.41,3.47-1.5s2-3.39,4.44-2.29a4.87,4.87,0,0,1,1,5.06c-1.29,4.5,0,8.68,1.09,12.92a3.74,3.74,0,0,1-1.26,3.8,3.11,3.11,0,0,1-1.4.59,3,3,0,0,1-2.87-1.54,9.64,9.64,0,0,1-.55-2.4,2.58,2.58,0,0,1,.13.64,2.16,2.16,0,0,1-.51,1.83,3,3,0,0,1-1.4.57c-5.7-.83-7-2.13-7-7.75,0-2.25-.2-4.23-2.33-5.49-3.25-3.8-4.1-8.6-5.49-13.17C654.43,493.57,653.28,489.27,652.07,485Z" transform="translate(-560.9 -244.9)" style="fill:#242424"/><path d="M616.73,434.12C616,427.85,612,423.46,608,419a12.62,12.62,0,0,1,2.09-3.12,3.44,3.44,0,0,0,.94-3.19c-1.33-8.26.18-16.29,2-24.3,2.92-2.42,4.7-.73,6.27,1.73,2,6.15,1,12.5,1.12,18.76.16,10.28.05,10.28,9.28,13.9,2.22,3.21-1.71,3.77-2.44,5.73-1.71,1.43-3.92,1.74-5.88,2.6C619.35,431.36,620.1,436,616.73,434.12Z" transform="translate(-560.9 -244.9)" style="fill:#383838"/><path d="M616.92,315c1,2.39,1.85,3.44,4.91,5.83l.53.6c.52,3.58-2.14,4.53-4.63,5.63-5.21.24-8.9,3.35-12.49,6.65a5.3,5.3,0,0,1-3,.29c-1.69-.86-4-.28-5.32-2a24.2,24.2,0,0,0-2.22-3.77c-1.9-3,1-4.46,2.15-6.5,2.25-2.33,5.3-2.7,8.24-3.32,2.69.34,4.55-.9,6.37-2.8C612.9,314.06,614.8,312.27,616.92,315Z" transform="translate(-560.9 -244.9)" style="fill:#1c1c1c"/><path d="M720.07,434.91c1.45,6.42,4.67,11.48,10.91,14.22,1.32,1.95,0,2.91-1.44,3.8-1.36.47-2.53-.25-3.76-.61a9.58,9.58,0,0,1-1.82-1.27c-3.09-4-8.14-5.56-11.42-9.39-1.47-1.72-3.83-2.36-6.17-2.59a3.74,3.74,0,0,1-1.15-.91c-3.08-4.09-7-7.12-11.26-10-3-2.06-6.88-3.5-8.12-7.58a3.91,3.91,0,0,1,2.53-2.88c2.06-.82,3.42.69,5,1.5,1.58,1,3.21,2,4.81,3.07,3,1.08,5.4,3.36,8.29,4.72a18.28,18.28,0,0,0,6.3,5.65c1.36.88,2.29,2.56,4.26,2.32C718,435,719.05,434.78,720.07,434.91Z" transform="translate(-560.9 -244.9)" style="fill:#626262"/><path d="M660,278c-3,.33-6.11-.34-9,1a28.77,28.77,0,0,1,1.21-13.57c1.57-5.15,4.71-8.55,10.53-8.55,1.4-.67,2.89-.28,4.34-.37,2.21.66,1.18,1.76.41,2.87-1.35,1.95-4,2.07-5.41,3.94-1,2.69,1.37,3,2.85,3.93a12,12,0,0,1,.84,1.18c1.25,1.75.81,3.45-.15,5.12C663.57,274.76,662.19,276.87,660,278Z" transform="translate(-560.9 -244.9)" style="fill:#1e1e1e"/><path d="M736.8,525.4C731.92,520,727,514.57,722.2,509c-1.69-2-3.73-3.93-3-7a2.22,2.22,0,0,1,1.79-.86c2.47.47,3.15,3.61,5.77,3.83,1.26.28,2.59-.36,3.83.26,1,.42,1.86,1.21,3,1.37,5.31.11,4.19,5.61,6.65,8.18,1,1,1.38,2.87,2.69,3.95,2,2.36,2.15,7-.07,8.84C739.79,530.19,739,525.7,736.8,525.4Z" transform="translate(-560.9 -244.9)" style="fill:#202020"/><path d="M661.21,511a3.48,3.48,0,0,1,2.7,3.7C663.37,520,666.57,522,671,523c2,4,1,8.58,2.59,12.64s1.16,8.46,3.35,12.25l1,4.1c-.62,1.32.23,2.5.33,3.75.14,1.63.18,3.37-2.29,3.22a223.56,223.56,0,0,0-9.9-26.64c-2.41-5.22-3.07-10.84-3-16.48A7.65,7.65,0,0,0,661.21,511Z" transform="translate(-560.9 -244.9)" style="fill:#2f2f2f"/><path d="M567,349l.16-2.93c1.6-1.95,4-1.94,6.17-2.51,2.42-.64,4.46-1.48,3-4.62-.85-1.22-1.3-2.47-.29-3.83a3.46,3.46,0,0,1,2.68-1.3c2.92-.78,5.35-.14,7.15,2.41a47.82,47.82,0,0,0,3.69,8.39c-.25,3.61,3.53,6.89.88,10.71-2,.95-3.06-.19-4-1.69-1.68-2.8-5.11-3.27-7.29-5.52-1.38-1.43-2.92.46-4.22,1.34a13.33,13.33,0,0,1-2,.75C570.6,351.78,568.51,351.86,567,349Z" transform="translate(-560.9 -244.9)" style="fill:#252525"/><path d="M705.85,525.05a1.62,1.62,0,0,1,0,.9c-1.76,3-3,6.62-7.53,6.51a8,8,0,0,1-1.46-.19c-2.92-1-3.88-4.24-6.43-5.67a3.78,3.78,0,0,1-1.83-3.31,9,9,0,0,1,1.24-4.59c2.67-1.41,1.13-5.78,4.63-6.62,3.14-.18,3.37,3.23,5.43,4.4C701.76,519.43,705.07,521.36,705.85,525.05Z" transform="translate(-560.9 -244.9)" style="fill:#1a1a1a"/><path d="M757.06,495,726,472.09a4,4,0,0,1-.75-2.3,3.33,3.33,0,0,1,2.61-2.91,3.84,3.84,0,0,1,3.55,1.61c2.4,6.69,8.23,8.39,14.26,9.81a6.34,6.34,0,0,1,3.51,2.74c.17,4.13,3.5,5.8,6.31,7.72,2.41,1.65,4.78,3,2.79,6.45A.87.87,0,0,1,757.06,495Z" transform="translate(-560.9 -244.9)" style="fill:#363636"/><path d="M669.06,636.69l-1,.44c-2.29-1.42-4.78-2.7-4.09-6.11l2.31-3a5.52,5.52,0,0,1,2-1.16c4.35-.41,8.69-1,13-1.72,2.68.75,3.63-.41,3.28-3a4.47,4.47,0,0,1,1.17-2.77,3.15,3.15,0,0,1,2.32-.56c4,1,3,4.55,3.79,7.17,1.47,2.87,1.66,5.61-.79,8.09a4,4,0,0,1-3.55-.13c-4.26-3-8.65-3.45-13.19-.69C673.08,635.13,671.6,636.75,669.06,636.69Z" transform="translate(-560.9 -244.9)" style="fill:#373737"/><path d="M709,483c1.34,9-.83,17.51-3,26.07a2.21,2.21,0,0,1-1.39-1.56c.12-3.91-4.19-3.61-5.7-6-.6-8,3.67-14.44,7-21.16C708.05,480,709,481,709,483Z" transform="translate(-560.9 -244.9)" style="fill:#585858"/><path d="M594.13,379.88c-1.79-3.4-4.79-5.32-8.2-6.74-2.95-2.67-4.6-5.59-1.79-9.36a9.3,9.3,0,0,1,3.58-2,4,4,0,0,1,2.81,1.08c2.2,2.31,2.71,6.66,7.33,6.08a5.31,5.31,0,0,1,3.77,4.89C601,378.17,598.34,380,594.13,379.88Z" transform="translate(-560.9 -244.9)" style="fill:#292929"/><path d="M594.13,379.88c1.22-2.8,4.88-3.14,6-6,3.15-1.91,5,.28,6.88,2.22,3.42,4.79,3.23,6.12-1.54,9.46a35.59,35.59,0,0,0-4.27,3.25c-3.37.94-4.47-1.45-5.58-3.82C593.58,383.76,594.06,381.76,594.13,379.88Z" transform="translate(-560.9 -244.9)" style="fill:#8c8c8c"/><path d="M758,511l-6.69,9.31a4.37,4.37,0,0,1-3.27-1.9c-.81-2,.14-4-.06-6,.35-1.62,2.25-2.61,1.85-4.55,1.37-2.2,2.73-4.41,4.11-6.6,1-1.51,1.83-3.15,4.07-2.77a3.19,3.19,0,0,1,1.35,2.51A15.89,15.89,0,0,1,758,511Z" transform="translate(-560.9 -244.9)" style="fill:#6a6a6a"/><path d="M718.13,468.44c-1.06,3.37-1.86,6.85-3.94,9.81-2.51.16-3.53-1.19-3.63-3.54-.09-2-.16-4.06-2.93-4.23-2.11-.22-2.85-1.46-3.21-3.49a13.25,13.25,0,0,0-2.46-5.15,38.78,38.78,0,0,1-2.53-3.52c-1.82-3.36-.84-4.84,2.88-4.74a10,10,0,0,1,5.84,4.5c.34,4.41,2.76,6.18,7.07,5.57C717.33,464.55,718.93,465.77,718.13,468.44Z" transform="translate(-560.9 -244.9)" style="fill:#494949"/><path d="M616.92,315a7.64,7.64,0,0,0-5,2.85c-2.22,2.46-4.41,2.29-6.83.53a5.55,5.55,0,0,0,3.36-1.95c5.63-6.26,12.72-10.65,19.59-15.31-.56,3.82-2.47,6.34-6.41,7.31C618.35,309.22,618.51,312.79,616.92,315Z" transform="translate(-560.9 -244.9)" style="fill:#222"/><path d="M751.15,513l-2.34,5.09a6.08,6.08,0,0,1-1,6,20.13,20.13,0,0,0-2.88,7.58c-1,.8-.77,2.82-2.33,2.91-1.78.11-1.51-1.8-2.12-2.83-1.25-2.11-2.46-4.23-3.69-6.35,2-1.31,2.67,1.52,4.71,1.34-.76-2.27,3-4,.49-6.58l.15-.71a20.05,20.05,0,0,1,2.36-4.49c1.09-.79,1.91-1.88,3-2.68C748.8,511.25,750.35,510.52,751.15,513Z" transform="translate(-560.9 -244.9)" style="fill:#292929"/><path d="M716.09,324.06a3.32,3.32,0,0,0,2-2.22,2.28,2.28,0,0,1,1.22-.74A10.56,10.56,0,0,1,727,327l-1,11a1.63,1.63,0,0,1-1.23.48c-1.67-.54-2.2-2.21-3.29-3.32a14.67,14.67,0,0,0-1.92-1.86c-1.19-1.89-3.24-2.51-5.06-3.51a3.59,3.59,0,0,1-.94-2.87A3,3,0,0,1,716.09,324.06Z" transform="translate(-560.9 -244.9)" style="fill:#414141"/><path d="M567,349c1.89.77,3.58.63,5-1a34.1,34.1,0,0,1,6.4,4.52,3.57,3.57,0,0,1,.59,1.34,14.61,14.61,0,0,0,2.7,9.35c1.38,2.13,2,4.36-1.73,4.85-4-4.32-6.87-9.58-11.29-13.57C567,353,567,351,567,349Z" transform="translate(-560.9 -244.9)" style="fill:#343434"/><path d="M707.94,469c4.9-2.59,4.85-2.5,5.46,2.95.24,2.1-1.67,4.52.79,6.32A11.89,11.89,0,0,1,709,483l-2.9-2.11a2.21,2.21,0,0,1-1.39-1.55c.22-2.37.31-4.75.64-7.1A4.71,4.71,0,0,1,707.94,469Z" transform="translate(-560.9 -244.9)" style="fill:#292929"/><path d="M684,564c-.55-2.82-.34-4.76,3.48-4.71,1.58,0,3.18-1.54,5.24-2.63.68,2.64,1.33,5.35,3.32,7.35-.23,2.23.78,5.17-3,5.35-1.54.17-2.81-1-4.36-.83C685.31,568.86,686,565.09,684,564Z" transform="translate(-560.9 -244.9)" style="fill:#242424"/><path d="M725.88,352.94c.55,2.46-.87,4.64-1,7a8.76,8.76,0,0,0-1.88,1.6c-1.44,1.88-1.75,4.11-2,6.36,0,2.4.31,5.14-3.62,4.07-1-1.09-1-2.52-1.45-3.82.13-1.32-.22-2.67,0-4,.9-6.51,1-13.17,3-19.51a3.47,3.47,0,0,1,4.46-.24,3.65,3.65,0,0,1,1,2.73C724.78,349.1,724.42,351.24,725.88,352.94Z" transform="translate(-560.9 -244.9)" style="fill:#909090"/><path d="M722.31,404.22l-12.18,6c-2.08-.75-3.46,2.41-5.65,1-1.51-1.73-1.07-3.29.42-4.76a13.68,13.68,0,0,0,2.71-3.52c1.43-3.2,5.29-1.75,7.31-3.83a4.65,4.65,0,0,1,3.29-1C722,398.57,721.64,401.73,722.31,404.22Z" transform="translate(-560.9 -244.9)" style="fill:#424242"/><path d="M689.36,567.17c.89-.65.76-2.95,1.88-2.36,1.43.75,1.71,2.8,1.76,4.56v.08c1.48,4.21-.12,7.9-2,11.53-2.19,1.88-1,4.95-2.64,7.09-1.76-.33-1-2.08-1.56-3.06-2.1-3.91-1.31-8-.6-12C686.41,570.59,686.91,568.35,689.36,567.17Z" transform="translate(-560.9 -244.9)" style="fill:#e0e0e0"/><path d="M669.06,636.69c2-1.36,1.77-3.89,3-5.69,5.66.23,11.4-.71,17,1l2.15,2.07c-5.68,6.43-12.87,4-19.73,3.31A12.53,12.53,0,0,1,669.06,636.69Z" transform="translate(-560.9 -244.9)" style="fill:#494949"/><path d="M694,282c.19-4.19,2.12-4.93,5.37-2.58,2.73,2,6.35,2.87,7.82,6.39a2.91,2.91,0,0,1-1.28,2c-4.21.66-8.47,1.64-12-1.83C693.34,284.63,693.84,283.33,694,282Z" transform="translate(-560.9 -244.9)" style="fill:#656565"/><path d="M686,620.09l1,2.17c-2.29,2.23-5.12,1.33-7.79,1.34-.93-.05-1.87-.05-2.8,0-1.9.22-3.57,1.14-5.37,1.64-2,.56-3-.13-2-2.32-.79-3.4.77-6.33,1.86-9.35L672,615c2,.54,3.91,1.5,6.08,1.26s4.22-.7,6.28.26a3.79,3.79,0,0,1,1.25.75A3.05,3.05,0,0,1,686,620.09Z" transform="translate(-560.9 -244.9)" style="fill:#292929"/><path d="M579.93,368.05c1.46-4.07-2-6.54-3.28-9.69-.69-1.7-2.17-3.07.22-4.48,2.85.21,4,2.92,6.12,4.19,1.21,2.1,3.87,3.58,2.84,6.64-1.68,2.83-1.2,5.63.1,8.43C583.14,372.37,581.78,369.92,579.93,368.05Z" transform="translate(-560.9 -244.9)" style="fill:#555"/><path d="M677.16,259.54c3.33,3.82,4.81,8.7,6.84,13.15,1.51,3.32-1.92,7.22-1,11.1,1,1.69.25,2.55-1.44,2.93-2.85-.57-3.28-3.16-4.37-5.2-.87-2.33,2-3.88,1.29-6.17.46-3-1.82-5.12-2.29-7.81-.32-2.12,0-4.28-.47-6.38A2.53,2.53,0,0,1,677.16,259.54Z" transform="translate(-560.9 -244.9)" style="fill:#494949"/><path d="M677,586l-1,2c-.84,1.65-1.87,3.15-4,2.59-1.68-.44-1.53-1.79-1.11-3.11.11-5.12,2.61-9.64,3.64-14.53,1.56,0,1.74-6.61,4.5-1v3c-1,1.44-.27,3.46-2.06,4.76C674.3,581.69,678.26,583.89,677,586Z" transform="translate(-560.9 -244.9)" style="fill:#3b3b3b"/><path d="M727.21,390c2.33,4.16,1.2,7.78-1.76,11.1-3.83.25-6.12-1.94-5.88-6,.15-2.56.73-5.13,3.18-6.7a3.59,3.59,0,0,1,1.72-.45C725.82,388,726.49,389,727.21,390Z" transform="translate(-560.9 -244.9)" style="fill:#646464"/><path d="M743.76,458.12c2.54,1.44,5.16,2.76,7.23,4.91,1.94,3.27,5.65,4.31,8.34,6.64s2.71,2.86-1.2,4.56c-3.5-.27-5.26-3.39-8-4.87a9.36,9.36,0,0,0-6.89-3.25,4.21,4.21,0,0,1-1.84-2.4C739.3,458.91,739.34,458.82,743.76,458.12Z" transform="translate(-560.9 -244.9)" style="fill:#696969"/><path d="M712.79,294.91l1.23,1.92c.7,3.11,4.1,6.05.61,9.43A7.62,7.62,0,0,1,710,307.5c-1.91,0-2.76-1.38-3.58-2.79a3.33,3.33,0,0,1-.12-1.44c1.24-2.17,1.39-4.15-1.06-5.65-5-3.44-5.06-4.11-.31-7.3C709,289.33,709.77,294.05,712.79,294.91Z" transform="translate(-560.9 -244.9)" style="fill:#757575"/><path d="M691,581c-.16-4,1.28-7.7,2-11.53,3,.74,1.9,3,1.68,4.83-1,8.55-3.31,17-2.62,25.7-2.72-3.6-2.5-7.49-1.52-11.64C691.09,586,690.87,583.44,691,581Z" transform="translate(-560.9 -244.9)" style="fill:#6f6f6f"/><path d="M680.68,286.19a2.85,2.85,0,0,0,2.37-2.4,4.42,4.42,0,0,0,2.59-2.12c1.57-2.27,3.37-2.81,4.86-.2,1.15,2,2.21,1.28,3.52.55l.7,2.92c-.57,2.27-2.6,3.19-4.2,4.51-4,1.58-7.56,1.13-10.69-1.91C679.67,286.81,679.64,286.16,680.68,286.19Z" transform="translate(-560.9 -244.9)" style="fill:#252525"/><path d="M705.85,525.05c-.4-.52-1-1.54-1.17-1.48-6.28,2.57-4-3.54-5.69-5.57a12.3,12.3,0,0,1-2.44-8c.05-2.24,1-3.81,3.31-4.29,5.58.54,3.12,5,3.6,7.87.19,1.1-.9,2.42.49,3.44C704.24,519.76,706.4,522.09,705.85,525.05Z" transform="translate(-560.9 -244.9)" style="fill:#696969"/><path d="M595.66,385c2.08.21,3.36,1.88,5.07,2.77,2.79-.76,4.88-.28,5.4,3a8.52,8.52,0,0,1,.1,1.43c-3.8-.82-7.39,3.16-11.34.32-2.6-1.87-3.88-3.44-.29-5.51A1.94,1.94,0,0,0,595.66,385Z" transform="translate(-560.9 -244.9)" style="fill:#2d2d2d"/><path d="M726,508c-2.26-1.49-4.22-3.24-5.07-5.93-.32-2.94.68-5.78.57-8.71a3.18,3.18,0,0,1,2.48-3.19,5.36,5.36,0,0,1,3,5.85,5.5,5.5,0,0,1,1.27,1.76c.72,3-.47,5.76-.92,8.61A2.27,2.27,0,0,1,726,508Z" transform="translate(-560.9 -244.9)" style="fill:#6a6a6a"/><path d="M584,336.87l-5.24-3.06,18.14-12.13c-.18,2-1.66,3.91-.78,6.09a2.75,2.75,0,0,1-1.31,2.39c-2.49.95-5.65.56-7,3.62C587,335.42,586.8,337.79,584,336.87Z" transform="translate(-560.9 -244.9)" style="fill:#353535"/><path d="M718.13,468.44a9.7,9.7,0,0,0-4-3.49,8.26,8.26,0,0,1-6.17-4.95,6.66,6.66,0,0,1,.44-3c3.26-1.69,6,.71,9,1.08,1.32,2.34,2.23,5,4.74,6.48,1.23,1.82,4.6,2.11,3.85,5.37l0,2.12C723.07,471.48,721.76,467.46,718.13,468.44Z" transform="translate(-560.9 -244.9)" style="fill:#262626"/><path d="M697,423.8,693,421a1.74,1.74,0,0,1-.43-1.29,3.41,3.41,0,0,1,1.68-2.16c2.63-2.14,6.08-3.19,8.21-6a2.77,2.77,0,0,1,1.37-.15,7.12,7.12,0,0,1,2.24,1.65l.85,1.4c2.06,4.05,1.67,5.11-2.73,7.37C702,423.08,699.23,422.52,697,423.8Z" transform="translate(-560.9 -244.9)" style="fill:#191919"/><path d="M679,572c-2-2.1-3.07.32-4.5,1A26,26,0,0,0,676,559c1.88-2-.51-5.16,2-7,1.82,2.32,3,4.23,1.57,7.78-1.32,3.25-.43,7.41-.51,11.17Z" transform="translate(-560.9 -244.9)" style="fill:#3e3e3e"/><path d="M779.93,485c-1.38-1.49-4.6-2.26-3.77-4.57s3.92-2.61,6.24-3.43c1.89-.67,4.9,1.53,5.63-2.13l2,1.13c1.46,2.48-.63,2.29-2,2.65L786,481a11.6,11.6,0,0,1-2.67,2.07C782.4,484.06,781.51,485.16,779.93,485Z" transform="translate(-560.9 -244.9)" style="fill:#383838"/><path d="M709.4,306l4.76-1.09A10.13,10.13,0,0,1,724.22,306c3.19.7,6.28,1.59,8.55,4.19-.78,1.15-2,.11-2.93.6-4.43-1.88-8.81-4.13-13.8-1.88C713,309.81,709.89,310.83,709.4,306Z" transform="translate(-560.9 -244.9)" style="fill:#a7a7a7"/><path d="M638.87,291.92l-3,.09c-2.47-1.68-6.52-.22-7.93-4,1.1-1.26,2.59-1.09,3.93-.82a2.62,2.62,0,0,0,3.39-1.83c6.86-2.13,9.66-.95,10.38,4.35C644.14,292.7,641,290.72,638.87,291.92Z" transform="translate(-560.9 -244.9)" style="fill:#616161"/><path d="M612.11,419.58c-1.52,1-2.7-.49-4.07-.57-4.37-6.71-3.46-14-2.18-21.25a20.56,20.56,0,0,1,4.59,10.55C610.7,412.11,612.35,415.7,612.11,419.58Z" transform="translate(-560.9 -244.9)" style="fill:#5c5c5c"/><path d="M677.16,259.54,677,262c-.83,3.35-2.43,5.48-6.31,4-2.85-2.38-4-5.29-2.79-8.94l-5.12-.15C668,255.68,673.06,254.88,677.16,259.54Z" transform="translate(-560.9 -244.9)" style="fill:#444"/><path d="M770.86,501.1c1.07-1,1.49-2.65,3.09-3.12,1.19,3.23,4.4,4.34,6.72,6.37s5.19,3.8,6.79,8.42C780.71,509.09,776.61,503.85,770.86,501.1Z" transform="translate(-560.9 -244.9)" style="fill:#444"/><path d="M734,509c-.11,1.1.35,2.59-1.09,3s-2-1.08-2.31-2.08A20.63,20.63,0,0,1,730,506a2.46,2.46,0,0,1-1-1.81c.83-3.93,3.42-3.1,6-2.21l6.3,5.79c.23.9.6,1.81-.17,2.64-2.09,1.28-3.2.21-4.31-1.56C736.06,507.6,734.76,505.67,734,509Z" transform="translate(-560.9 -244.9)" style="fill:#565656"/><path d="M741,510a2.2,2.2,0,0,1,.34-2.19c2.81.66,5.63,1.3,8.46.09,2.4,1.18,2.52,3,1.37,5.11-3-.32-3,3.27-5.19,3.95-1.63-.82-2.83-2.26-4.48-3.06C740.29,512.7,740.81,511.32,741,510Z" transform="translate(-560.9 -244.9)" style="fill:#4f4f4f"/><path d="M763.15,491c2.34,2.82,1.3,7.81,5.91,9.17L764,504c-3.87-.19-4.94-2.74-5.09-6.06l0,.05c1.74-1.9.69-3.7-.19-5.5a1.92,1.92,0,0,1,1-2.41C761.14,489.44,762.12,490.29,763.15,491Z" transform="translate(-560.9 -244.9)" style="fill:#373737"/><path d="M724,389c-4.27,5.88-3.81,9.57,1.49,12.07-1.15.95-1.31,2.89-3.14,3.17-3,.19-2.23-3.46-4.31-4.22-2.56-4-2.27-8.17.65-11C720.49,387.16,722.2,386.63,724,389Z" transform="translate(-560.9 -244.9)" style="fill:#282828"/><path d="M758.05,473c3.47-1,1.14-2.05,0-2.94-2.64-2.05-6.07-3.29-7-7,5.89,3.26,10.86,8,17,10.82-1,2.54-2.75,1.42-4.5,1-1-.22-3.3-1.59-2.55,1.52-.54,1.48-1.62,1.38-2.81,1C756.59,476,756.45,474.49,758.05,473Z" transform="translate(-560.9 -244.9)" style="fill:#737373"/><path d="M724.22,306c-3.39-.06-6.87.74-10.06-1.12.26-2.69-1.77-5.35-.14-8.06C717.69,299.59,721.76,301.91,724.22,306Z" transform="translate(-560.9 -244.9)" style="fill:#272727"/><path d="M645.09,428c0,2.45-.72,5,.81,7.27-3.41.27-4.3,4.5-7.64,4.89-2.16.5-2.78-1.05-3.44-2.56.63-3.95,3.48-6.64,5.55-9.78C642,427.31,643.58,426.26,645.09,428Z" transform="translate(-560.9 -244.9)" style="fill:#323232"/><path d="M712,434c-2.9-.89-4.73-3.28-7-5-.7-2.68,1.55-3.08,3.1-4a11.52,11.52,0,0,1,6.75-1.43l1.21,1.34a7,7,0,0,1,0,5.07C714.61,431.24,714.26,433.58,712,434Z" transform="translate(-560.9 -244.9)" style="fill:#2e2e2e"/><path d="M724,490.14c-1.7,3.79-.05,8.44-3.05,11.9h-1.73c.44-5.48.88-10.95,1.43-17.76C722.19,487.06,723.08,488.6,724,490.14Z" transform="translate(-560.9 -244.9)" style="fill:#4b4b4b"/><path d="M712.79,294.91c-3.07.26-4.85-3.09-7.92-2.83-1.7-.06-3.45.26-5-.72-1.9-2.39-1.79-3.78,1.72-4,1.46-.09,3,.14,4.41-.46l1.23-1.07Z" transform="translate(-560.9 -244.9)" style="fill:#363636"/><path d="M697,530.84l1,.2a12.17,12.17,0,0,1,1,1.22c2.81,3.63,4.94,7.42,3.1,12.23l-2.07,4.72a3.54,3.54,0,0,1-2.33-1.46c-1.88-4.38-1.26-9.41-3.9-13.72C692.82,532.32,694.84,530.88,697,530.84Z" transform="translate(-560.9 -244.9)" style="fill:#515151"/><path d="M616.73,434.12c2.41-.89.25-4.91,3.56-5.18a10.36,10.36,0,0,1,6.71,8.38c-.87,1.68-1.57,3.64-4.15,2.74C619.7,439.21,618.44,436.43,616.73,434.12Z" transform="translate(-560.9 -244.9)" style="fill:#444"/><path d="M788,478.68l2-2.65c4.88,2.35,9.36,5.2,12.34,9.91a2.35,2.35,0,0,1-2.71.25A63.22,63.22,0,0,0,788,478.68Z" transform="translate(-560.9 -244.9)" style="fill:#666"/><path d="M727,327c-3.72-.05-5.68-2.91-8.08-5.07,0-3.69,2.57-3.5,5.12-3.28a2.72,2.72,0,0,1,2.13,1.51C729.55,322.06,727.49,324.63,727,327Z" transform="translate(-560.9 -244.9)" style="fill:#656565"/><path d="M622.85,440.06l3.4-3.14c2.09-1.68,4.46-1.38,6.86-1,4.42,2.89,1.5,4.49-1.1,6.16C628.59,443.08,625.25,443.74,622.85,440.06Z" transform="translate(-560.9 -244.9)" style="fill:#3f3f3f"/><path d="M607.93,409c-1.91-3.51-1.57-7.44-2.07-11.22-.47-1.89,2.86-3.52.37-5.54a4.7,4.7,0,0,1-.49-.51c1.66-3.51,3.9-4.1,6.79-1.33-.67,5.05-1.88,10-2.29,15.11C610.12,407,609.61,408.43,607.93,409Z" transform="translate(-560.9 -244.9)" style="fill:#3d3d3d"/><path d="M743.76,458.12c-3.15,1.22-1.33,3.17-.73,4.94-1,1.5-2.28,2.09-4,1-.68-.75-1.4-1.47-2-2.26-.48-2.15-2-3.84-2.59-5.94-.3-1.45-1.09-3,.62-4.1A27.14,27.14,0,0,1,743.76,458.12Z" transform="translate(-560.9 -244.9)" style="fill:#7c7c7c"/><path d="M670.85,587.48c1.37,3.46,3.41.52,5.14.52,1.68,3.67-.22,6-3,8-1.7.83-3.12.59-4.2-1.06Z" transform="translate(-560.9 -244.9)" style="fill:#424242"/><path d="M702.17,544.49c.42-4.77-3.33-8.15-4.15-12.5,2.48,1.14,4.24-2.79,6.82-1C703.48,535.42,705.17,540.42,702.17,544.49Z" transform="translate(-560.9 -244.9)" style="fill:#606060"/><path d="M782.08,481.07l4,0c-.23,2.52,1.35,4.29,2.61,6.15,1,1.53,2.24,2.92.69,4.78-1.74-.3-2.6-1.57-3.3-3C784.81,486.28,779.36,485.73,782.08,481.07Z" transform="translate(-560.9 -244.9)" style="fill:#909090"/><path d="M726.21,320.16l-2.29-.15c-1-1.21-2.39-1.9-3.79-1.1-1.84,1.06-3,0-4.24-.9-2.27-2.07-.77-2.77,1.19-2.91a28.25,28.25,0,0,1,9.9.77C724.62,316.92,727.36,318.89,726.21,320.16Z" transform="translate(-560.9 -244.9)" style="fill:#212121"/><path d="M704,517c-2.68,1.69-3.38.35-2.62-2a11.24,11.24,0,0,0-.34-8c1.51-2.31,1.61-2.31,4.86,0l.18,2.11Q705,513,704,517Z" transform="translate(-560.9 -244.9)" style="fill:#3b3b3b"/><path d="M722,360c.92-1.54,1.9-1.07,2.9-.1v1.16c-1.14,3.47.13,6.64,1.18,9.85.95,1.52.93,3.26,1.08,4.95l-.48.64a2.63,2.63,0,0,1-3,0,23.34,23.34,0,0,1-3-10.26C721.3,364.26,720.41,361.88,722,360Z" transform="translate(-560.9 -244.9)" style="fill:#969696"/><path d="M645,289.05c-.66-.08-1.71.08-1.92-.27-2.29-3.87-2.48-4-7.18-2.85a1.36,1.36,0,0,1-2.07,0c.61-3.27,3.3-1.95,5.12-2.14,4-.41,8.13.95,12.05-.87l0,2.09C649,286.39,648.41,289.85,645,289.05Z" transform="translate(-560.9 -244.9)" style="fill:#292929"/><path d="M758.89,497.92c2.4,1.44,3.28,4.14,5.09,6.06l-1.92,2.14c-4.48.58-5.46-.42-5-5.17.32-.81.63-1.63,1-2.44Z" transform="translate(-560.9 -244.9)" style="fill:#727272"/><path d="M691.92,626,688,620c-1.47-2.6-.68-4.27,2.1-5.11a8.47,8.47,0,0,1,.88.07C692.41,618.57,694.14,622.11,691.92,626Z" transform="translate(-560.9 -244.9)" style="fill:#464646"/><path d="M578,337.82c2.1,3.41,0,5.32-2.66,6.67a13.53,13.53,0,0,1-8.14,1.58,2.33,2.33,0,0,1,.6-2.27c1.88-.08,3-1.65,4.49-2.4C574.3,340.43,574.41,336.38,578,337.82Z" transform="translate(-560.9 -244.9)" style="fill:#6a6a6a"/><path d="M744.94,531.67c-1.5-5.33,3.09-8.93,3.87-13.6l2.45,2.22Z" transform="translate(-560.9 -244.9)" style="fill:#414141"/><path d="M668.81,595A3.46,3.46,0,0,1,673,596c0,.66,0,1.31,0,2-1.14.92-3,1.2-2.91,3.23a6.47,6.47,0,0,1-.15.88c-.81,0-1.63,0-2.43-.07-1.17-.14-2.7.7-3.37-1-.58-1.45.36-2.48,1.24-3.44A7.71,7.71,0,0,1,668.81,595Z" transform="translate(-560.9 -244.9)" style="fill:#404040"/><path d="M669,622.91c2.94,2,5.22-1.51,8-1,2.34,3.28,0,4.33-2.55,4.89-2,.44-4.21.08-6.17,1l-1.9.16Z" transform="translate(-560.9 -244.9)" style="fill:#4c4c4c"/><path d="M578,337.82c-1.87,1.48-2.74,4-5,5-2.25-.51-1.74-2.25-1.67-3.79.89-2.15,2.26-3.73,4.76-3.95Z" transform="translate(-560.9 -244.9)" style="fill:#303030"/><path d="M633.78,285.9l2.07,0c1.1,2.64.34,3.86-2.58,3.29-1.78-.35-3.54-.8-5.3-1.21C628.91,284.57,631,284.34,633.78,285.9Z" transform="translate(-560.9 -244.9)" style="fill:#3e3e3e"/><path d="M699,547l1.11,2.21a21.78,21.78,0,0,1-3,10L696,557c-1.39-1.89.35-4-.44-5.94C694.57,547.89,696.59,547.29,699,547Z" transform="translate(-560.9 -244.9)" style="fill:#474747"/><path d="M735,502c-1.17,1.82-3.74.17-4.91,2-3.52-1.91-1.79-5.21-2.11-8C732,496.11,732.83,499.82,735,502Z" transform="translate(-560.9 -244.9)" style="fill:#616161"/><path d="M729.84,310.8c.86-.78,1.9-.65,2.93-.6,1.64,1.69,3.24,3.88,1.83,5.94s-3.77.83-5.69-.07C730.94,314.62,732.91,313.16,729.84,310.8Z" transform="translate(-560.9 -244.9)" style="fill:#3e3e3e"/><path d="M704,420c4.16-.2,2.47-3.48,2.94-5.61,6.42,1.45-.18,4.43.77,6.53.43,1.31.74,2.61-.47,3.71-2,1.05-3.67.65-4.56-1.38C702.13,422,701.54,420.23,704,420Z" transform="translate(-560.9 -244.9)" style="fill:#282828"/><path d="M714,429.05c.68-1.38,1.35-2.77,2-4.15a5.87,5.87,0,0,1,2.74,3.18c-1.42,2.28,1.74,5.37-1.3,7.37C713.17,435.05,713.38,432.17,714,429.05Z" transform="translate(-560.9 -244.9)" style="fill:#3d3d3d"/><path d="M735.07,451.8l.93,4.36c-4.25,1.68-6-.71-7-4.31.67-.9,1.33-1.81,2-2.72A7.84,7.84,0,0,1,735.07,451.8Z" transform="translate(-560.9 -244.9)" style="fill:#6d6d6d"/><path d="M728,496c.7,2.65,1.4,5.31,2.11,8l-.12,2c-1.07,1.19-1.58,3.55-4,2,0-.63.11-1.26.16-1.89.87-2.65,1.81-5.29.92-8.14L727,496Z" transform="translate(-560.9 -244.9)" style="fill:#343434"/><path d="M664,631c2.29,1.42,4,3.22,4.09,6.11C662.88,637.09,662.27,636.18,664,631Z" transform="translate(-560.9 -244.9)" style="fill:#777"/><path d="M727.15,375.9a11.53,11.53,0,0,1,.92,6,3.64,3.64,0,0,1-3,2.68,5,5,0,0,1-4.52-1.61c-1.16-3.29.08-5.07,3.46-5.47a3.62,3.62,0,0,0,2.6-1.25Z" transform="translate(-560.9 -244.9)" style="fill:#9d9d9d"/><path d="M725.88,352.94c-3-.44-2.35-3-2.85-4.92,1.28-1.42.71-3,.61-4.67-.11-1.88-.74-4,1.38-5.36l1,0A88.62,88.62,0,0,1,725.88,352.94Z" transform="translate(-560.9 -244.9)" style="fill:#5c5c5c"/><path d="M704.84,531c-2.2.84-4.19,3.19-6.82,1,0-.32,0-.64,0-1,3.71,0,5.24-3.38,7.84-5.09C706.54,527.85,705.27,529.35,704.84,531Z" transform="translate(-560.9 -244.9)" style="fill:#747474"/><path d="M757,501c-.29,3.65,2.52,4.28,5,5.17L758,511C759.26,507.48,754.52,504.56,757,501Z" transform="translate(-560.9 -244.9)" style="fill:#525252"/><path d="M799.61,486.19l2.71-.25A12.39,12.39,0,0,1,808,493C803.88,491.54,802.32,488.09,799.61,486.19Z" transform="translate(-560.9 -244.9)" style="fill:#797979"/><path d="M725,383.05l3.09-1.13c.75,2.79,1.75,5.6-.86,8L725,388.86C723,386.92,723.46,385,725,383.05Z" transform="translate(-560.9 -244.9)" style="fill:#515151"/><path d="M726.07,371c-2-3.09-4.45-6.13-1.18-9.85A24.56,24.56,0,0,1,726.07,371Z" transform="translate(-560.9 -244.9)" style="fill:#4f4f4f"/><path d="M717,435c.6-2.31,1.19-4.62,1.79-6.93q.65,3.42,1.27,6.83c-1.07,1-.27,3.86-3.09,3.1C716.3,437,716.05,436,717,435Z" transform="translate(-560.9 -244.9)" style="fill:#262626"/><path d="M632,442.05c-.12-1.46,2-2.5.75-4.16.64-2,1.83-1.85,3.25-.86l2.25,3.15A9.18,9.18,0,0,1,632,442.05Z" transform="translate(-560.9 -244.9)" style="fill:#444"/><path d="M571.27,339.06l1.67,3.79c-1.55,1.28-3.1,2.58-5.18.95Z" transform="translate(-560.9 -244.9)" style="fill:#2c2c2c"/><path d="M693,610c-1.16-3-2.48-6,0-9A8.51,8.51,0,0,1,693,610Z" transform="translate(-560.9 -244.9)" style="fill:#646464"/><path d="M760,492c1.67,2.34,3.68,4.75-1.06,6,.07-1.43-1.41-1.9-1.87-3a4.07,4.07,0,0,1,.78,0C759.06,494.34,758.25,492.25,760,492Z" transform="translate(-560.9 -244.9)" style="fill:#595959"/><path d="M706.09,413l-2.14-.89A1.19,1.19,0,0,1,705.1,411c1.68-.18,3.1-2.19,5-.72Z" transform="translate(-560.9 -244.9)" style="fill:#494949"/><path d="M680,287c1.91.19,3.68,2,5.73-.51,1.64-2,1.68,3.21,3.93,1.56a5.5,5.5,0,0,1,4.37,2.09,51.79,51.79,0,0,1,3.73,6.82,2.33,2.33,0,0,1-1,1.85L696,299c-1.62-.8-2.88-3.33-5.13-1.26-1.66,1.54-3,3.35-1.33,5.66,2.4,3.4-2.17,2.85-2.56,4.64-1.48,1.18-1.67,3.43-3.55,4.28a22,22,0,0,0-8.77,4.75,8,8,0,0,1-5.43,2.39c-1.8-.06-3.62.26-5.41-.15-.65-.24-1.23-.63-1.88-.89-1.25-1-2.54-2-2.95-3.65,4.18-1.46,7.82-3.35,7-8.8,1.91-1.26,2.57,1.8,4.28,1.22,3.46-4,2.21-8.15.63-12.36a16.08,16.08,0,0,1,1.2-5.2c.52-.59,1.07-1.16,1.59-1.76a5.63,5.63,0,0,1,1.95-1.36C677.21,285.76,678.72,285.34,680,287Z" transform="translate(-560.9 -244.9)" style="fill:#161616"/><path d="M621.83,320.81c.95-2.43,2.87-4.51,5.15-2.74,3.47,2.69,4-.24,5.81-2.42-.75,5,4.59,6.16,5.22,10.11,1.93,3,4.06,6,1.09,9.54-5.13,3.26-7.79-1.72-11.45-3.4-1.71-1.24-3.58-2.36-3.85-4.76-.4-2.07-.41-4.26-1.75-6.07Z" transform="translate(-560.9 -244.9)" style="fill:#191919"/><path d="M680,287l-4,1c-1.65-1.1-2.2.88-3.35,1.2-5.14,1.26-9.13-2.25-13.71-3.31q.57-2.47,1.12-5c1-.45,1.45-1.68,2.5-2.14,1.5-.43,2.84-1.56,4.56-1.07a9.87,9.87,0,0,1,1.76.93,10.41,10.41,0,0,0,2.46.73c1.86,1,3.92,1.12,5.95,1.38l.65.17a5,5,0,0,1,2.73,5.26Z" transform="translate(-560.9 -244.9)" style="fill:#242424"/><path d="M659,285.89a51.37,51.37,0,0,1,14,2.13l.59.34a3.9,3.9,0,0,1,.68,1.88,6.93,6.93,0,0,1-1.29,4.83c-.74,1-.59,2.5-1.91,3.12-2,.71-3.72.74-3.49-2.15.12-1.62-.7-2.83-1.48-4.1-1.15-2.09-2.48-3.94-5.23-3.91C659.37,288.05,658.62,287.43,659,285.89Z" transform="translate(-560.9 -244.9)" style="fill:#696969"/><path d="M638.16,334c2.17-2.8-1.3-5.49-.15-8.27l3.91,1.09c2.66,1.44,1.15,4.64,2.77,6.52a10,10,0,0,1,.32,3.8c-1.53,2.72-.65,6.23-2.9,8.72-5.27.59-7.07-1.35-7-7.5A39.28,39.28,0,0,1,638.16,334Z" transform="translate(-560.9 -244.9)" style="fill:#515151"/><path d="M666,291.94c2.66.78.66,5.74,4.72,5.25,2.84,4.4,2,10.43-1.72,12.81q-1.51-2-3-4c-1-2.92-1.21-5.8.22-8.69C667.11,295.53,666.32,293.72,666,291.94Z" transform="translate(-560.9 -244.9)" style="fill:#242424"/><path d="M646.06,319c2.52-2.52,5.62-2.46,8.82-2,2,1.07.79,3.05,1.34,4.54-.27,1.5-.75,3-1,4.45a3.65,3.65,0,0,1-3.06,2.4c-2.25.55-3.71-.54-4.87-2.29-.94-1.3-1.07-2.9-1.65-4.34A2.42,2.42,0,0,1,646.06,319Z" transform="translate(-560.9 -244.9)" style="fill:#141414"/><path d="M646.06,319l1,1.86c-.14,1.39.28,3-1.66,3.61-2.45-.64-3.74-3.57-6.62-3.39a30.12,30.12,0,0,1-2.32-4.28A3.27,3.27,0,0,1,638,313c1.76-1,2.19,1.09,2.53,2C641.53,317.64,643.77,318.27,646.06,319Z" transform="translate(-560.9 -244.9)" style="fill:#252525"/><path d="M645,289.05c1.39-2.27,3-4.27,6-4.07,1.16,4.5-1,6.39-5.23,6.58-2.29.1-4.57.24-6.86.36C640.8,290.75,643.6,291.44,645,289.05Z" transform="translate(-560.9 -244.9)" style="fill:#202020"/><path d="M645.08,324l1.95-3.11a6.73,6.73,0,0,1,.89,4.16c0,6.88-1.23,8.78-5.92,9-1.09-2.38.2-4.78-.08-7.16-.06-.94-.11-1.88-.17-2.82A2.41,2.41,0,0,1,645.08,324Z" transform="translate(-560.9 -244.9)" style="fill:#5d5d5d"/><path d="M663,281a3.52,3.52,0,0,1-2.91-.11c0-1,0-2,0-2.93-.46-3,.42-5,3.81-5.2C668,276,664.74,278.43,663,281Z" transform="translate(-560.9 -244.9)" style="fill:#565656"/><path d="M653,321c.62-1.33,1.92-2.34,1.87-4,.78-1.82,2.45-2,4.1-2.2,1.5.32,3,.58,3.87,2.13-1.27,2.28-4,2.78-5.67,4.5C655.71,322.88,654.3,322.12,653,321Z" transform="translate(-560.9 -244.9)" style="fill:#525252"/><path d="M645.08,324l-3.33.08-3-3C642.07,319.38,643.8,321.17,645.08,324Z" transform="translate(-560.9 -244.9)" style="fill:#515151"/><path d="M709,457v2.94c-1.06.52-1.62,0-2-.95a11.43,11.43,0,0,0-5-4c-2.2-.7-4.14-1.16-2.51,2.33a9.27,9.27,0,0,1,1,5.1c0,1.52,0,3-.07,4.55a22.17,22.17,0,0,1-4.29,9.8,10.88,10.88,0,0,0-3.84,7.9,4,4,0,0,1-2.83,3.68c-1.85.59-2.63-.8-3.44-2-.63-5,1.52-9.69,2-14.6a100.53,100.53,0,0,0,.46-12.86c-.06-1.82-.1-3.82-2-4.74-2.27-1.07-3.13,1.12-4.42,2.26a5.88,5.88,0,0,1-2.1,1.28c-4.06.38-6.84-1.62-9-4.81l-1-.83c-.5-3.35,6.19-4.9,1.62-9,1-.11,1.4-.29,1.57-.15,2.31,1.88,7.61,3.54,11.61,3.81a8.09,8.09,0,0,1,3.67,1.26c2.8,1.8,4.62,1.34,5.57-1.92-.49-1.2.08-2,1.06-2.54a3,3,0,0,1,2.85.74c1.87,4.19,5.85,6.3,9.11,9.11C708.25,454.32,710,454.87,709,457Z" transform="translate(-560.9 -244.9)" style="fill:#1f1f1f"/><path d="M645.09,428c-1.2-.32-1.67,2.4-3.19.76-2.33-1.95-4.6-2.32-7.61-.94s-6.52,3.13-9.28-.79c.87-2.34,3.44-1.76,5-2.91-.12-1.25.12-2.52,1.31-3,5.38-2.22,8.55-6.54,11.15-11.44,4-.31,6.32,1.13,6.17,5.49-.06,1.67,1.22,3,1.29,4.69-.93,2.38.81,4.67.22,7Z" transform="translate(-560.9 -244.9)" style="fill:#2c2c2c"/><path d="M665,415c-2,1.8-1.43,4.08-1.19,6.3-.89.72-1.61,1.67-2.78,2-6.17.24-9.48-5.32-7.15-12,2.08-3.55,3.16-7.73,6.56-10.45,1.48-.95,2.9-1.26,4.13.4.62,1.36.09,2.53-.6,3.68-1.06,2.12-1.57,4,.85,5.8A2.68,2.68,0,0,1,665,415Z" transform="translate(-560.9 -244.9)" style="fill:#1d1d1d"/><path d="M655,412c-.22,4.43,2.57,9.11,6.12,10.24,1.61.72,1.1,1.62.27,2.62-1.36,1.64-.68,3,.73,4.14-1.18,3.11-3.07,1.81-4.62.55s-3.14-3-5.34-3.55c-4.56-1.91-1.49-6-2.52-8.91.5-2.42,1.38-4.55,3.91-5.53A1.79,1.79,0,0,1,655,412Z" transform="translate(-560.9 -244.9)" style="fill:#2a2a2a"/><path d="M680,436c-3.61-1.1-5.35-5.28-9.69-5.58-1.21-.08-2.38-3-3.28-4.72-1.7-3.3,3.85-.76,3-3.54a1.74,1.74,0,0,1,1.17-.86,4.23,4.23,0,0,1,3.81,1.82c.91,1.63.82,3.63,1.85,5.22a6.82,6.82,0,0,0,3,3.17C682.5,432.81,681.9,434.43,680,436Z" transform="translate(-560.9 -244.9)" style="fill:#242424"/><path d="M665,415c-1.06-1.44-2-3-3.18-4.31-2-2.34-1.35-4.5.2-6.68,2.87-.21,4.36,2,6.29,3.5,1.4,1.53,2.89,3,3.6,5-1.28,2.73.14,6.4-3,8.5C667.82,418.89,667.25,416.39,665,415Z" transform="translate(-560.9 -244.9)" style="fill:#303030"/><path d="M695,444l-1,2c-5.62-1.11-8.92-5.6-13-8.94.41-1.69,1-3.31,3.21-2.31s4.84.77,6.91,2.21c1.66,1.78,4.07,3,4.46,5.74A2,2,0,0,1,695,444Z" transform="translate(-560.9 -244.9)" style="fill:#2a2a2a"/><path d="M669,421c0-3.07,0-6.13,1.71-8.85,1.71-4.41,3.58-4.77,7.05-1.35a3,3,0,0,1-.21,1.67c-1.2,1.71-2.68,3.35-2.6,5.62.09,2.77-1.76,3.55-3.9,4.14l-1-.07Z" transform="translate(-560.9 -244.9)" style="fill:#949494"/><path d="M689.94,439c-1.88.75-3-.62-4.29-1.52-1.47-1-2.92-2.26-4.66-.44l-1-1c.68-4-4.81-3.62-5-7a2.13,2.13,0,0,1,2.2-1.71c4.46,1.49,7.87,4.6,11.38,7.52C689.81,435.85,691.12,437.05,689.94,439Z" transform="translate(-560.9 -244.9)" style="fill:#3a3a3a"/><path d="M662.14,429c-5.91-1.43-.65-4.51-1-6.76l2.67-1C663.43,423.91,661.67,426.22,662.14,429Z" transform="translate(-560.9 -244.9)" style="fill:#5e5e5e"/><path d="M668.11,493.07c.64-3.86,4.12-6.77,3.65-11a1.72,1.72,0,0,1,.42-2.3,2.76,2.76,0,0,1,2.93,2.64c.48,3.34,2.27,6.44,1.74,9.94-1.86,3.61-4,6.74-8.81,4.33A2.37,2.37,0,0,1,668.11,493.07Z" transform="translate(-560.9 -244.9)" style="fill:#484848"/><path d="M669.72,469.2c-1.69-3.21-5.18-6.37.17-9.61.81-.49.77-2.38,1.12-3.62,3.52-.73,4.12,1.47,4.24,4.18a18.16,18.16,0,0,1-4.19,8.54A3.09,3.09,0,0,1,669.72,469.2Z" transform="translate(-560.9 -244.9)" style="fill:#2b2b2b"/><path d="M668.11,493.07,669,496c2.08,1.52,1.65,3-.19,4.28-2.9,1.95-4.47,0-5.84-2.23l0,0C663.49,495.08,663.52,491.7,668.11,493.07Z" transform="translate(-560.9 -244.9)" style="fill:#232323"/><path d="M672.08,479.85c-.1.74-.21,1.49-.32,2.23-5.11-3.6-2.1-8.47-2-12.88l.41-.29C674.38,471.36,675.16,475.73,672.08,479.85Z" transform="translate(-560.9 -244.9)" style="fill:#2b2b2b"/><path d="M760.89,484.1c-4-7.43-12.39-9.47-18-14.9-1.52-1.47-3.3-2.68-5-4-.62-1.9-.43-3,2-2.12H743l.92,1.81c3.26.31,4.5,3.51,7,4.86,2.42,2,6.21,2.45,7,6.24l3,.45C764.9,479,762.23,481.55,760.89,484.1Z" transform="translate(-560.9 -244.9)" style="fill:#696969"/><path d="M782.08,481.07c-.87,3.73,4.64,4.25,4,7.88a11.09,11.09,0,0,1-6.11-3.92Q781,483.05,782.08,481.07Z" transform="translate(-560.9 -244.9)" style="fill:#686868"/><path d="M772.49,496.34c-5.45-1.47-1.93-4.95-1.62-7.71C772.22,491,770.14,494.18,772.49,496.34Z" transform="translate(-560.9 -244.9)" style="fill:#343434"/><path d="M690,523.19l2,1.8c2.66,3,1.28,6.22.18,9.16A2.48,2.48,0,0,1,688,535a5.25,5.25,0,0,1-1-.12c-4.35-1.39-8.37-2-9.25,5.43-1.47-4.92.14-8.85-1.68-12.33-1.4-1.28-1.17-2.61-.1-4l1-3.11c1.11-2.9-.18-5.83.15-8.74.34-1,.9-1.8,1.3-2.72a4.74,4.74,0,0,1,.74-1.24c5.29-2.14,7.08-1,7.07,4.43,0,.66,0,1.32,0,2C686.37,518,686.34,521.36,690,523.19Z" transform="translate(-560.9 -244.9)" style="fill:#181818"/><path d="M688,535c4-2.26,2.89-6.57,4-10,2.77,1,3.24,4,5,5.85-1.53,2.07-1.12,4-.07,6.26,1.42,3.07,3,6.27,2.07,9.9-.6,1.27-2.85,2.13-1,4-3.91,1.79-4.91-.75-4.55-3.64.46-3.67-1.68-5.89-3.47-8.42C689.21,537.68,683.58,538.86,688,535Z" transform="translate(-560.9 -244.9)" style="fill:#3a3a3a"/><path d="M690,538.94c.67-1.82,2.8-3.38,3.11-1.06.42,3.27,3.72,5.63,2.44,9.25-.75,2.11.12,3.55,2.47,3.87-.76,2-2.2,3.71-2,6-1.18-2.78-1.62-6.17-5.71-6.47-.82-.06-1.56-1.39-.9-1.85C693.85,545.6,689.88,542.17,690,538.94Z" transform="translate(-560.9 -244.9)" style="fill:#292929"/><path d="M680.05,594.92c-1.35-3.28.26-6.56,0-9.84,2.1-3.77,1.34-8.2,2.82-12.11l1.07-2.12a2,2,0,0,1,2.21.83c1.64,5.43-.67,10.32-2.1,15.34-.68,3-.88,6.2-4,7.92Z" transform="translate(-560.9 -244.9)" style="fill:#6c6c6c"/><path d="M676,524c0,1.33.07,2.65.1,4,0,1-.08,2-.13,3.07-1.24,1.71.86,6.11-4,4.94-3-4.12-2.59-8.5-1-13l1,0c1,.42,2.11.3,3,1C675.33,524,675.66,524,676,524Z" transform="translate(-560.9 -244.9)" style="fill:#3e3e3e"/><path d="M685,572,684,570.85c-.29-2.28-.75-4.57.06-6.84,3-1,3.11,2.89,5.35,3.16-.51,1.92-1,3.84-1.54,5.76C686.58,573.51,685.89,572.51,685,572Z" transform="translate(-560.9 -244.9)" style="fill:#353535"/><path d="M672,536c2.37-.81,2.9-3.09,4-4.94.15,5.63-.29,11.3,1,16.86C674.05,544.47,673.44,540.06,672,536Z" transform="translate(-560.9 -244.9)" style="fill:#4c4c4c"/><path d="M682.88,573c.08,4.27.61,8.65-2.82,12.11q.48-5.54,1-11.07Z" transform="translate(-560.9 -244.9)" style="fill:#3b3b3b"/><path d="M716.09,324.06c-.37,1-.74,2-1.1,2.93-1.2,1.43-.12,2.33.69,3.38,2.71,3.58,2.56,6.22-.48,9.95a5.7,5.7,0,0,0-2.33,1.48,76.83,76.83,0,0,1-4.49,14.43c-4.74,3.68-6.34,3-8.81-3.53a8.6,8.6,0,0,1,.76-3.79c1-3,.76-5.69-2.54-7.24a7.73,7.73,0,0,1-3-3c-.8-3.46,2-6.82-.08-10.58-.67-1.22.09-4.94,2.87-5.61,3.28-.8,2.64,2.58,3.7,4.28-.37-3.89,1-5.38,5.07-5.73,2.66-.22,5,1.44,7.68,1Z" transform="translate(-560.9 -244.9)" style="fill:#0c0c0c"/><path d="M714,322c-1.59,1.92-3.71,1.86-5.93,1.7-1.81-.14-4-.43-5.15,1.14-1.53,2.06,1.63,2.36,2,3.85.16.66.42,1.25-.29,2-2.86-1.37-4.54-3.93-5.88-6.86-3.84,5.88.52,9.11,3.43,12.33-1.77,3-5.4-4.72-6.14,1.69-2.23,1.53-3.46-.74-5.12-1.37-2.62-4.19-4.35-8.66-4.2-13.7.58-2.25,2.49-2.2,4.18-2.44l.7-.24-.8.2c-.37,0-.81.1-1-.1-2.32-3.13-5-3-7.94-.95a3.12,3.12,0,0,1-1.51-.27,3,3,0,0,1-1.53-2.67,3.54,3.54,0,0,1,1-2.11c2-.74,3.63-2.72,6.11-2.3,3.07,2.4,4.48-1.25,6.54-2.28.86,1.7-.22,2.58-.5,3.63-.36,1.29-.31,2.38,1.28,2.59,1.32.17,1.64-.62,1.59-1.84-.07-1.47-.16-3.49,2-3,1.72.41,4,.55,4.55,3.13.57,2.73.73,6.81,4.6,1.78.88-1.14,2.39-.22,3.35.93C710.86,318.6,712.45,320.28,714,322Z" transform="translate(-560.9 -244.9)" style="fill:#151515"/><path d="M709.4,306c1.48,2.63,3.93,3.07,6.64,2.94-2.61,2.13-5.36,1.57-7.85,0-4.49-2.77-9-5.54-12.2-9.94l.23-.17c1.31-.74,2.64-1.31,4.07-.26,2,2.24,4.83,3.47,6.8,5.73Z" transform="translate(-560.9 -244.9)" style="fill:#171717"/><path d="M715.89,318c2.83,0,6.59-3.64,8,2a7.29,7.29,0,0,0-5,1.92,5.71,5.71,0,0,1-.82-.09C717.1,320.74,716,319.64,715.89,318Z" transform="translate(-560.9 -244.9)" style="fill:#8f8f8f"/><path d="M685.93,311.85c-1.66,1.09-2.79,3-5,3.29-1.54-2.47.09-3.39,2-4.15,1.44-.83,2.15-2.64,4-2.93C686.63,309.33,686.28,310.59,685.93,311.85Z" transform="translate(-560.9 -244.9)" style="fill:#4f4f4f"/><path d="M678.08,617.92c-1.46.05-2.93.08-4.38.17-2.77.17-2.46-1.33-1.72-3.09l4-6c2.76.65,5.76.46,8.23,2.22,1.19,2.68-.3,4.07-2.58,4.62C680.15,616.19,678.81,616.44,678.08,617.92Z" transform="translate(-560.9 -244.9)" style="fill:#3c3c3c"/><path d="M680,594.94c.67.71,1.38,1.39,2,2.14,1.22,1.47,3.32,3.21,1.7,5-1.86,2-4.3,0-5.57-1.24-2.71-2.66,1.24-3.9,1.89-5.92Z" transform="translate(-560.9 -244.9)" style="fill:#1e1e1e"/><path d="M683.92,612.05c-2.71-.86-6.08,0-7.93-3.06,4.81-2.6,9-1.37,10.09,3l-.45.4A2.12,2.12,0,0,1,683.92,612.05Z" transform="translate(-560.9 -244.9)" style="fill:#565656"/><path d="M677,586c-5.66-4.8-.14-7.61,2-11C678.59,578.73,679.16,582.62,677,586Z" transform="translate(-560.9 -244.9)" style="fill:#3e3e3e"/><path d="M685,572l2.78.95-1,12.08c-1.78-.51-1.93,1.19-2.74,2C683.77,582,687.25,577.16,685,572Z" transform="translate(-560.9 -244.9)" style="fill:#474747"/><path d="M670.11,601.21c-1.31-.44-3.45-.2-3-2.41.39-1.82,2.13-1,3.39-.95L673,598A6.54,6.54,0,0,1,670.11,601.21Z" transform="translate(-560.9 -244.9)" style="fill:#5b5b5b"/><path d="M690.1,614.93,688,620l-2,.05-1-2.07c.45-2.41.73-5,4.07-5Z" transform="translate(-560.9 -244.9)" style="fill:#595959"/><path d="M689,613c-1.53,1.54-2.1,3.84-4.07,5l-.83.05c-2.11-2.82.42-4.29,1.77-6.1h.21A2.12,2.12,0,0,1,689,613Z" transform="translate(-560.9 -244.9)" style="fill:#404040"/><path d="M663,498c2.5.78,5.7,3.6,6-2.05,2.4-.22,4-2.12,6.07-3,2.21-.08,2.65,1.44,2.85,3.18-1.42,4.11-5.41,6.52-7,10.6-.64,1.69-2.74.59-4,1.27C664.3,505.22,664.63,501.23,663,498Z" transform="translate(-560.9 -244.9)" style="fill:#393939"/><path d="M667,508c.38-1.47,4.28-1.56,1.61-4.32-.59-.62.39-1.7,1.17-1.74,3.35-.18,4.32-3.21,6.29-5,3.12.54,2.87,2.54,2.08,4.78-.67,1.26-2.06,1-3.11,1.5-.91,1.75-1.77,3.52-2.76,5.22-.73,1.26-1.45,2.84-3.1,2.9C666.91,511.4,668.11,508.86,667,508Z" transform="translate(-560.9 -244.9)" style="fill:#595959"/><path d="M675,503.21l2-1.21a2.5,2.5,0,0,1,1.13,1,46.28,46.28,0,0,1,.88,9c-.49,3,1.13,6.49-2,8.9-1.57-4.21-2.55-8.45-1.24-13A5.4,5.4,0,0,0,675,503.21Z" transform="translate(-560.9 -244.9)" style="fill:#535353"/><path d="M675,524l-3-1a3.2,3.2,0,0,0-1.61-2.36c-1.08-.48-3-.19-2.34-2.28a4.77,4.77,0,0,1,4.12-3.15c2.05-.27,1.36,1.41,1.16,2.4C672.83,520,673.11,522.2,675,524Z" transform="translate(-560.9 -244.9)" style="fill:#2f2f2f"/><path d="M620.91,389l-2.74,1c-2.29,1.14-3-1-4.19-2.05-.79.56-.92,1.86-2.15,1.95l-6.09,1.75-5-3.94c-.06-2.48,2-3.45,3.62-4.25,3.5-1.73,3.24-3.93,1.5-6.64,0-1.32.85-1.68,1.93-1.82,5.89,2.69,6.08,2.65,11.47-3.15,1.11-1.21,1.83-2.83,3.67-3.19,1.91-.7,3.78-1.1,5.42.57,2,3.54-.94,4.76-3,6.41-1.54,1.19-4.45,1.78-2.06,4.71,0,2.42.61,4.79.63,7.22C623.3,388.88,622.46,389.72,620.91,389Z" transform="translate(-560.9 -244.9)" style="fill:#151515"/><path d="M616.87,324.67c-2.71,6.91-5.39,8.54-12,7.29C607.38,327,612.33,326.19,616.87,324.67Z" transform="translate(-560.9 -244.9)" style="fill:#dcdcdc"/><path d="M602.32,332.23l-10.16,6.87c-2.36,1-3.08-.33-2.71-2.24a11.12,11.12,0,0,1,2-4.87c2-1.39,4-3.1,6.56-1C599.3,331.86,601.24,330.55,602.32,332.23Z" transform="translate(-560.9 -244.9)" style="fill:#3d3d3d"/><path d="M598,331a15.14,15.14,0,0,0-6,2,1.93,1.93,0,0,1-1.64-1.33c-.22-2.77,2.22-2.08,3.6-2.76l2.1-1.15A4.37,4.37,0,0,1,598,331Z" transform="translate(-560.9 -244.9)" style="fill:#6c6c6c"/><path d="M671,422.25a13.45,13.45,0,0,0,2-6c.11-2.12.85-3.87,3.3-4.22,1.77,1.5,3.45,3.29,6.11,1.79,2.92.86,6.92.3,6.83,5.15L687,421c-.88,2.2,1.09,2.4,2.2,3.36,5.19,4.48,11.72,7.26,16.17,12.69.53,2.69-1.17,3.73-3.29,4.46-1.37.52-2.48-.14-3.6-.76-7.54-4.28-14.05-10-21.21-14.85-1.32-.19-1.9-1.74-3.31-1.77Z" transform="translate(-560.9 -244.9)" style="fill:#656565"/><path d="M701.89,440.09a6.76,6.76,0,0,1,3.15-2.92q.48-.75,1.11-.12a4.38,4.38,0,0,0,.62-.08c5.7,4.94,12.79,8.24,17.2,14.69-.21,2-1.81,1.94-3.19,2.2-1.32.78-2.82.43-4.21.67-1.3.68-1.17,2.72-2.86,3-5.31-2.3-9.53-6.05-13.48-10.15C701.6,445.15,701.27,442.51,701.89,440.09Z" transform="translate(-560.9 -244.9)" style="fill:#555"/><path d="M689.21,419a24.59,24.59,0,0,0-7.35-3.8,1.21,1.21,0,0,1-1.23-.1,2.77,2.77,0,0,1-.78-1.8,3.79,3.79,0,0,1,.21-1.29,6.8,6.8,0,0,1,.63-1.91,5.64,5.64,0,0,1,.94-1.07c1.52-.81,2.48-2.65,4.54-2.46,1.34.29,2.57.89,3.89,1.24,6.44,3.82,7.15,6.79,2.94,12.23,0,.32,0,.64,0,1Z" transform="translate(-560.9 -244.9)" style="fill:#292929"/><path d="M720.07,453a3.13,3.13,0,0,0,2.92-1.94c-.14-1.85.8-1.71,2-1.08l1,.75c2.35,2.73,5.47,4.46,8.54,6.12a10.63,10.63,0,0,1,4.46,4.24c.29.65.58,1.31.86,2a3.23,3.23,0,0,0-2,2.12l-11-7.5c-5.24-3.61-5.24-3.61-6.84,2.45C717.8,457.77,717.91,455.4,720.07,453Z" transform="translate(-560.9 -244.9)" style="fill:#6f6f6f"/><path d="M706.15,437.05l-1.11.11c-6.59-4.3-13.34-8.38-19.4-13.46-.78-.65-2.16-1.49-1.38-2.76.25-.39,1.79,0,2.74.06,5.44,4.52,12.34,7.15,16.88,12.85C704.69,434.87,705.39,436,706.15,437.05Z" transform="translate(-560.9 -244.9)" style="fill:#9a9a9a"/><path d="M707.12,424l1.66,2.86c-.34,2.33-2.7,1.14-3.78,2.18l-8-5.2c1.24-3.28,3.16-5.31,7-3.82C703.89,422.21,704.49,423.88,707.12,424Z" transform="translate(-560.9 -244.9)" style="fill:#202020"/><path d="M725,450l-2,1.08c-5.22-4.92-12.43-7.54-16.22-14.11,1.66.12,3.29.21,4.6,1.53C715.58,442.73,721.07,445.44,725,450Z" transform="translate(-560.9 -244.9)" style="fill:#9d9d9d"/><path d="M739,461.11c-3.89-2.46-7.76-4.94-11.66-7.39-1.13-.71-2.55-1.23-1.34-3l3,1.1c2.17,1.72,4.2,3.66,7,4.31C737.67,457.41,739,458.84,739,461.11Z" transform="translate(-560.9 -244.9)" style="fill:#b4b4b4"/><path d="M717,435l0,3c-1.94-1-3.83-2-5-4,0-1.95,1-3.48,2-5Z" transform="translate(-560.9 -244.9)" style="fill:#4b4b4b"/><path d="M663,281a19.85,19.85,0,0,0,.86-8.24A4.93,4.93,0,0,0,664,269a2.72,2.72,0,0,0,.48-1.35c.15-1.89-.21-4.06,2.38-4.71,2.75-.7,2.81,2.12,4.18,3.23,1.81,1,1.87,2.91,2.22,4.64a11.27,11.27,0,0,1-.51,2.23c-1.36,2.54-1.91,5.86-5.78,5.95C665.37,279.13,665.59,282.91,663,281Z" transform="translate(-560.9 -244.9)" style="fill:#696969"/><path d="M670,267c-1.31-1.35-2.54-5.37-4,0-.22.81-1.31,1.38-2,2.06,0-.3,0-.61,0-.91-1.54-1.79-3.28-3.39-4.93-5.07-.27-1.8-.83-3.39,2.2-3.61,2.26-.15,4.43-1.57,6.64-2.42q1.53,3.95,3.07,7.89A1.86,1.86,0,0,1,670,267Z" transform="translate(-560.9 -244.9)" style="fill:#2f2f2f"/><path d="M659.06,263.06c2.86.5,5.21,1.51,4.93,5.07C660.56,268.17,659.46,266,659.06,263.06Z" transform="translate(-560.9 -244.9)" style="fill:#444"/><path d="M741,510c3.2,0,1.13,1.9,1,3.07,2.55,2.27,1.61,4.53,0,6.79l0,.33c-2.33-3-6.44-4.88-6.12-9.63A1.36,1.36,0,0,0,734,509c-1.9.16-1.37-.8-.77-1.72.75-1.15,1.68-1.61,2.88-.57C737.6,508,738.86,509.63,741,510Z" transform="translate(-560.9 -244.9)" style="fill:#454545"/><path d="M591.06,332l1,1c1.3,2-.77,4.08.15,6.09-.92,2.29-2,4.43-4.29,5.72-1.29-2.66-5.69-3.78-3.92-7.95l2-4.89C587.69,331,589.38,331.6,591.06,332Z" transform="translate(-560.9 -244.9)" style="fill:#696969"/><path d="M590.16,355c2,2.68,4.34,5.18,4.06,8.89-1.36,2-2.72,1-4.09,0L588,363c-.91-1-.43-2.08-.27-3.15a7.47,7.47,0,0,0-6-6,17.87,17.87,0,0,1-4.93-2.08c-.85-1.8-4.19-1.63-3.58-4.57,6.13-2.19,8.79-1.31,14,4.59C588.17,352.83,589.17,353.92,590.16,355Z" transform="translate(-560.9 -244.9)" style="fill:#646464"/><path d="M573.2,347.14c.81,1.73,5.53-.38,3.8,3.86a1.4,1.4,0,0,1-.16,2.11c-2.94-.45-4.41-2.31-4.87-5.12Z" transform="translate(-560.9 -244.9)" style="fill:#555"/><path d="M690,523.19a15.34,15.34,0,0,0-7.32.81c-.83.28-1.77,0-1.93-1-.09-.55.34-1.68.59-1.7,5-.32.66-4.25,2.27-6.14.56-.65-.94-2.8.17-5.08s-2.52-.1-3.66-1.13c-2-1.5-.54-3.15-.2-4.75.83-2.7,3.42-2.72,5.46-3.59,1.13-.15,2.26-.26,3.4-.39,3.43,2.14,6-1.26,9.16-1.34,1.08.23,1.51,1.15,2.05,2,4,.06,6,2,5.91,6.07-.78.49-1,3.52-2.53.54-.55-1.1-1.36-1.2-2.33-.55-1.24.78-2.59,1.45-3,3a2.81,2.81,0,0,1-2.52,1c-2.52-.29-3.41,1.15-3.47,3.38,0,1.88,0,3.77,0,5.66A5.37,5.37,0,0,1,690,523.19Z" transform="translate(-560.9 -244.9)" style="fill:#1e1e1e"/><path d="M692,520.07c-2.7-3-2.93-6.35-1.5-10,1.17-2.92,2.85-3.85,5.34-1.25-.43,1.29.84,3-1,4Z" transform="translate(-560.9 -244.9)" style="fill:gray"/><path d="M694.84,512.84c.33-1.33.67-2.65,1-4L698,510q.51,4,1,8C696.53,517.15,696.09,514.67,694.84,512.84Z" transform="translate(-560.9 -244.9)" style="fill:#2e2e2e"/><path d="M747.94,482.1c4.32,2.57,9.2,4.38,12.15,8.84,0,.36-.07.72-.1,1.08-.52,1.12-.41,2.7-2.14,2.94-.28-3.22-3.11-4.3-5-6.24S746.78,486.33,747.94,482.1Z" transform="translate(-560.9 -244.9)" style="fill:#5f5f5f"/><path d="M730.07,469.85c5.64,2.4,9.94,6.73,14.83,10.21C738.38,478.94,733.23,475.85,730.07,469.85Z" transform="translate(-560.9 -244.9)" style="fill:#505050"/><path d="M721.94,463.19l6.33,4.63L726,470l-5-4C720,464.61,720.54,463.76,721.94,463.19Z" transform="translate(-560.9 -244.9)" style="fill:#4b4b4b"/><path d="M679,621.17c2.68.21,5.48-.36,8,1.09,0,.16.11.31.16.47.47,1.84,3,3.67,1.41,5.38s-4.31.91-6.5-.05C678.88,626.7,676.66,624.93,679,621.17Z" transform="translate(-560.9 -244.9)" style="fill:#5d5d5d"/><path d="M679,621.17a8.57,8.57,0,0,0,3.06,6.89c-4.59-1.12-9.21.44-13.79-.18,1.37-1.38,3.15-1.72,5-2,2.2-.35,3.64-1.52,3.74-3.92Z" transform="translate(-560.9 -244.9)" style="fill:#6d6d6d"/><path d="M689,632c-5.67,0-11.39.68-17-1C677.78,629.52,683.48,629,689,632Z" transform="translate(-560.9 -244.9)" style="fill:#707070"/><path d="M699.94,500.89l-2-1c-1.36-1.1-3.29-.53-4.66-1.58a13.48,13.48,0,0,1-1-1c-1.49-1.42-3.12-3-.64-4.77,4-2.79,5.09-6.83,5.87-11.31.37-2.15.39-5.17,3.72-5.67,2.52-.19,4.14.89,4.76,3.37l.09,1.92a8.61,8.61,0,0,1-1.92,8.59C701.64,492.6,702.43,497.45,699.94,500.89Z" transform="translate(-560.9 -244.9)" style="fill:#7e7e7e"/><path d="M590.13,363.91h4.09c4,.57,1.34,4.29,2.89,6v4.16A14.63,14.63,0,0,1,590.13,363.91Z" transform="translate(-560.9 -244.9)" style="fill:#5c5c5c"/><path d="M590.92,361.12,588,363c-.71.59-1.43,1.17-2.15,1.75-1.26-1.91-2.51-3.83-3.77-5.75-.92-1.21-1.14-2.41.28-3.37a2.38,2.38,0,0,1,3.16.41C587.18,357.85,589.08,359.45,590.92,361.12Z" transform="translate(-560.9 -244.9)" style="fill:#999"/><path d="M701.08,476.91a10.19,10.19,0,0,0-1.19,6.07c.31,4.56-.77,8.76-6,10.35-2.54.77-1,1.66,0,2.52a4,4,0,0,1-4.37,1.43c-3.43-1.83-2.39-4.84-.76-6.63,3.87-4.25,4-9.88,6.29-14.65.94-3.18,1.87-6.36,4-9,0-.17,2.63-2.59,2.61-2.94-.06-.92-.65-1.8-.12-2.76A1.59,1.59,0,0,1,704,461c1.4,2.62,1.82,5.73,3.94,8,0,.94,0,1.88,0,2.81C706.16,474.19,703.37,475.21,701.08,476.91Z" transform="translate(-560.9 -244.9)" style="fill:#525252"/><path d="M707,459l2,.95,5.12,5C709.31,465.84,705.85,462.94,707,459Z" transform="translate(-560.9 -244.9)" style="fill:#555"/><path d="M704,461l-2,1a2.33,2.33,0,0,1-3,0c-.22-1.61-.51-3.21-.62-4.82-.21-3,1.22-3.41,3.61-2.21-2.23.18-1.87,1.37-.83,2.5S704.15,458.92,704,461Z" transform="translate(-560.9 -244.9)" style="fill:#393939"/><path d="M742,519.83V513c2.53.07,3.86,1.35,3.93,3.89C744.57,517.79,744,519.72,742,519.83Z" transform="translate(-560.9 -244.9)" style="fill:#636363"/><path d="M713.83,339.08c2.91-2.17,2-4.81.89-7.47-.66-1.58-2.14-3.21.27-4.62.36.67.73,1.34,1.1,2,2.18,1.61,2.73,4,2.95,6.46a7.68,7.68,0,0,1,0,1.59c-.78,6.11.09,12.29-.83,18.4-1.25,1.73-2.54,3.33-4.87,1.44-1.43-2.59-.58-5.41-.84-8.11C712.86,345.53,711.47,342.05,713.83,339.08Z" transform="translate(-560.9 -244.9)" style="fill:#202020"/><path d="M725,338c-.62,3.35,1.48,7.24-2,10,0-1,0-2-.07-3-2.46-1.23-1.81-4.33-3.62-5.95a3.25,3.25,0,0,1-.46-1.45c.53-2.22,1.35-4.11,4.2-3.66C723.72,335.28,724.37,336.63,725,338Z" transform="translate(-560.9 -244.9)" style="fill:#787878"/><path d="M723.08,333.93,720,338c.8,1.3.35,2.36-1,2.33-2.12,0-1-2.33-1.89-3.34l-.07-1c1-1.59,1.44-3.85,4-3.87A2.27,2.27,0,0,1,723.08,333.93Z" transform="translate(-560.9 -244.9)" style="fill:#878787"/><path d="M721,332.13,717,336c-.31-2.34-.62-4.67-.92-7C718.6,328.67,720,330.16,721,332.13Z" transform="translate(-560.9 -244.9)" style="fill:#6c6c6c"/><path d="M590.92,361.12a7.6,7.6,0,0,1-6.67-3.1c-1.51-2-1.94-.52-2.19.94-2-1.42-5.59-1.2-5.19-5.08a6.69,6.69,0,0,0,0-.77c0-.7.11-1.4.16-2.11C584.47,351.07,588.66,354.11,590.92,361.12Z" transform="translate(-560.9 -244.9)" style="fill:#767676"/><path d="M701.08,476.91c-.11-4.9,2.39-6.31,6.84-5.12.26,2.63-.71,4.93-1.9,7.18Z" transform="translate(-560.9 -244.9)" style="fill:#282828"/><path d="M714.14,356.79l3.76-1.91c1.21,3,.79,6.07.1,9.12l-.09,3.84a3.53,3.53,0,0,0-.27,3.74c2.82,4.81.7,8.68-2,12.52-1.06.84-2,1.94-3.58,1.64-3.19-1.15-3.72-3.88-2.9-6.48,2.2-7,2.29-14.25,3.77-21.3A2.59,2.59,0,0,1,714.14,356.79Z" transform="translate(-560.9 -244.9)" style="fill:#515151"/><path d="M718,364q0-4.56-.1-9.12c.11-6-2-11.85-.82-17.88,1,.31.91,3.69,2.93,1l1.15.07c1.8,2.71-.35,4.71-1.23,6.94C718.84,351.3,720.62,357.87,718,364Z" transform="translate(-560.9 -244.9)" style="fill:#686868"/><path d="M722,367c.93,2.95,2.5,5.76,2.06,9,.2,1.4-.72,1.62-1.78,1.7-1.75-.49-2.32-2.45-3.9-3.14-.68-.75-1.29-1.5-.23-2.42,1.81-1.47.83-3.41.88-5.18A2.09,2.09,0,0,1,722,367Z" transform="translate(-560.9 -244.9)" style="fill:#c4c4c4"/><path d="M718.13,372.18l1.37,1.8c1.34,1.85,1,4,1.23,6.12a14.81,14.81,0,0,1-1.22,3.1c-1.59,1.34-3.08,1.49-4.44-.32,2.59-4.7.66-10.26,2.84-15C718,369.29,718.05,370.74,718.13,372.18Z" transform="translate(-560.9 -244.9)" style="fill:#888"/><path d="M719.93,345c-2-2.73,1.22-4.56,1.22-6.94,2.36,1.85,1.8,4.45,1.81,6.91Z" transform="translate(-560.9 -244.9)" style="fill:#a0a0a0"/><path d="M722,367h-3c1-2.31.18-5.41,3-7C722,362.36,722,364.69,722,367Z" transform="translate(-560.9 -244.9)" style="fill:#b6b6b6"/><path d="M715.07,382.88c1.4.05,2.84.28,4-.72a1.33,1.33,0,0,1,2-.27,6.35,6.35,0,0,1,3.84,1.16c3.81,1.94.19,3.87,0,5.81l-1,.12c-4-.71-5.37,1.82-5.85,5.06a45.48,45.48,0,0,0-.11,6l-2.07.06c-2.53.14-5.06.58-7.58-.07-1.6-.84-3.36-1.49-4.07-3.4,2.16-4.28,3.22-9.4,8.5-11.36Z" transform="translate(-560.9 -244.9)" style="fill:#171717"/><path d="M693,420c2-4.84,1.09-8.63-3.81-11.06a1.39,1.39,0,0,1,.33-2.11c4.74-3.57,9.69-6.73,15.7-7.76a4.76,4.76,0,0,1,2,2.65c.35.45.64.94,1,1.37l.73.92c.33,3.22-4.63,3.53-3.88,7L704,412.08l-.46,0-.46,0c-1.42,1.39-2.9,2.56-4.94,1.27-.45.44.27.73.14,1.11-.09,2.28-1.48,3.54-3.36,4.43Z" transform="translate(-560.9 -244.9)" style="fill:#747474"/><path d="M709,404h-.92c-1.31-.22-3.23.5-3.07-2l0-1.85c0-2.94,1.89-2.86,4-2.4,2.4.5,5.3-.51,6.93,2.3C714.85,403.58,711.08,402.32,709,404Z" transform="translate(-560.9 -244.9)" style="fill:#767676"/><path d="M679.15,633a7.32,7.32,0,0,1,1.48,0c1.47.31,4.23-.71,4.07,1.33-.2,2.45-2.53.77-4,.59-1.88-.23-2.94,2.95-5.29,1.21-.83-.61-2.65-.17-2.51-1.76s1.66-1.33,2.78-1.39,2.31,0,3.47,0Z" transform="translate(-560.9 -244.9)" style="fill:#6e6e6e"/><path d="M692.9,291.09l-3.25-3,5.07-3.13c3.42,2.55,7.59.87,11.26,2-1.17,1.4-2.71,1.37-4.37,1.29s-1.24.89-.61,1.77c-.82,1.79-2.46,1.49-4,1.55C695.62,291.89,694.34,290.78,692.9,291.09Z" transform="translate(-560.9 -244.9)" style="fill:#404040"/><path d="M685.87,612l-1.77,6.1c-2,.9-4-.31-6-.15-1.37-3-2.18-5.61,2.88-4.52a2.78,2.78,0,0,0,3-1.35Z" transform="translate(-560.9 -244.9)" style="fill:#616161"/><path d="M670,267l1-2.09c2.45-.06,3.93-2.14,6-2.92,1,1.54,2.19,3.05.94,5-1,2.14-1.86,4.48-4.8,4.63a2,2,0,0,1-1.2-.7Z" transform="translate(-560.9 -244.9)" style="fill:#7b7b7b"/><path d="M680.77,274.94c.24,2.55,1.94,5.79-2.82,6v0c-3.28,1.3-3.92-1.3-4.94-3.34.09-1.56,1.17-2.75,1.57-4.2C677.83,270.13,677.83,270.13,680.77,274.94Z" transform="translate(-560.9 -244.9)" style="fill:#a3a3a3"/><path d="M680.77,274.94c-1.94.82-2.39-4.42-4.92-1.21-2.51.73-3.76.09-3-2.75a10.89,10.89,0,0,1,5.07-4C679.53,269.42,680.09,272.2,680.77,274.94Z" transform="translate(-560.9 -244.9)" style="fill:#d4d4d4"/><path d="M758,476c-2.17-2.46-5.27-3.52-8-5.22-.67-1.2-.2-2,.9-2.59,2.23,1.8,5.27,2.42,7.1,4.83C758,474,758,475,758,476Z" transform="translate(-560.9 -244.9)" style="fill:#9e9e9e"/><path d="M751,468.16l-.9,2.59c-2.68-1.29-4.17-3.8-6.1-5.88C747.48,463.42,749,466.19,751,468.16Z" transform="translate(-560.9 -244.9)" style="fill:#a7a7a7"/><path d="M696.17,290.12,701,290l3.87,2.11c-.67.88-3.67,1.67-.15,2.73,1.1.33,2.35.19,3.2,1.17-.95,2.12-3.34,1.86-4.91,3-2.19-.17-3.63-1.59-5.06-3C696.42,294.28,694.34,292.8,696.17,290.12Z" transform="translate(-560.9 -244.9)" style="fill:#bebebe"/><path d="M703,298c1-2.19,3-2,4.92-2,.93,2.17.33,5,3.16,6.31-1.41,1.16-2.79.44-4.06.62-1.94-.73-4.08-1.21-4.68-3.67A2.16,2.16,0,0,1,703,298Z" transform="translate(-560.9 -244.9)" style="fill:#adadad"/><path d="M703,299c2,.6,3.64,1.61,4,3.9,0,.47.05.94.07,1.41-3.71.87-5.16-2.24-7.29-4.14C700.12,297.72,701.52,298.22,703,299Z" transform="translate(-560.9 -244.9)" style="fill:#797979"/><path d="M727.06,497.94c1,2.86,1.83,5.7-.92,8.14C725.08,503.21,727,500.68,727.06,497.94Z" transform="translate(-560.9 -244.9)" style="fill:#616161"/><path d="M591.06,332c-1.69,1.24-3.37.29-5.06,0,2.47-1.51,4.49-4.19,8-3.06C592.94,329.89,591.41,330.38,591.06,332Z" transform="translate(-560.9 -244.9)" style="fill:#444"/><path d="M701.05,447.06,714,457a2.85,2.85,0,0,1,2.6.23A1.41,1.41,0,0,1,717,459c-3,.78-5.52-.58-8-2-2.81-2.31-5.65-4.58-8.42-6.95-1.61-1.38-3.53-2.6-3.68-5.07C699.32,443.61,700.52,444.66,701.05,447.06Z" transform="translate(-560.9 -244.9)" style="fill:#383838"/><path d="M717,459l-1-1c-.78-2.34-1.69-4.66-.79-7.17,0-.07.26-.1.38-.08a1.66,1.66,0,0,1,.41.23l4.07,2,0,7.12c0,1.4,1.21,2,1.84,3.05L721,466C719,464,714.84,463.36,717,459Z" transform="translate(-560.9 -244.9)" style="fill:#3f3f3f"/><path d="M694.87,418.88c1.17-1.44,2.26-2.92,2.07-4.93-.7-1.18-.43-1.92,1-2.14l5.11.26C701.87,416.2,698.27,417.42,694.87,418.88Z" transform="translate(-560.9 -244.9)" style="fill:#393939"/><path d="M721.14,381.89l-2,.27c.23-.83.46-1.67.68-2.5.12-1.41.68-2.4,2.28-2.4l2-1.22,2.61.23c.14,1.24.8,2.79-1.43,2.77A4,4,0,0,0,721.14,381.89Z" transform="translate(-560.9 -244.9)" style="fill:#565656"/><path d="M669,310q.87-6.4,1.72-12.81l2.16-2.12a29.29,29.29,0,0,1,1.19,12.06C673.81,310.77,672.3,311.83,669,310Z" transform="translate(-560.9 -244.9)" style="fill:#878787"/><path d="M683,311q-1,2.07-2,4.15l-.8.87c-1.54,1.42-2.15,3.76-4.43,4.45a13.29,13.29,0,0,1-3.46,1.26c-1.67.53-3.06.29-3.89-1.45a2.41,2.41,0,0,1,.54-2.18c3.9-1.18,6.45-4.5,10-6.33C680.31,311,681.44,310.3,683,311Z" transform="translate(-560.9 -244.9)" style="fill:#313131"/><path d="M653,321c3.92.19,5.67-4.86,9.84-4.06L664,318.1c1.83,2.54-.79,3.34-1.85,4.75-1.22.84-2.17,2-3.51,2.68a4.85,4.85,0,0,1-2.14.8,2.44,2.44,0,0,1-2.55-1.44Z" transform="translate(-560.9 -244.9)" style="fill:#242424"/><path d="M682.29,290.36c1.38.67,3.42.29,3.78,2.5-3,.38-1.57,5-4.06,4.85s-1.48-3.21-1.92-5S680.65,290.33,682.29,290.36Z" transform="translate(-560.9 -244.9)" style="fill:#1d1d1d"/><path d="M696.17,290.12,699,295a2,2,0,0,1-2.11,2.16,13.54,13.54,0,0,1-3.93-6.09C693.24,288.24,694.71,289.18,696.17,290.12Z" transform="translate(-560.9 -244.9)" style="fill:#606060"/><path d="M661,322c1-1.31,2-2.62,3-3.94a9.3,9.3,0,0,1,4.91,0l.06,2.12C667.1,324.17,664.35,324.34,661,322Z" transform="translate(-560.9 -244.9)" style="fill:#4e4e4e"/><path d="M696.84,297.18,699,295l4,3c0,.34,0,.67,0,1l-3.22,1.17-3.58-1.33C696.42,298.29,696.63,297.74,696.84,297.18Z" transform="translate(-560.9 -244.9)" style="fill:#676767"/><path d="M672.93,288c.12-.93.17-1.92,1.5-1.9s1.48.89,1.58,1.88l-1.14.88c-1.17.71-1.32-.32-1.68-1Z" transform="translate(-560.9 -244.9)" style="fill:#cacaca"/><path d="M673.19,287.89l1.68,1c-.22.45-.44.91-.67,1.36C673.87,289.46,673.53,288.68,673.19,287.89Z" transform="translate(-560.9 -244.9)" style="fill:#888"/><path d="M638.16,334c-.46,1.61,1.18,3.31-.2,4.89-3.05-.49-6.2-.28-9.18-1.29A6.28,6.28,0,0,1,629,330C631.75,332,633.65,336,638.16,334Z" transform="translate(-560.9 -244.9)" style="fill:#161616"/><path d="M626.21,326c1.3,1.09.58,3.55,2.75,4.05,0,1.36,0,2.72,0,4.07-1.3,1.53.72,3.54-.75,5" transform="translate(-560.9 -244.9)" style="fill:#595959"/><path d="M674.13,277c1.16,1.41,1.53,3.58,3.81,3.88-2.29,1.81-4.62,2.35-7,.2.52-1.4-.06-2.82.06-4.23a2.75,2.75,0,0,1,.88-1.12A1.8,1.8,0,0,1,674.13,277Z" transform="translate(-560.9 -244.9)" style="fill:#555"/><path d="M672,276.05v.86c-1,2.13-1.29,5-4.81,4.21L667,279c2.07-1.87,2.83-4.47,3.84-6.93C672.4,273.07,673,274.33,672,276.05Z" transform="translate(-560.9 -244.9)" style="fill:#444"/><path d="M667.17,281.12c2.45-.44,2.65-3.44,4.82-4.21.72,1.67,1.12,3.26-1.08,4.18C669.67,281.49,668.43,282.37,667.17,281.12Z" transform="translate(-560.9 -244.9)" style="fill:#6b6b6b"/><path d="M630,337c3.22-1.68,5.48.63,8,1.91-.85,3.46.75,5.29,4,6a3.45,3.45,0,0,1,2-1c6,2.12,9.78,11.13,7.3,17.26a2.59,2.59,0,0,1-1.34.67c-1.94-1.35-3.59-2.85-6.16-3.53-4.6-1.21-6.57-5.68-9.07-9.33-2.9-.62-4.33-2.45-4-5.37C631,341.37,629.18,339.35,630,337Z" transform="translate(-560.9 -244.9)" style="fill:#1e1e1e"/><path d="M650.08,361.18c.83-6.46-1.75-11.64-6.09-16.16-2-2.48-.37-5.39-1-8-.34-1-.69-2-1-3,2.82-2.45,2.67-6.85,5.92-9l4.14,2c2.79,1.24,1.43,3.09.72,4.84-1.58,3.08-1.63,5.45-.1,9.22,2.22,5.48,2.7,11.9,3.7,18,.56,3.41-1.56,4.37-4.65,3.44A10,10,0,0,1,650.08,361.18Z" transform="translate(-560.9 -244.9)" style="fill:#2f2f2f"/><path d="M643,337c1.08,2.58,1.74,5.22,1,8l-2-.07A11.18,11.18,0,0,1,643,337Z" transform="translate(-560.9 -244.9)" style="fill:#414141"/><path d="M651,331c.64-1.24,1.57-2.4,1.06-4l1.9-2.15,2.93.26a2,2,0,0,1,.91,1c.42,1.71-1.28,2.87-1.14,4.25.57-1.6.75-3.89,3.68-3.32,1.29,1.56,3.81,1.24,4.85,3.18a9.31,9.31,0,0,1,.11,5.18c-.4,1.54-1.77,2.29-2.73,3.39-1.7.9-3.55,1.51-5.19,2.54-5,.25-7.69-2.68-6.54-7.22C651.12,333.06,652.07,332.11,651,331Z" transform="translate(-560.9 -244.9)" style="fill:#4e4e4e"/><path d="M682,505c-.77-7.25,3.85-12.84,5.92-19.21,2,.16,2.17.17,2.41-1.88.4-3.38,1.25-6.4,4.71-7.91,2.38.34,1.56,1.6,1.17,3.16-1.52,6-5.44,10.92-7.28,16.76.56,3.19-1.29,4.82-3.89,6Z" transform="translate(-560.9 -244.9)" style="fill:#2d2d2d"/><path d="M701.05,447.06,696.91,445,695,444v-1c-.82-3.51,2.13-3.22,4-4l2.87,1.11a7.82,7.82,0,0,0,.63.77C706.44,444.64,706.44,444.64,701.05,447.06Z" transform="translate(-560.9 -244.9)" style="fill:#2a2a2a"/><path d="M699,462h3c1.13,3.11,1.13,3.11-.44,6.07-1.32-.67.33-2.66-1.3-3-.26-.06-.82,1.25-1.24,1.93Z" transform="translate(-560.9 -244.9)" style="fill:#494949"/><path d="M643.11,410l-2-2c2-2.45,5.17-3.15,7.7-4.81,3.3-2.17,4.65,1.38,6,3.77A5.73,5.73,0,0,1,654,412a7.68,7.68,0,0,1-2.94,5c-4.1-2.1-2.16,1.89-3.05,3C646.14,416.79,647.27,412.09,643.11,410Z" transform="translate(-560.9 -244.9)" style="fill:#222"/><path d="M654,412l-1.23-5.45c.81-2.06-1.77-3.11-1.48-5,1.81-2.84,4.7-1.71,7.22-2a2.67,2.67,0,0,1,2.53,2.54c-2.93,2.75-1.9,7.91-6,9.93Z" transform="translate(-560.9 -244.9)" style="fill:#313131"/><path d="M666.94,409.13A11.59,11.59,0,0,1,662,404l2-2c2.62-2.43,4.08-.22,5.7,1.41a4.07,4.07,0,0,1,.66,2.45C670.12,407.88,668.76,408.74,666.94,409.13Z" transform="translate(-560.9 -244.9)" style="fill:#777"/><path d="M669,404c-1.68-.64-3.06-2-5-2-1-.84-2-.45-2.92.11l-3.09-1-.3-.79a2.91,2.91,0,0,1,1-2.25c2.12-1.9,4.2-.41,6.29.09,3.09.47,6.32.82,4.67,5.4Z" transform="translate(-560.9 -244.9)" style="fill:#494949"/><path d="M674,424.13c1.26-1.63,2.57-2.49,4.07-.24.78,1.63,2.3,3.44-1,4.14L675,429C673.08,427.71,674,425.81,674,424.13Z" transform="translate(-560.9 -244.9)" style="fill:#494949"/><path d="M666.94,409.13a5.23,5.23,0,0,1,2.25-3.28c.33-.57.84-1.55,1.33-1.27,3.62,2.07,8.62.8,11.45,4.71,0,.24,0,.48,0,.71v1.06a1.07,1.07,0,0,1,0,1.73l-1,.23a4.54,4.54,0,0,1-3.36.11,2.73,2.73,0,0,1-.9-1c-2.06-3.86-4.07-1.35-6.1.05A7.71,7.71,0,0,1,666.94,409.13Z" transform="translate(-560.9 -244.9)" style="fill:#7f7f7f"/><path d="M677.06,428c.33-1.38.65-2.76,1-4.14A217.22,217.22,0,0,1,699,439c-.74,1.93-2.41,2.93-4,4l-5.06-4C686.08,434.82,680.3,432.92,677.06,428Z" transform="translate(-560.9 -244.9)" style="fill:#121212"/><path d="M681,415l.86.16c-.23,1.43.68,3.94-2.31,3s-5.25-2.43-3.28-6.11a4.31,4.31,0,0,0,.49.11l.16-.08C678.07,413.32,679.85,413.71,681,415Z" transform="translate(-560.9 -244.9)" style="fill:#b4b4b4"/><path d="M677.12,502.58c1.78,2,1.2,4.95,2.69,7.08L679,512C677,509.14,676.91,505.89,677.12,502.58Z" transform="translate(-560.9 -244.9)" style="fill:#595959"/><path d="M701,352c1.93,1.16,1.8,6.41,6,3,3.4,1.35,2.83,3.41,1,5.71-2.09,2.67-3.64,5.43-1.35,8.78a4.44,4.44,0,0,1-1.35,5,2.7,2.7,0,0,1-2.81.21c-5.93-3-12-2.1-18.13-.82-4.34.91-7.57-1.6-10.93-3.57a2.74,2.74,0,0,1-.92-3.54c1.7-2.22,3.49-.67,4.74-.38a40.29,40.29,0,0,1-6.35-2.71c-1.82-1.12-2.6-2.43-1.25-4.41a3.41,3.41,0,0,1,1.29-.71,32.62,32.62,0,0,1,3.7,0c3.66,1.07,6.78,4.34,11.1,2.77,2-.39,3,2.68,5.25,1.39a7,7,0,0,0,3.32-4.31,11.1,11.1,0,0,1,.53-1.28C696.8,355.29,696.83,351.18,701,352Z" transform="translate(-560.9 -244.9)" style="fill:#161616"/><path d="M704.09,370c-1.44-1.05-2.31-1.55-1.26-4.09,1.47-3.54,6-6.11,4.16-10.88,2.64-5,2.55-10.68,4.13-15.93,2.13,1.61.86,4,1.37,6,.73,6.36,1.17,12.69-1,18.9A16.44,16.44,0,0,1,704.09,370Z" transform="translate(-560.9 -244.9)" style="fill:#292929"/><path d="M701,352,696,358c-4-2.27.21-4.44.08-6.66.13-.46.27-.92.41-1.39a23.53,23.53,0,0,0,1-7.27,4.39,4.39,0,0,1,1.41-2.61C703.26,343.3,703.64,345.48,701,352Z" transform="translate(-560.9 -244.9)" style="fill:#272727"/><path d="M711.05,345.94q0-3.44.07-6.87a2,2,0,0,1,2.71,0c0,3.18,0,6.36,0,9.54C711.38,349.26,712.37,346.42,711.05,345.94Z" transform="translate(-560.9 -244.9)" style="fill:#7b7b7b"/><path d="M698.9,340.1l0,2.92c-1.49.9-2.89.46-4.27-.28-2.26-.8-5-1.16-4.82-4.46.12-1.8.64-3.62,3.18-3.26,1,.92,2,1.85,3,2.78Z" transform="translate(-560.9 -244.9)" style="fill:#4d4d4d"/><path d="M693,335c-3.35,4.16,1.19,5,3,7,1,1.25,1.83,2.53,1.24,4.23-2.24,3.3-4.43,2-6.62-.07-2.84-1.82-7,1.47-9.33-2.33-1.25-2,0-3.61.87-5.26a8,8,0,0,0,2.14-6.14c0-3.38-.26-7.14,2.46-10A1.6,1.6,0,0,1,688,323C688.7,327.42,689.9,331.62,693,335Z" transform="translate(-560.9 -244.9)" style="fill:#8f8f8f"/><path d="M688,323h-1a12.38,12.38,0,0,1-1-.91c-.53-2.18-3.07-2.43-4-4.21,4.92-5,6.11-4.88,9,1.05a2.59,2.59,0,0,1,1.13,2.16Z" transform="translate(-560.9 -244.9)" style="fill:#444"/><path d="M674.8,319.13c1.69-1.21,3.14-2.81,5.36-3.12.35.72.7,1.44,1,2.17a2.27,2.27,0,0,1,.57,1.4c-1.37,3.48-4.37,4.8-7.63,5.77a3.16,3.16,0,0,1-2.12-.62C669.63,321.22,674.8,321.45,674.8,319.13Z" transform="translate(-560.9 -244.9)" style="fill:#444"/><path d="M692.08,321.11c-1.28-.25-1.57-1-1.13-2.16,1.9-1.41,3.91-2.31,6.24-1.1.32.17.66,1,.55,1.15C696.24,320.68,694.1,320.75,692.08,321.11Z" transform="translate(-560.9 -244.9)" style="fill:#7a7a7a"/><path d="M681.21,319.09c0-.3,0-.61,0-.91.25-.08.5-.18.74-.28,3.74-1.15,5.56,0,5,4.11-1,.42-1.47,1.75-2.72,1.89a2.41,2.41,0,0,1-2.57-2A9.39,9.39,0,0,0,681.21,319.09Z" transform="translate(-560.9 -244.9)" style="fill:#8f8f8f"/><path d="M652,402c.75,1.42,2.34,2.69.82,4.51-1-.72-1.45-3.43-3.17-1.38-2.37,2.81-5.48,2.41-8.48,2.8l-2.2-1.83c1.76-2.83-1.8-3.94-2-6.14a11.17,11.17,0,0,1,1.93-3.87,9.49,9.49,0,0,1,5.43-2.92,5.66,5.66,0,0,0,4-3.14c.6-.43,1.22-.84,1.84-1.25,2.37-.76,4.83-.08,7.31-.65,3.21-.74,5.54,2.23,5.46,6.12-1.29,2.16-3.4,1.55-5.32,1.56s-3.27,1.13-4.21,2.77C652.72,399.68,651.26,400.41,652,402Z" transform="translate(-560.9 -244.9)" style="fill:#161616"/><path d="M638,400c2.61,3.18,5.87.45,8.77.88-.37,5.22-4.72,4.31-7.85,5.26-6.56-5.11-13.48-9.85-18-17.09l2.07-2c.42-1.59,1.22-2.71,3.1-2.45,3.24,3.63,6,7.7,10.19,10.46C637.67,396,638.23,398.06,638,400Z" transform="translate(-560.9 -244.9)" style="fill:#232323"/><path d="M628,369.71c.5-1.09,1.2-2.14,2.53-1.58,3.42,1.44,7,.38,10.49.93.39,2.28-1.28,2.52-2.74,2.38-3-.27-4.53,1.56-6,3.6-2,1.06-3.13,3.29-5.39,4a3.65,3.65,0,0,1-3.35-1.78,2.58,2.58,0,0,1,.39-2.31C625,373.07,627.58,372.23,628,369.71Z" transform="translate(-560.9 -244.9)" style="fill:#525252"/><path d="M607.94,375.77c3.57.09,6.81-.44,9.43-3.37,1.35-1.5,3.64-1.28,5.62-1.3-2.17,1.78-4.47,3.43-6.49,5.38C612.88,380,611.65,380,607.94,375.77Z" transform="translate(-560.9 -244.9)" style="fill:#262626"/><path d="M623.91,377l3.1,1c.92,2.27.43,4.46-.41,6.63L626,385l-3,2.06c-1.21-1.81-2-3.7-1.29-5.93C620.77,378.85,621,377.23,623.91,377Z" transform="translate(-560.9 -244.9)" style="fill:#404040"/><path d="M623.91,377c-.74,1.36-1.47,2.73-2.22,4.1-1.21-.32-3-.39-2.74-2.07.43-2.54,2.71-3.4,4.91-4.09C623.88,375.65,623.9,376.33,623.91,377Z" transform="translate(-560.9 -244.9)" style="fill:#262626"/><path d="M631,374c.44-3.16,3.1-3.32,5.38-3.85,1.54-.36,3.22-.13,4.63-1.08,3.27-.64,4.24,2.26,6,3.91a2.57,2.57,0,0,1-.58,3.25c-2.7.63-3.67-2.56-5.68-2.53,2.07,1.35,5.24,2.07,5.71,5.61-1.17,2-3.66,2.17-5.08,3.8-5.1.68-6.92-2.84-8.52-6.64C632.61,375.36,631.4,375,631,374Z" transform="translate(-560.9 -244.9)" style="fill:#373737"/><path d="M649.83,374.08c1.17,1.85,3.68,2.5,4.34,4.82a2.4,2.4,0,0,1-1.14,2c-3.79.44-5.73-1.75-7-4.9l1-3Z" transform="translate(-560.9 -244.9)" style="fill:#4a4a4a"/><path d="M716,451c-.18,2.34,1.42,4.68,0,7l-2-1a36,36,0,0,1-.37-5.26C713.74,450,714.87,450.16,716,451Z" transform="translate(-560.9 -244.9)" style="fill:#474747"/><path d="M673,367c4.38,3.14,8.65,5.28,14.61,3.6,2.92-.83,6.25-.81,9.21-2.13,1.09-.48,2.11-.27,2.3,1,.43,2.87,2.91,3.32,4.85,4.45,3.81,3.45,2.73,8.1,2.82,12.36.05,2.1-1.54,3.55-3.88,3.69-.78.29-2.14-.53-2.27.92,0,.53,1,.61,1.66.74a3.14,3.14,0,0,1,2.31,4c0,4.09-3.74,4.83-6.13,6.35-3.87,2.46-7.51,5.66-12.42,6.13L682,410l-.11.07c-1.47-3.23-5.94-3.19-7.23-6.63-.36-1.94-2-3.38-2.12-5.41a5.14,5.14,0,0,1,1.1-4.08c.22-2.67-2.58-.79-3.23-2.11-1.94-2.44.13-5.07-.37-7.58.12-1.77-.77-3.41-.64-5.18.22-3.94-3.35-3.39-5.44-4.6a4.87,4.87,0,0,1-1.08-.8c-2.48-2.49-1.9-6.36-4.09-9-1.75-1.1-2.13-2.83-2.23-4.7.87-4.9,1.54-5.26,6.78-3.67,3.49,2.43,5.89,6.09,9.48,8.43A1.66,1.66,0,0,1,673,367Z" transform="translate(-560.9 -244.9)" style="fill:#0f0f0f"/><path d="M686.08,408.05a114,114,0,0,0,18.23-12.15H705l4,1.85a5.1,5.1,0,0,0-4,2.4,100.65,100.65,0,0,0-15.84,8.77Z" transform="translate(-560.9 -244.9)" style="fill:#3b3b3b"/><path d="M681,415c-2.34.37-3.9-.33-4.08-2.95a6.46,6.46,0,0,1,4.09,1C681,413.68,681,414.33,681,415Z" transform="translate(-560.9 -244.9)" style="fill:#747474"/><path d="M682,412.79l0-1.73c.9.24,2.09.38,1.65,1.7C683.36,413.56,682.57,412.94,682,412.79Z" transform="translate(-560.9 -244.9)" style="fill:#828282"/><path d="M672,276.05c-.39-1.32-.77-2.63-1.15-3.95l1.11-1.15q.46,0,.93,0a5.53,5.53,0,0,0,3,2.75c2.63,2.77.35,3-1.72,3.28Z" transform="translate(-560.9 -244.9)" style="fill:#858585"/><path d="M693.94,496.83c2.54-.52,3.56.94,4,3.1-1.85,5.65-5.34,3.76-8.82,1.92C687.38,497,691,497.18,693.94,496.83Z" transform="translate(-560.9 -244.9)" style="fill:#9f9f9f"/><path d="M693.94,496.83c-2.37.94-3.53,3-4.79,5l-4.12,0c1-2.19,1.61-4.62,3.89-6l5-.07C693.9,496.17,693.93,496.5,693.94,496.83Z" transform="translate(-560.9 -244.9)" style="fill:#717171"/><path d="M711.05,345.94c1.41.39,2,1.65,2.74,2.69.12,2.72.23,5.44.35,8.16l-.38.57c-1.36,2.09.31,6.67-4.73,5.71C712.43,357.68,712.29,351.88,711.05,345.94Z" transform="translate(-560.9 -244.9)" style="fill:#484848"/><path d="M722.08,377.26l-2.28,2.4c-1-1.84-.66-3.76-.3-5.68C721.54,374.14,722.57,375.1,722.08,377.26Z" transform="translate(-560.9 -244.9)" style="fill:#d8d8d8"/><path d="M715.64,392.77c-1.41-.31-2.24-1.25-1.95-2.45.4-1.62.09-3.94,2.18-4.5,1.38-.37,1.93,1.1,1.69,2.3C717.22,389.77,717.48,391.75,715.64,392.77Z" transform="translate(-560.9 -244.9)" style="fill:#282828"/><path d="M697.92,411.81c-.32.72-.65,1.43-1,2.14-2.06-.84-3.56-3.09-2.93-4.51.8-1.79,3.45-2.12,6-1.75C700.18,409.52,698.46,410.41,697.92,411.81Z" transform="translate(-560.9 -244.9)" style="fill:#a4a4a4"/><path d="M705,402l3.07,2c-1.86,1.16-3.74,2.12-6,.94C702,402.83,703.87,402.81,705,402Z" transform="translate(-560.9 -244.9)" style="fill:#919191"/><path d="M674.8,319.13c2.9,3.9-2.79,2.67-2.86,4.79-2.67,5.55-4.5,6.16-11.56,3.89A8.65,8.65,0,0,1,657,326a8.65,8.65,0,0,0-.11-.89l1.48-1.3c4.38-1.62,9.45-.79,13.45-3.77Z" transform="translate(-560.9 -244.9)" style="fill:#282828"/><path d="M671.82,320.08c-3.69,4.08-8.67,3.56-13.45,3.77A3.48,3.48,0,0,1,661,322a15.49,15.49,0,0,0,8-1.83C669.94,320.5,670.91,321,671.82,320.08Z" transform="translate(-560.9 -244.9)" style="fill:#9a9a9a"/><path d="M658,360c.71,1.29,1.49,2.52,3,3a2.14,2.14,0,0,1,.72,2.07,3.27,3.27,0,0,1-3.72,2.09c-3-1-4.14-3.94-6-6.08,1.65-.11,3.32,0,2.58-2.66-1.16-4.1-1.9-8.33-3.2-12.39-.81-2.53-.06-6-4.09-7-1-.26,0-2.08.84-2.88A9.06,9.06,0,0,0,651,331c.85.62,2.32.72,1.69,2.47-1.48,4.08,1.22,5.46,4.35,6.52,3-.89,3.44.8,3.16,3.18-.62,1.16-2,2.08-1.16,3.69C658.65,351.24,657.48,355.56,658,360Z" transform="translate(-560.9 -244.9)" style="fill:#404040"/><path d="M660,327.17c4.53.93,8.25-1.15,12-3.25l2.12.12c2.77,2,3.23,4.26.78,6.87-3.58.2-7.14,2.91-10.76.15-1.52-.81-3.38-1.15-4.08-3.06-.4-.17-.54-.35-.41-.54S659.84,327.17,660,327.17Z" transform="translate(-560.9 -244.9)" style="fill:#616161"/><path d="M664.08,331.06,675,329c1.16-1.59,2.39-3.08,4.67-2.84,3.34,3.15,3.28,3.62-.91,7.25a3.85,3.85,0,0,1-1.52.84,43.39,43.39,0,0,0-9,1.63c-1.72.45-3.1.72-4.3-.82A5.42,5.42,0,0,1,664.08,331.06Z" transform="translate(-560.9 -244.9)" style="fill:#1e1e1e"/><path d="M664,335.08,677,332c.41,2.76,4,2,4.8,4.29a2.89,2.89,0,0,1-.13,1.54,3.08,3.08,0,0,1-3.5,1.56c-4.74-2.09-9.49.67-14.24,0a3.49,3.49,0,0,1-1.5-.69L662,338C660.41,335.48,661.7,334.93,664,335.08Z" transform="translate(-560.9 -244.9)" style="fill:#7b7b7b"/><path d="M659,343c.19-1.57-.74-2.4-2-3,1.15-1.87,3.05-1.9,4.92-2l.25.12c1.37,1.47,2.43,3.21,4,4.45,1,3.74,5,2.13,7.06,4a2.5,2.5,0,0,1,.27,1.37c-1.08,2.51-4.42,1.62-5.72,3.81a2.56,2.56,0,0,1-2.78,0c-1.05-.76-1.69-2-3.06-2.43C658.84,348.24,658.27,345.92,659,343Z" transform="translate(-560.9 -244.9)" style="fill:#6e6e6e"/><path d="M660,327.17l0,.83c-3.92,1.76-1.55,5.26-2.36,8.28-3.88-3.34-1.24-6.88-.64-10.24Z" transform="translate(-560.9 -244.9)" style="fill:#6c6c6c"/><path d="M652,402c-2.1-1.51-.69-2.76.3-4,3.31-1.9,4.37.81,5.78,2.82l-.08.24C656.4,404.1,653.87,401.17,652,402Z" transform="translate(-560.9 -244.9)" style="fill:#2b2b2b"/><path d="M676,403c2.22,2.15,5.7,3.27,5.85,7.12-4.14-1.67-8.73-2-12.69-4.22L669,404l.19-.23C670.91,399.52,671.08,399.5,676,403Z" transform="translate(-560.9 -244.9)" style="fill:#494949"/><path d="M657,394l4.88-.14c1.21-1.71,2.69-2.66,4.84-1.74,1.39,2.21,6.46,1.87,4.51,6.43-2,1.24-4.48.1-6.42,1.46l-5.74-.9C656,398.33,655.13,396.72,657,394Z" transform="translate(-560.9 -244.9)" style="fill:#666"/><path d="M664.81,400c1.77-1.64,4-2,6.25-2.07a2.17,2.17,0,0,1,2.92,0,6,6,0,0,1,2,5c-.95.44-2.17,1.76-2.9.59-1.71-2.73-2.69-.26-4,.26C668.69,401.41,667.72,399.59,664.81,400Z" transform="translate(-560.9 -244.9)" style="fill:#2b2b2b"/><path d="M657,394c0,2,1,3.54,2.07,5.11l-1,1.72L652.26,398C652.61,395.2,653.72,393.3,657,394Z" transform="translate(-560.9 -244.9)" style="fill:#6b6b6b"/><path d="M673,367c-2.48-4-7.47-5.1-10-9-.91-1.51-1.79-3-.32-4.7a3.12,3.12,0,0,1,1.34-.56c6.57,1.6,6.57,1.6,6,7.32,1.77,3.52,5.6,3.89,8.56,5.58,1.47.84,3.68.5,4.5,3C679.36,369.47,676.44,366.39,673,367Z" transform="translate(-560.9 -244.9)" style="fill:#303030"/><path d="M686,363c-4.63,2.58-7.92.22-11-3,1.08-1.24,2.52-2.3,2.21-4.28-.15-1.94,0-3.79,2.42-4.11,2.16-.3,4.62-1.49,6.29,1,.73,1.09,1.79,1.92,2.3,3.16a4.29,4.29,0,0,1,0,1.43C686.91,358.93,688,361.57,686,363Z" transform="translate(-560.9 -244.9)" style="fill:#202020"/><path d="M670,360.06c-2.55-1.48-2-6.11-6.08-6a2.5,2.5,0,0,1-.23-3.11,1.73,1.73,0,0,1,2.3.06l0,0c2.85.94,5.65,2.18,8.65,2.46a3.82,3.82,0,0,1,3.66,2.48c-.77,4.48-4.82,2.83-7.39,4A5.94,5.94,0,0,0,670,360.06Z" transform="translate(-560.9 -244.9)" style="fill:#666"/><path d="M686,363c-1.94-2.43-.85-4.26,1.17-5.91,1.65-.2,3.29-.9,5-.12a3.11,3.11,0,0,1,1,1.09c-.06,2.8,1,5.92-2.16,7.88Z" transform="translate(-560.9 -244.9)" style="fill:#383838"/><path d="M690.94,366c.44-2.6-1.23-5.51,1.13-7.83,1.73-1.55,2.61.69,4,.87.9.34,2.24,1.54,2,1.59C694.85,361.36,694.6,366,690.94,366Z" transform="translate(-560.9 -244.9)" style="fill:#202020"/><path d="M696,359c-1.62,1.05-2.7-.3-4-.88l-.14-.21c-.82-1.21.35-2.15.43-3.25.36-5.14.93-5.4,5.6-2.71-.06,2.22-2.94,3.54-1.92,6.09C696,358.35,696,358.67,696,359Z" transform="translate(-560.9 -244.9)" style="fill:#383838"/><path d="M671,359.93l6.94-3.82A.83.83,0,0,1,679,356c1.84,4.51-1.21,4.15-4,4Z" transform="translate(-560.9 -244.9)" style="fill:#393939"/><path d="M698,351.94c-4.86-.89-3.65,4.35-6,6-1.7.37-3.5,1.33-4.79-.8L687,357c1.33-1.45.13-3.31.78-4.87,1-3.41,4.07-3.33,6.65-4.09,2.35-.45,3.15.91,3.41,2.91C697.9,351.29,697.93,351.62,698,351.94Z" transform="translate(-560.9 -244.9)" style="fill:#656565"/><path d="M697.85,351,695,349c-1.06-1.49,2-1.54,1-3,0-1.33-.06-2.66-.08-4,1.26-.48,2.13.18,2.95,1C698.88,345.71,699.51,348.49,697.85,351Z" transform="translate(-560.9 -244.9)" style="fill:#6c6c6c"/><path d="M689,353.09c.53.85,2.12,1.22,1.39,2.64s-2.1,1.16-3.34,1.29c-1.37-2-2.55-3.49-5.75-3.52-2.86,0-1.46,1.82-2.26,2.51l-1.11.1c-3.78-2.1-9.26-.23-11.86-5.09l1-.23c2-1.65,4.76-.7,6.84-1.93,1-1.38-.73-1.11-1-1.68-3-.64-7.12.95-7.76-4.1,2-2,4.46-.29,6.67-.66,3.3,1.74,7-1.5,10.23.72,3,2.12,6.92-.27,10,1.86,1,1.77.55,3.06-1.27,3.87S687.89,351,689,353.09Z" transform="translate(-560.9 -244.9)" style="fill:#181818"/><path d="M682,343.14c-3.18,2-6.57,1.73-10,.86-1.84-3.43,1.83-3.66,3.07-5.3,1.17-.11,2.24-.75,3.44-.68a3.51,3.51,0,0,0,2.88-1.33,1.64,1.64,0,0,1,1.77-.09c.85.55.46,1.54.81,2.28Z" transform="translate(-560.9 -244.9)" style="fill:#959595"/><path d="M689,353.09c-3.29-3.54-3.12-4.72,1-6.11a3,3,0,0,0,2-2c1.17,1.12,2.41,2,4.1,1,.76,1.39-.35,2.12-1,3C693.06,350.46,690.29,350.72,689,353.09Z" transform="translate(-560.9 -244.9)" style="fill:#787878"/><path d="M684,338.88l-1-2.2c.1-4.63-.72-9.4,2-13.63a1.32,1.32,0,0,1,1.93-1c0,.33,0,.67,0,1-.25,3.94.67,7.87-.46,11.84A7,7,0,0,1,684,338.88Z" transform="translate(-560.9 -244.9)" style="fill:#aaa"/><path d="M679.24,327.19,675,329a7.08,7.08,0,0,1-1-5l7.15-5a2.74,2.74,0,0,1,1.72,2C682.13,323.4,682.38,326.32,679.24,327.19Z" transform="translate(-560.9 -244.9)" style="fill:#aaa"/><path d="M679.24,327.19c-.86-.37-2.08-.48-2.24-1.55-.18-1.23,1-1,1.7-1,2.41,0,2.46-2.79,4.23-3.55a2.8,2.8,0,0,0,2.07,1.95c1.41,4.86,1.29,9.49-2,13.63h-1.57c-.11-.29-.21-.57-.3-.86-.94-1.48-4.26-1.06-3.26-4.08C679,330.45,683.34,330.13,679.24,327.19Z" transform="translate(-560.9 -244.9)" style="fill:#c5c5c5"/><path d="M638,400c-2.87-3.2-6.88-4.95-10-8a6.72,6.72,0,0,1-2.06-7h0c.73-1,1.33-2.27,2.91-2.17,3.21,1.06,5.71,3.46,8.81,4.76,4.79,2.15,3.48,5.81,2.31,9.42A4.53,4.53,0,0,1,638,400Z" transform="translate(-560.9 -244.9)" style="fill:#141414"/><path d="M666,394.14c-1.28-1.28-2.69-.81-4.1-.3-1.19-2.52-2.33-4.87-5.87-2.8-1.61.94-3.41-1.19-5.23-.27-1.61-3.39,2.61-3.62,3.16-5.84,1.91-1.83,3.62-.14,5.4.31,3.59.83,5.29-1.71,7.15-4a3.12,3.12,0,0,1,1.37-.34c1.78.28,2.57,2,4,2.79A9.29,9.29,0,0,1,671,391a3.07,3.07,0,0,1-.59,3.06C669,395,667.49,395.6,666,394.14Z" transform="translate(-560.9 -244.9)" style="fill:#303030"/><path d="M640,397c-1.43-2.58-.23-6.44-3.89-7.93a21.57,21.57,0,0,0-6.25-5.51c-1.24-.69-2.79-1.34-2.39-3.3.56-1.44,1.81-1.66,3.12-1.76,4.27-.13,5.73,4.51,9.34,5.5,2,2.37,4.63,3.8,7.31,5.19l1.17.71a2.39,2.39,0,0,1,.61,1.19C647.85,395.86,643.83,396.27,640,397Z" transform="translate(-560.9 -244.9)" style="fill:#232323"/><path d="M649,391.08l-1-.05c-1.57-2.12-1.22-4.23.71-5.66s4.36-1.15,6.29.65c-.64,2.25-3.05,2.94-4.19,4.75Z" transform="translate(-560.9 -244.9)" style="fill:#686868"/><path d="M631,380l-3,.92c-.25,1.22,2,1.7.93,3.15l-3,.92c-.87-2.51-.84-4.88,1-7a12.5,12.5,0,0,1,4-4c1.66-.45,3.32-1,5-.06C634.6,376.17,633.38,378.56,631,380Z" transform="translate(-560.9 -244.9)" style="fill:#2b2b2b"/><path d="M631,380c-1.2-1.3-1.61-2.62.5-3.28,1.77-.56,3-1.76,4.48-2.77-.74,4.16,1.15,6.7,5,8a2,2,0,0,1,1.69,1.34c.26,2.87-1.91,2.41-3.6,2.62Z" transform="translate(-560.9 -244.9)" style="fill:#4f4f4f"/><path d="M646,376l6.92,4.1c1.78.49,3.94,1,3.24,3.4-.59,2-2.74,1.34-4.31,1.36s-2.85-.78-4.31-1c-1.4-1.32-4.67-2-1.57-4.82l-8-6.73C642.09,372.74,643.83,374.87,646,376Z" transform="translate(-560.9 -244.9)" style="fill:#242424"/><path d="M646,379c-.28,1.63,1,2.25,2,3,.35,3-2,3.65-4,4.49C641.7,386.21,643,384,642,383l-1-1C641.89,379.68,643.84,379.14,646,379Z" transform="translate(-560.9 -244.9)" style="fill:#525252"/><path d="M644.07,386c.54-2.08,2.38-2.88,3.92-4,2.31-.08,4.06,2.19,6.57,1.58.54-1.67-2.47-1.74-1.6-3.51l1.21-1.17c.82,0,1.61,0,2-.86a2.79,2.79,0,0,1,3,1.44c.28,2.44,3.59,3,3.47,5.73-.64,1.63-1.94,2-3.5,1.81-1.37-.5-2.6-1.6-4.23-1-3.77-.34-6.81.34-7,5a6.83,6.83,0,0,1-.78.06C646.23,389.34,644.44,388.09,644.07,386Z" transform="translate(-560.9 -244.9)" style="fill:#3c3c3c"/><path d="M658.92,373.68a2.54,2.54,0,0,0,2.81-.76A1.73,1.73,0,0,1,664,373h0a2.56,2.56,0,0,1,.52,2.07c-1.55,2,.08,4.84-1.61,6.87-2.71,2.1-3.62-.32-4.85-1.93l-1.83-2C657.45,376.8,659.74,376.21,658.92,373.68Z" transform="translate(-560.9 -244.9)" style="fill:#2e2e2e"/><path d="M662.7,374.16,664,373c5.31-.58,7.38,1.25,7,6.12-1.46.95-2.83,2.14-4.78,1.81C663.53,379.44,661.26,377.75,662.7,374.16Z" transform="translate(-560.9 -244.9)" style="fill:#1d1d1d"/><path d="M663,354l0,4c-2.12-.44-4.57-1.72-5,2-2.55-2.54-1-5.79-1.39-8.69-.18-1.38.17-2.85-.56-4.19,2.35-1.72,3.19.15,4.14,1.74C660.54,350.9,662.56,352,663,354Z" transform="translate(-560.9 -244.9)" style="fill:#212121"/><path d="M666,394.14l4-1.15c2.75-1.29,5.32-2.05,6.14,2.16-.51,1.09-2.11,1.35-2.14,2.8l-2.92,0c-.62-1.44-1.71-1.7-3.15-1.41C665.85,396.93,665.19,396.1,666,394.14Z" transform="translate(-560.9 -244.9)" style="fill:#a2a2a2"/><path d="M676.12,395.15c-1.68-1.75-3.83-2.17-6.14-2.16l1-2a5.69,5.69,0,0,0,5.75-2.8,1.47,1.47,0,0,1,2.48-.22c.66.73.3,1.43-.17,2.17C678,391.78,677.1,393.47,676.12,395.15Z" transform="translate(-560.9 -244.9)" style="fill:#939393"/><path d="M685,388.82c-1.7,3.78,2.18,5.82,2.65,9.63-3.28-2-5.37-4.31-6.11-7.24C681,389.39,683.54,389.69,685,388.82Z" transform="translate(-560.9 -244.9)" style="fill:#202020"/><path d="M702.12,388.29c-.35,1.51-.69,3-1,4.51-2.58.88-4.6-.64-6.89-1.7C697.18,391,699,387.8,702.12,388.29Z" transform="translate(-560.9 -244.9)" style="fill:#252525"/><path d="M664,373l-2.26-.09c.19-2.71,1.16-5.48-.71-8V363c2.86-.33,2.21,1.88,2.18,3.3C663.14,368.58,663,370.85,664,373Z" transform="translate(-560.9 -244.9)" style="fill:#1d1d1d"/><path d="M659,350c-.74-1.22-1.41-2.51-3-2.86-1.16-2.94.78-3.64,3-4.13,1.1,3.74,7,3.32,7,8l-2,0A3.8,3.8,0,0,1,659,350Z" transform="translate(-560.9 -244.9)" style="fill:#505050"/><path d="M677.83,331.75c1.53,1,3.6,1.58,3.26,4.08-.8,0-1.6.11-2.39.07-1.2-.07-2.79.67-3.43-.81s1.07-2.1,1.73-3.1A1.7,1.7,0,0,1,677.83,331.75Z" transform="translate(-560.9 -244.9)" style="fill:#b0b0b0"/><path d="M678.51,338a3.74,3.74,0,0,1-2.57,2.2c-3.41,1.62-6.9,3-10.68,1.36-1.38-.61-3.67-1.06-2-3.53C668.38,338.28,673.44,335.56,678.51,338Z" transform="translate(-560.9 -244.9)" style="fill:#2a2a2a"/><path d="M663.31,338.05c.72,3.17,3.19,2.6,5.4,2.52,2.41-.09,4.82-.23,7.23-.35-.49,2.12-3.07,2-3.94,3.78-2.42.6-4.64-.29-6.9-.92a4.43,4.43,0,0,1-2.89-5Z" transform="translate(-560.9 -244.9)" style="fill:#939393"/><path d="M674,350.33a5.93,5.93,0,0,1-6.93.46c.95-3.22,3.75-2.6,6.1-2.91,1.28-.48,2.74-.84,3.07.94C676.51,350.33,675.31,350.65,674,350.33Z" transform="translate(-560.9 -244.9)" style="fill:#858585"/><path d="M674,350.33c.66-.3,1.65-.45,1.42-1.43-.26-1.15-1.38-.92-2.25-1-.11-.23-.21-.46-.31-.7,2.8-1.1,4.94.94,8.45,1.12C678.5,350.57,677,353.23,674,350.33Z" transform="translate(-560.9 -244.9)" style="fill:#202020"/><path d="M659,350c1.75,0,3.5,0,5,1,0,1-.07,2-.11,3h-1C660.81,353.52,659.11,352.53,659,350Z" transform="translate(-560.9 -244.9)" style="fill:#444"/><path d="M629,384.06c-.69-.94-1.76-1.76-.93-3.15,2.86,2.55,7.47,3.37,8.09,8.15C633.31,388,631.29,385.79,629,384.06Z" transform="translate(-560.9 -244.9)" style="fill:#424242"/><path d="M659.2,387l3-1.92c.36-.85-.22-1.88.52-2.65,1.3-.91,2.41-2.37,4.33-1.56L667,381v.65C665.87,385.61,664.11,388.61,659.2,387Z" transform="translate(-560.9 -244.9)" style="fill:#939393"/><path d="M667,381.67a2.36,2.36,0,0,0,0-.65l1,1Z" transform="translate(-560.9 -244.9)" style="fill:#c1c1c1"/><path d="M644.07,386c2.76.66,2.91,2.9,3.12,5.12l-8.13-5.16c1.1-.86,2.46-1.45,2.94-2.93Z" transform="translate(-560.9 -244.9)" style="fill:#585858"/><path d="M663,383c-.27.7-.55,1.4-.83,2.11-2.21-1-5.82-.87-4.13-5.07,1.38.06,2.32,2,4,1C663.66,381,663.66,381.83,663,383Z" transform="translate(-560.9 -244.9)" style="fill:#565656"/></svg>