<svg xmlns="http://www.w3.org/2000/svg" viewBox="0 0 493.52 145.81"><title>Weapons_emblem</title><path d="M1176.11,578c-.63,2.29-3.38,2.69-4.26,4.75-2.28,2.09-3.74,5.11-6.94,6.14A7.11,7.11,0,0,0,1162,592c-4.36,1.28-8.72,2.45-13.15.25a7.94,7.94,0,0,0-4.84-.87c-5.94.3-11.6-.45-16.6-4a7.34,7.34,0,0,0-4.32-.94c-8.78-.21-17.62-1.25-26.32-.8s-17.76-1-26.64,1.31c-4.29,1.12-9.2-.42-13.77-1.15a31.15,31.15,0,0,0-17,1.94c-7,2.77-14.62,2.21-22,2.47a9.14,9.14,0,0,1-1.54-.31c-12.57-2.5-25.14-2-37.61.52-6,1.21-12.38-.3-18.13,2.64a2.13,2.13,0,0,1-2.74-.57c-1.92-2.87-4.72-2.16-7.6-2.07,2.36.78,5.81-.33,6.15,3.06.16,1.62-2,.83-3.21.66h-1.24c-4.07,1.06-8.41-.34-12.43,1.59-1.73.83-2.17-1.14-2.58-2.24-1.51-4.11-4-3.7-7.09-1.87-4.57,2.73-4.79,2.61-4.74-2.68,0-1.76-.66-3.66.65-5.29,4.63.1,9.31-.38,13.78,1.33a4.76,4.76,0,0,0,3.43.23c5.29-2.08,10.47-.84,15.67.32a2.62,2.62,0,0,0,1,.16c13.42-2.78,27.35.3,40.75-3.9,6.57-2.06,13.57-2.72,20.08,1.75,3.12,2.14,7.1,1.2,10.71.62,1.46-.23,3.23-.72,3.39-2.46s-1.32-3.08-2.94-3.59a24,24,0,0,0-11.83-.58,91.15,91.15,0,0,1-10.91,1.07c-4.79.35-8.62-2.15-12.61-4.12-1.17-.58-1.05-1.54.09-2.27,2.39-1,4.92-.77,7.4-.77,13.83,0,27.67.43,41.48-.1,29.8-1.15,59.57.77,89.36.09,2.33,0,4.66-.06,7-.13,3.46-.1,6.18-1.2,7.38-4.73,3.65-1.62,2.56,1.72,3,3.1.77,2.34-2.2,5.65.91,7.11,2.28,1.07,5.13-.55,7.68-1.24,1.13-.31,2.52-.86,3.38-.15C1167.21,578.52,1171.59,578.54,1176.11,578Z" transform="translate(-712.84 -460.09)" style="fill:#1a0203"/><path d="M903,586.09c-6.91,1.1-13.83-.1-20.75-.07-3.09,0-5.34-2.7-6-6,1.21-4.68-2.55-5.45-6.08-7.83,1.58,3.29,5.1,1.82,6.2,5.33-8.62,0-16.9,0-26,0,3-4.38,7-2.84,10.25-3.93-2.49.2-4.9-2.91-7.64.34-.44.51-3.15-.28-4.74-.74a15.77,15.77,0,0,0-12.82,1.42c-1.79,1-2.15-.36-2.31-1.4a37.76,37.76,0,0,1,0-11.43,2.05,2.05,0,0,1,1.86-2c1.08-.08,1.4.78,1.54,1.6.4,2.25,2,2.15,3.75,2.25,8.92.49,17.86-.42,26.77.43-5.68-1.1-11.42-.5-17.14-.7-2.8-.09-5.79.34-7.55-2.68-.52-.91-1.27-.77-2.15-.62-2.51.43-4.88-.1-5.78-2.68-1-2.91-1.18-5.94,1.91-8a9.25,9.25,0,0,1,4.91-.59,77.87,77.87,0,0,0,21.83,0c2.12-.28,4.58-.42,6.35.78,6.59,4.47,13.49,2.33,20.23,1.12,12.15-2.16,20.73,6.57,17.78,18.43-.16.64-.62,1.41-.35,1.92C910.47,577.28,905.48,581.35,903,586.09Z" transform="translate(-712.84 -460.09)" style="fill:#0b0307"/><path d="M995,572.87c7.52,4.5,15.39,5.08,24,3.35,5.57-1.13,11.79-2.34,16.33,3.49,1.69,2.16,1.64,3.18-.77,4.55-5.13,2.91-12.26,1.63-18-1.21-5-2.46-10.87-1.21-16.48-.2-9.25,1.67-18.35,5.64-28.08,2.38a7.2,7.2,0,0,0-4.4.13c-4.38,1.58-8.48,2.36-13.27.85-3.54-1.11-7.77-2.13-11.45.62a1.73,1.73,0,0,1-1.46.13c-5.14-2.37-11-.81-16.17-3-1.9-4.86.17-10-1.15-14.92,0-1.07,0-2.14.07-3.21.45-2.45,2.22-3.14,4.39-3.16a83.9,83.9,0,0,1,9-.12c3.16,6.63,8.61,8.79,15.61,8.15,2.12-.19,3.82-.79,4.85-2.75a29.41,29.41,0,0,1,1.57-2.57c4-5.13,8.46-1.82,12.79-.55,2.16,4.48,6,5.95,10.65,5.81a54.31,54.31,0,0,1,9.45.52C993.56,571.34,994.93,571.19,995,572.87Z" transform="translate(-712.84 -460.09)" style="fill:#0b0203"/><path d="M713.94,551.05c-1.54-3.91-1-8-1-12,0-2.27,1.46-2.63,3-3.12,2.94,1-.81,2.68.36,3.9,4.48-.15,4-4.41,5.6-6.88l.05,0c2.57.2,1.32,1.85,1.48,2.83,1.49-1.16-.9-5.27,3.19-5.21,1.83,3.76,6,2.36,8.79,3.89,1.47,2.11,3.67,1.53,5.7,1.55a15.33,15.33,0,0,1,5.22.61c4.35,1.33,8.6.49,12.85-.55,1,0,1.89.58,3.35,1-4.24-2-8.15-.38-12-.74-1.29,0-2.57.08-3.86,0a38.42,38.42,0,0,0-6.43-.37c-1.9,0-3.81-.14-3.91-2.7s1.68-3.47,3.85-3.51c6.78-.14,13.58-.54,20.33.27a58.85,58.85,0,0,0,5.91.4,3.69,3.69,0,0,1,1.47.24c1.39,1,.79,5.41,4.39,2.5a10.45,10.45,0,0,1,8.42,1c.65-.17,1.29-.31,1.94-.45a8.49,8.49,0,0,1,2.06-.31c2.12.36,4.39,0,6.3,1.34a3,3,0,0,1-.7,3.44c-1.2.93-2.69,1-4.08,1.44a4.79,4.79,0,0,1-2,0c-1.72-1-3.09-.53-4.17,1.05-3.34,2.36-.49,5.94-1.74,8.72-2.05,2.93-4.58,3-7.43,1.27-1.94-1.55-2.22-3.79-2.51-6,.33-3-1.9-3-3.91-3.26-3.23-.08-6.46,0-9.68,0-1.91.3-4.67-1.42-5.18,2.2-2.49.87-5.12.72-8.67,1,7.77.05,14.55-.55,21.32.14,1.8.18,4.08.17,4.19,2.6.14,2.82-2.35,2.87-4.3,3-2.63.13-5.33.54-7.83-.76l2.67-2.24a18.64,18.64,0,0,1-7.76.25,1.64,1.64,0,0,1,2,.94c-2.2,3.45-5.12,2.18-8.1,1.4-1.31-.35-4.2-1.87-2.68,2a2.76,2.76,0,0,1,0,2c-1.83.79-.51,4.68-3.89,3.94a23.44,23.44,0,0,1-.13-12c-.26,2.28-.67,6.13-1.11,9.8a43.94,43.94,0,0,0,.21,10.21c.68,6.54.82,6.52,7.11,7.39,4.36,1,8.83-.13,13.18.79,2.6,1.9,5.65,1.28,8.55,1.66a10.23,10.23,0,0,1,5.12,1.59c1,1.68.8,3.54.75,5.35-.13,4.89-.86,5.37-5.57,3.75a6,6,0,0,0-2.89-.49,52.52,52.52,0,0,1-21-1.26,5.64,5.64,0,0,0-2.91.08c-5.82,1.45-8.06,0-9.27-6.06a11.24,11.24,0,0,1-.48-1.92c-.07-2.7-1.59.11-2.18-.6-2.93-1.84-2.29-4.92-2.35-7.56a78.73,78.73,0,0,1,.32-10.3c.28-2.66.4-4.6-3.24-3.4a3,3,0,0,1-2.76-.7l0,0C717,552.54,716,551.15,713.94,551.05Z" transform="translate(-712.84 -460.09)" style="fill:#23232c"/><path d="M1161.9,528.16a24.79,24.79,0,0,0-.09,3.44c.31,2.85-.84,4.34-3.72,3.83-4.07-.71-7.52,2.12-11.51,1.8-.69-.05-.53,1-.49,1.64,2.85,3,1.3,6.26.67,9.47-.32.75-1.14,1.16-1.38,2-2,7-2.37,7.18-10.14,4.35a7,7,0,0,0-5.76-2.11,7.66,7.66,0,0,1-3.85-.46c-1.17-.55-2.62-1.12-2.53-2.64s1.57-1.43,2.63-1.69,2.19-.65,3.32-.85c3.9-.81,7.79,1.39,11.73-.06a39.05,39.05,0,0,0-11.42-1.45c-12.12-.22-24.24.56-36.36-.42-1.73-1.44-5.61.87-5.79-3.3a402.11,402.11,0,0,1,48.82-.11c-4.27,0-10.11-.71-16-.65-11.27.09-22.53.11-33.79.46a12.84,12.84,0,0,1-5.4-.56c-1.52-1-1.16-2.05.22-2.48,4.31-1.35,8.25-3.1,13.35-1.41,6.53,2.17,13.66,0,20.42.65-2.22-.93-5.09,1.4-7-1.49,1.81-2.59,4.6-2.37,7.23-2.41,7.29-.09,14.59-.58,21.86.45,1.27,0,2.66.37,3.75-1.21-1.57-1.74-3.65-1.53-5.51-1.49-14.31.29-28.61-.33-42.93.45-7.41.41-15-.65-22.43-.34-16.79.69-33.57.25-50.34-.16-1.82,0-3.68.18-5.41-.61-1.68-2.44-1.71-4.38,1.72-5,3.08-.58,6.16-1.59,9.33-.49,5.88,2.63,12.32,1,17.16,2.29a21.66,21.66,0,0,1-6.24-.9c-1.52-.93-2.65-2.08-2.34-4.07.82-1.45,2.16-1.33,3.48-1.08,6.18,1.16,12.49-.34,18.69,1a13.25,13.25,0,0,0,7.35-.56,44.75,44.75,0,0,1,16-1.06,16.34,16.34,0,0,0,5.3.69c6.25.5,12.48.71,18.62-1,3.39-.35,6.82.09,10.14-1.48,2.1-1,4.54-.3,6.6,1,1.1.58,1.39,2.43,3.11,2,3.59-.81,7.32-2.87,10.32,1.24a7.76,7.76,0,0,1,1.6-1.88,5.15,5.15,0,0,1,1.31-.53,15,15,0,0,1,3.47-.21,5.53,5.53,0,0,0,5.17-1.28c3.51.64,1.74,4.6,3.86,6.12a9.31,9.31,0,0,1,1.81,7.24c.28-1-.06-2.37.16-3.61a1.83,1.83,0,0,1,1.12-.76C1155.13,529.36,1158.5,528.3,1161.9,528.16Z" transform="translate(-712.84 -460.09)" style="fill:#1b161a"/><path d="M1176.11,578c-4.41,3.18-8.36,2.49-12.06-1.31-1.11-1.14-2.42-.37-3.7,0-2.21.63-4.51.91-6.7,1.58-3.62,1.1-5.17.31-4-3.72a19.38,19.38,0,0,0,.26-8.77,3.64,3.64,0,0,1-1.08-2.15c-.64-3.46.59-6.76.81-10.15a47.28,47.28,0,0,0-.48-9.43c-.25-1.85,0-4.12,2.45-4,2.22.08,1.93,2.32,2,3.94s-.55,3.36-.23,5c.39,1.93.83-.26,1.31-.14,5.74-1.54,11.76-.78,17.51-2.21,2.24.47,4,2.59,6.56,2,5.57-.73,11.07,0,16.58.61,2.29,3,4.12,6.07,3.75,10-3.15.78-6.42.89-9.56,1.72-7.74-.24-15.48-.12-23.21-.74-3.61-.28-7.08,1.77-9.14,1.39a102.39,102.39,0,0,1,30.18.77c1,.72,1.48,1.59.75,2.78C1185.38,570.61,1180.09,573.72,1176.11,578Z" transform="translate(-712.84 -460.09)" style="fill:#0b0406"/><path d="M884.77,483.1l1.16,2.68c4.16,6.73,11.22,6.57,17.81,7.41,1.42.18,2.94-.44,4.3.48a2.79,2.79,0,0,1,.67,2c-.65,2.91-.28,6-1.49,8.79-1.47,3.42-3.53,4.22-5.91,1.48-2.18-2.51-4.61-1.11-6.86-1.63-5.93-1.36-10.58-4.28-13.38-9.82-1.35-3.62-4.88-2.61-7.49-3.53-.86-.69-1.73-2.55-2.68-1.71-3.95,3.53-7.55.28-11.29-.17-2.61-.78-5.2-.31-7.85-.2-7.51.33-15.18,2.16-22.46-1.41-.32-4.14,3.73-6,5.76-6,5.84.06,9-1.82,9.72-7.69.07-.61.83-1,1.46-1.23,2.14-.23,4.26.26,6.39.14,3.57-.61,7.51,1.85,10.77-1.31a4.48,4.48,0,0,1,3.52,0c.31.12.63.4.91.37C876.51,471,880.51,477.26,884.77,483.1Z" transform="translate(-712.84 -460.09)" style="fill:#c62e40"/><path d="M903,586.09c-.21-2.93-.08-5.66,3.11-7.18,2.48-1.18,1.59-3,.46-4.54-1.44-1.91-2.28-3.87-.71-5.9,3.64-4.68.72-9.23-1.85-11.94-3.53-3.74-8.31-6.95-14.64-4.56-3.6,1.35-7.69,1.43-11.57,2a5.91,5.91,0,0,1-4.68-1.18,12.47,12.47,0,0,0-10.3-2.7c-8.93,1.9-17.82-.28-26.71,0-2.56.1-2-2.23-2.79-3.54-.21-.65-.36-1.31-.56-2-.85-2.32-2.78-1.17-4.3-1.33-1.24-.54-1.43-1.68-1.67-2.81-.17-1.78-1.21-3.34-1.36-5.13.8-3.06,2.91-.38,4.27-1,1.53-.08,2.83.71,4.24,1.08,2.06.54,4,2,6.17-.46,1.15-1.33,2.68,0,3.74,1.08,1.76,2.12,2.35,4.33,0,6.71,9,.25,17.47,1.48,26.09.59,3.63-.38,7.31,1.85,11,2.79,2.71.69,5.19,1.19,4.17-3.17a3.45,3.45,0,0,1,2-4.14,8.1,8.1,0,0,1,8.47,1c1.64,1.24,2.25,2.18,4.29.41s3.85,1.13,6.31,1.23c1-2.09.38-4.43.48-6.64.15-3.11,1.3-5.1,4.71-5.13a33.6,33.6,0,0,1,9.12,1.67c.82,3.6-2.17,2.87-3.8,3-6.72.58-6.73.48-6.44,7.41,0,.33,0,.66,0,1,.42,5.76.53,11.61,8.79,11.66a6.08,6.08,0,0,1,5,2.85c0,.24-.11.47-.16.71l-5.39-.67c-8.12-1-9.45.2-9.58,8.65-.08,5-.34,9.9-.14,14.84C909.05,585.26,907.33,587,903,586.09Z" transform="translate(-712.84 -460.09)" style="fill:#48070f"/><path d="M1150,592c4,1.72,8-1.65,12,.07-2.67,2.92-2.67,3-8.31,3q-27.93-.12-55.85-.38l-85.8-.68a1.11,1.11,0,0,1,.37-1.26c-.93-.64,4,.39.31-1.09a1.39,1.39,0,0,1-.74-2,3.08,3.08,0,0,1,4-.59h0c2.9,1,5.89.18,8.82.41,6.76.53,13.08-.82,19.7-2.26,6.87-1.51,14.48-.61,21.74-.64,8.63,0,17.45.89,26.06-1a20,20,0,0,1,8.84,0c6.69,1.53,13.55.93,20.34,1.26,1.49.08,3.15-.44,4.44.25,6.84,3.69,14.32,3.69,21.76,4.05A5.07,5.07,0,0,1,1150,592Z" transform="translate(-712.84 -460.09)" style="fill:#490b13"/><path d="M789.83,524.79c1.78-1.71,1.43-3.91,1.39-6-.06-3.4,1.17-5.56,4.85-6.23A86.54,86.54,0,0,0,805,510c1.4-.3,1.23.66,1.05,1.43-.51,2.19-2.43,2.39-4.15,3-1.1.4-3.69-.4-2.75,2.24a3,3,0,0,0,4,2c6.56-2.32,13.09-4.7,20.21-4.59a2.62,2.62,0,0,0,2.37-1.58c1.29-2.57,3.07-4.1,6.19-4.12,1.66,0,2.41-1.54,2.35-3.26-.06-1.46-.58-3,.64-4.26,6.16,1.23,12,3.56,18.24,4.7,3,.56,6.39,6.44,6,9.57s-2.74,3-5.22,3.24c-5.91.64-11.9.32-17.75,1.36-1.69.3-4.29.47-4.22,2.7.08,2.65,2.71,3,4.89,3.23s4.69-.21,7,.4c1.14.31,3.64.41,1.47,2.74-4.4,1.25-8.89.4-13.32.61a5.54,5.54,0,0,1-2.79-.69c.9,1.39,3.1,3.17.53,5.55-2.68-.15-3.14-2.71-4.59-4.2-2.93-3.09-6.23.05-9.32-.53-.25,0-.49-.06-.74-.09a6.13,6.13,0,0,1-1.46-.56c-6.26-.63-12.56-.65-18.79-1.44C792.9,527.16,790.28,528,789.83,524.79Z" transform="translate(-712.84 -460.09)" style="fill:#4b050f"/><path d="M804,604.94l-61,0a6.79,6.79,0,0,0-4.74-.73c-4.37,1-6.95-.37-7.92-4.83.21,1.68.71,3.13-1.82,2.39a4.91,4.91,0,0,1-.84-4.84c1.29-2.15,3.45-2.37,5.59-2.34,6.87.07,13.74-.33,20.6.3a127.75,127.75,0,0,0,30.4-.25c12.9-.26,25.8,0,38.7-.08,2,0,5.39-.94,4.92,3.27L827,599c-.78.62-.25,1.92-1.26,2.42a53.85,53.85,0,0,1-13.72-.14C808.59,600.8,805.59,601.33,804,604.94Z" transform="translate(-712.84 -460.09)" style="fill:#07070c"/><path d="M972,565c-1.63-.15-3.46.12-4.84-.55-2.91-1.4-5-.56-7,1.54-2-1.59-1.54-3.88-1.57-6-.13-9.24,0-18.49,0-27.74,0-2.79.13-5.62-.92-8.3a16.44,16.44,0,0,0-.5-1.65,8.92,8.92,0,0,1-.33-2.47,59.63,59.63,0,0,1,1.29-7.71,2.29,2.29,0,0,1,1.59-1.49c2.71.72,5.31,1.87,8.27,1.33a3.2,3.2,0,0,1,3.77,1.77c.1.39.19.78.29,1.17a1.38,1.38,0,0,1,.28,1.32c-2.28,4-1.43,8.42-1.8,12.62-.66,7.25-.21,14.57-.19,21.87,0,1.27,0,2.47,1.7,1,2.27.33,2.62,1.91,2.48,3.8a4.06,4.06,0,0,1-2,1.95c-3.49,1.69-1,3.26.11,4.86A2.35,2.35,0,0,1,972,565Z" transform="translate(-712.84 -460.09)" style="fill:#35040a"/><path d="M846,473a9,9,0,0,0-.88,2.77,6.72,6.72,0,0,1-8.53,6.63c-1.34-.36-3.8-1.68-2.36,1.81L828.92,486c-.63,1.7-3.38-.2-3.62,2.15-1,2.44,3.08,3.61,1.53,6.18a3.22,3.22,0,0,1-2.4-.11c-1.23-.56-2.48-1.15-3.48.38s-1.42,2.95-.56,4.64c1,2,2.76,3.26,4.21,5,1.74-1.55,2.53-3.17,1.29-5.49-.8-1.47-1.28-3.15.8-4.21a5.47,5.47,0,0,1,1.45-.16,3.11,3.11,0,0,1,1.8,1.27,3.64,3.64,0,0,1,.76,1.82c-.1,3.51,4.23,7.62.73,10.19-5.06,3.72-10.37,8.5-17.93,5.49-3.21-1.27-4.92-2.63-3.28-6.15A103.47,103.47,0,0,0,820,479c2.17-.91,4.24-1.45,4.43-4.75.14-2.47,2.88-2.94,4.48-1.14.92,1,.45,1.93,2.29.71C835.81,470.73,840.94,471,846,473Z" transform="translate(-712.84 -460.09)" style="fill:#9f2634"/><path d="M971.9,515.87a5,5,0,0,1,.14-.93c1.5.52,3.21,2,4-.84,1.12-2.18-.09-4.62.87-7.11,3.63.52,7.49,4.59,11.09,0,1,3.35,4,1.42,5.91,2.18.62,1.24,1.77,1.23,3,1.42,14.67,2.34,29.43,2.38,44.22,2.11a36.05,36.05,0,0,1,8,.36c4.15,1.15,8.2-.44,12.32-.5,21.07-.27,42.1,1.41,63.16.73a6.43,6.43,0,0,1,1.64,0c5.42.75,10.86.39,16.29.14a3.62,3.62,0,0,1,1.62.6c2.25,3.83-1.31,3.21-2.86,3.29-5.27.25-10.56,0-15.84.14-7.05,1.34-14.15.79-21.25.6a19.14,19.14,0,0,0-6.9-.66c-25.11.33-50.21-.34-75.31.4-7.56.23-15.16-1.19-22.09.36,5.94,2.63,12.67,1.25,19.33,1.33,1.6,0,3.4.25,4,2.26-.8,1.36-2.18,1.43-3.52,1.57a42.6,42.6,0,0,0-10.33,1.09c-6.35,1.53-12-1.4-17.42-4.11-1.58-.78-2.76-2.34-4.54-2.93a33.46,33.46,0,0,0-4.78-1.09c-3.18-.33-4.53,1.25-4.87,4.14-.75,2.2-1.21,4.47-1.81,6.71s-1.59,4.14-4.5,3.37c-1.43-1.08-.55-2.25-.14-3.41,1.6-3.24,3.22-6.49.45-9.94A1.16,1.16,0,0,1,971.9,515.87Z" transform="translate(-712.84 -460.09)" style="fill:#372a27"/><path d="M834.31,546c1.22,1.08.14,3.19,1.81,4.08-2.13,5.62-1.6,8.09,2,8.37,2.57.21,5.39-.89,6.36,3,.12.45,2.46.46,3.77.47,6,.07,12,0,18,.09,1.59,0,3.81-.33,3.49,2.25s-2.48,1.8-4,1.48c-8.56-1.82-17.24-.46-25.84-.79-3.89-.15-5.65-.17-5-4.72-1.57,4.63-.63,9-1.09,14.37,1.73-2.59,2.88-5.46,5.76-2.59.79.79,1.55.25,2.05-.5a2.85,2.85,0,0,1,4.65-.4c1.92,2.93,5.27-1.16,7,1.79.13.22,0-2.27,1.1-3.06,2.08.89,3.77,2.88,6.47,2.2.25-.06,2.39.21,2.06,2.09-.29,1.62-1.28.93-2.2,1.06-3,.41-6.13-.48-9.84,1.6h23.73c-1.62-2-4-.69-6.22-1.06-.52-2.06,1.08-3.32,1.87-5.71,2.33,3.62,8.87,3.69,5.85,10-.59-1.81-2.08-1.89-3.61-1.9-12-.05-24.06-.13-36.09-.13-.53,0-1.06.66-1.58,1-1.86,3-2.28-.69-3.49-.8-.58,1.93.2,4.09-1.22,5.79-1.78.62-2.19-.86-2.92-1.88a7,7,0,0,1-.49-1.6c-.91-7.84,1-15.56,1-23.36a4.92,4.92,0,0,1,2.62-4.53c1.38-.18,2.31-.66,2.37-2.35C832.85,548.74,832.48,547,834.31,546Z" transform="translate(-712.84 -460.09)" style="fill:#242029"/><path d="M897,470.45c3.82-3.74,4.09-11.83,12.68-9.79,3,.7,6.3-.27,9.45-.11,10,.53,19.91-1.12,29.88-.14,1,.11,2-.31,2,1.25-.69,3.63-2.42,6.87-4,10.11-1.5,3-2.79,6-2.5,9.42.12,1.47,0,3.41-1.71,3.73-1.94.37-2.71-1.58-3.35-3.05-.86-2-1-4.17-1.51-6.25-.24-6.46-1-7.38-6.62-7.73-3.65-.86-7.25-2.05-11.09-1.53h-1.48c-7.53,0-7.66.07-8.71,7.33-2.56,3.81-6.7,3.37-10.25,3.08S895.5,474.37,897,470.45Z" transform="translate(-712.84 -460.09)" style="fill:#cd434c"/><path d="M769,544l2,6c3.85,4.7.76,10.66,2.62,15.78,3.3-.11-.44-6.82,4.78-4.72,1.26,2.31,1.06,5,1.74,7.4a8,8,0,0,1,.08,1.54c-.13,1.24-.31,2.47-1.53,3.18-.6,1.11-1.46-2.44-2,.11a3.28,3.28,0,0,1-.32,1.75c-1.18,1,.28,2.27-.41,3.31-2.52,2.78-2.94,6.21-1,7.88,1.39.8,2.63,2.37,1.84,3.52-1.87,2.7-4.44,0-6.75.19-1.06,1.21.31,3-.91,4.11-5,.51-10,2.24-15.14.48-2.7-1.79-2.88-6.43-6.91-6.51a27.74,27.74,0,0,1-7.55-1.11c-.18-.06-.33-.38-.76,0-4.06,3.56-7.76,3-13.7-2l-.44-1.8a4.28,4.28,0,0,1,.47-1.17c1.2-1.71.79-3.57.52-5.42l.24-.59c.58-.75,1.12-2.05,1.76-2.11,1.14-.1,1,1.44,1.5,2.17,1.55,2.18-.63,5.85,2.94,7.2.75.28,1.89,1.32,2,1.17,4.07-3.91,8.42-.5,12.09.28s7.75-3,11,1c.25.31,1.8.09,2.25-.36,2-2.05,4.06-1.43,5.83-.08,3.45,2.64,3.77.75,3.67-2.22-.07-2,0-4,0-6a3.8,3.8,0,0,1-1.68-1.47,17.24,17.24,0,0,1-1.14-4.52c.65-9,.43-18,.63-26.94A1.58,1.58,0,0,1,769,544Z" transform="translate(-712.84 -460.09)" style="fill:#3a3944"/><path d="M1126,514.05l-.49-.06-.49.06c-12-.83-24.08-.78-36.12-1.11-11.36-.31-22.72.57-34.08.09-14-.28-28.12.79-42.13-.88-2.3-.27-4.65.36-6.94-.21-1.47-.36-3.67-.1-2.86-2.82,20.79-.24,41.58-.74,62.37.41a45.22,45.22,0,0,0,5.9-.4,207.12,207.12,0,0,0,28.73,0c14.1-.06,28.21-.09,42.31-.21,4.8,0,4.93,2.63,3.91,6.16-.82-.84-2.22-.25-3-1.2h0C1137.38,513.69,1131.69,514.72,1126,514.05Z" transform="translate(-712.84 -460.09)" style="fill:#d0c4be"/><path d="M938,563c-2.7,1.73-5.72.92-8.61,1-2,0-3.91-.06-5.17,1.86L924,558l.12-.46a212.17,212.17,0,0,1,2.42-26.26c.18-1.13,0-2.43,1.5-2.82a3.24,3.24,0,0,1,3.49,1.41c5.39,6.7,10.25,13.56,6.25,22.84-.73,1.68,1,2.73,1.18,4.17a10.11,10.11,0,0,1,.31,3.15A3.91,3.91,0,0,1,938,563Z" transform="translate(-712.84 -460.09)" style="fill:#510910"/><path d="M919.86,465.16c4.25-1,8.17.33,12.06,1.77,1.13,4.68.36,9.47.77,14.21.28,3.21-2.86,5.18-5.22,3.58-5.7-3.85-11.69-3.62-17.92-2a23.76,23.76,0,0,1-4.88.78c-1.91-.25-3.33-1.72-5.82-.73-4.57,1.81-7.12-.69-6.85-5.92a16.07,16.07,0,0,1,5-6.42c-.43,5,1.89,6.55,6.59,4.67,1.72-.69,4,1.07,5.46-1.13,3.76,1.05,7.47,2.61,11.47,1.08,1.86-.62,4.77.21,4.69-3.13-.07-3.06-2.2-3.72-4.79-3.73a5,5,0,0,1-3.28-.92C916.3,464.38,919.19,466.19,919.86,465.16Z" transform="translate(-712.84 -460.09)" style="fill:#90212e"/><path d="M1016,589a6.78,6.78,0,0,0-4,1c-2.05,2-4.65,1.54-7.05,1.44C994.5,591,984.27,592.71,974,594c-1,3.85-3.69,4.67-7.32,4.21a18.5,18.5,0,0,0-5.44.32c-1.2.2-2.83.61-3-.65-.49-3.62-3.66-2.63-5.6-3.73l3.23-.77c-2.77-2.1-5.35-1.08-7.69-1.38-1-.13-2.29-.16-2.38-1.32-.11-1.61,1.37-1.58,2.5-1.65,2.48-.15,5-.22,7.44-.39.71,0,1.65,0,1.68.63.38,6.23,3.6,1.91,5.36,1.29,5-1.76,10.1-.13,15.16-1.42,9-2.28,18.31-2.43,27.55-2C1009,587.25,1012.66,587.44,1016,589Z" transform="translate(-712.84 -460.09)" style="fill:#2e080c"/><path d="M846,473c-3.85-.4-7.68.68-11.56,0-2.26-.42-2.35,3.19-4.64,2.9-.73-.09-2.41,1.35-2.05-.39.3-1.47,1.41-2.46-1-2.37-2,.08-1.8,1.75-1.65,3,.13,1.08.75,2.1,1.67,4.47-2.52-3.32-4.76-.11-6.81-1.6.63-3.72-2-8,1.86-11.19,13.44-.67,26.88-.12,40.31-.29,4.54,1.28,9.49-.55,14.43,1.54-2.95,3.17-6.49,2.33-9.57,3h-3.92c-3,2.55-7,.09-10.08,1.93C850.63,474,848.2,474.39,846,473Z" transform="translate(-712.84 -460.09)" style="fill:#78151f"/><path d="M939,475c1.3,2.94.31,6.75,4.38,9.81-.46-9.11,4.12-15.9,7.61-23.12,2.15,1.61-.1,2.81-.56,4-2.78,7-6.46,13.7-5.6,21.61.18,1.68-.41,3.84,2.36,4,1.45.55,3,.15,4.45.32.82.1,1.83.23,1.1,1.45-.39.66-1,.45-1.59.1.22,1,1.1.25,1.57.58,3.75,2.65,7.86,1.92,12,1.57,3.66-.32,7.64-1.59,10.72,1.84-1.5,2.56-2.18,5.75-5.38,7-5.85-4.25-12.1-4.83-19.33-4-8.15,1-12.55-4.08-13-12.36-.87-3-2.06-6-1.21-9.16C936.91,477.17,936.59,475.13,939,475Z" transform="translate(-712.84 -460.09)" style="fill:#8f242d"/><path d="M789.83,524.79c6.49,2.11,13.21,2,19.91,2.19,2,.07,4.49-.77,5.62,2a3.09,3.09,0,0,1-1.33,1c-8.07,0-16.08,2.29-24.21.57a8.38,8.38,0,0,0-5.82.72,3.31,3.31,0,0,1-1.46.22c-1.56-.7-2.52-2.67-4.64-2.19-.69,0-1.36,0-2,0-2.89-.31-5.32,1.49-8.07,1.79-.25,0-.5,0-.75-.07-1.27-.29-2.48-.92-3.86-.7-7.17-.6-14.34-.18-21.49-.3-1.73-.22-3.4.85-5.15.23a9.33,9.33,0,0,1-1.29-.59c-1.34-1-3.8-1-3.25-3.7a.38.38,0,0,1,.63-.11c9.49,1.28,18.91-.38,28.36-.72Z" transform="translate(-712.84 -460.09)" style="fill:#873e45"/><path d="M810.22,507c2.36.76-1.73,4.06,1.91,4.54,3.84.51,7.62,2.26,11.45.07,2.27-1.29,4.19-3.14,6.77-4,1.63-.53,1.38-1.84.93-3.27-.87-2.77-1.51-5.61-2.25-8.41,2.76-1.44,3.76,1.11,5.34,2.36.57.79,1.12,1.59.68,2.64.2,1.13.35,2.27.6,3.39.8,3.59-.66,5.43-4.29,5.54-.93,0-2.25-.86-2.72.27-3.89,9.37-13.84,3.32-19.65,7.79-.7.53-2,.25-2.84.64-6,2.68-6.26,2.59-9.64-4.14,2.06-.5,4-1.08,6-1.44,1.79-.32,3.37-.62,2.49-3C806.64,508.8,808.88,508.71,810.22,507Z" transform="translate(-712.84 -460.09)" style="fill:#730f1c"/><path d="M892,476.88c1.62,6.43,4.46,7.18,10.25,2.69,1.16.82.3,2.68,1.72,3.36.13,3-4,4.76-3,7.26,1.15,2.86,5.31-.18,7.43,2.11a1.42,1.42,0,0,1-.68,1.81A28.89,28.89,0,0,1,889.29,491c-1.62-.89-5.15-1.62-3.36-5.18,3,.91,3.28-1.33,3.72-3.26S889.82,478.18,892,476.88Z" transform="translate(-712.84 -460.09)" style="fill:#580c16"/><path d="M1155.08,549.11c-.57,1.48-.41,3.27-2.13,4.66-2.84-4.25,1-9-1.55-13.85-2.59,4.71,1.3,9.05-.45,13a1.49,1.49,0,0,1-1.21.55c-1.8-1-3.75-1.93-3.69-4.48-.65-3.38,1.47-6.75,0-10.13l23.85,1.07c2.31-.86,3.52.31,3.63,2.42s-1.66,2.7-3.38,2.54a15.82,15.82,0,0,0-7.2.89C1160.36,546.89,1156.38,544.79,1155.08,549.11Z" transform="translate(-712.84 -460.09)" style="fill:#676060"/><path d="M924.12,569.05c2,4.85.3,10,1.14,14.92a25.43,25.43,0,0,0,.32,8.95c2.38-2.55,5-4.53,8-4.47,3.92.08,3.51,4,4.09,5.69h13.69c-8,1.25-15.13,6.52-23.83,4.28-2.28-.58-3.46-.8-3.42-3.49C924.27,586.31,924.15,577.68,924.12,569.05Z" transform="translate(-712.84 -460.09)" style="fill:#2e080c"/><path d="M726,589c-.36-1,0-2.24-1-3l.13-1a26.48,26.48,0,0,1,7.94,3.06c2.39,1.3,2.48,1.23,3.87-1.47.55-1.07,1.46-.63,2.1-.54,4.09.6,8.32.88,12.16,2.26,1.44.51,1.95,3.65,2.88,5.6-2.79,2.18-6,.79-9.05,1.11-4.28.46-8.53-.56-12.82-.36C728.35,594.8,727.85,591.13,726,589Z" transform="translate(-712.84 -460.09)" style="fill:#56565d"/><path d="M827.9,597.85c-.67-2.74-2.83-1.67-4.48-1.68-13.15-.08-26.29-.11-39.44-.16a2.07,2.07,0,0,1-.35-2.18,3.31,3.31,0,0,1,1.73-1.44c9.11-1.15,18.17.85,27.3.4,5.85-.3,10.74-3.27,12.92-8.91.4-1.06.86-2.25,2.43-1.9h0c.41,1.85,2.08,3.16,2.19,5.14C829,590.61,831.9,595,827.9,597.85Z" transform="translate(-712.84 -460.09)" style="fill:#6b6970"/><path d="M939,488c0,7.3,7.18,13.58,14.26,11.08,7.41-2.61,12.24-.14,16.78,5,0,.63.08,1.26.11,1.89-2.34,2-4.93,1.59-7.56.76-1.25-2.71-2.65-3.86-6.2-2.86-5.44,1.52-11-.31-16-2.4S934.9,491.49,939,488Z" transform="translate(-712.84 -460.09)" style="fill:#6a0c15"/><path d="M1002.88,509.12c.66,2.65,2.83,1.66,4.5,1.83,15.81,1.63,31.68,1.21,47.54,1.32-1.35,2.84-3.69,2.39-6.07,1.81-13.54-.15-27.09,0-40.6-.65-4.33-.22-8.68-1.65-13.17-1.72-1.26,0-3.28-.59-1.16-2.57Z" transform="translate(-712.84 -460.09)" style="fill:#706664"/><path d="M867,472.05c1.54-4.27,5.71-.59,8.06-2.69-4-1.16-8.25.66-12.14-1.1,6.34-1.4,12.71-.82,19.07-.32,2.8,0,1.85,2.1,2,3.55.27,3.87-.34,7.8.83,11.61-2.65-2.38-6-3.83-7.47-7.72-.81-2.15-4.12-2.11-6.56-1.72C869.06,473.93,867.42,474.53,867,472.05Z" transform="translate(-712.84 -460.09)" style="fill:#99222c"/><path d="M975.45,497.08c-5.82-1.93-11.7-.44-17.44.14-3.83.38-5.06-3.19-8.07-3.49.22-1.13,1.46-.44,2-1.21-1.42-1.09-3.51.19-4.78-1.3,6.6-.71,13.19-.24,19.79,0,2.87,1.32,5.87.73,8.83.51,1.38-.1,2.8-.57,2.25,1.72C976.7,494.35,977.33,496.62,975.45,497.08Z" transform="translate(-712.84 -460.09)" style="fill:#c54350"/><path d="M974,594a91.36,91.36,0,0,1,32.52-4c1.82.09,3.64,0,5.46,0l3.37,2c-.48,1.76-2.79.48-3.33,2Z" transform="translate(-712.84 -460.09)" style="fill:#66212f"/><path d="M717.89,554.1c2.16-.79,5,.3,6.63-3.63,2.06,9.26-1.73,17.6,1.41,25.5h0c-.35,2.32.74,4.81-.77,7a.84.84,0,0,1-.5.19c-1.52.11-2.6-.28-2.68-2.08-.07-1.5-.62-3.07-.32-4.46C723.45,568.56,719,561.61,717.89,554.1Z" transform="translate(-712.84 -460.09)" style="fill:#56575d"/><path d="M1196,550.07c-6,.92-12-1.71-17.94-.12,1.62-3.81,4.28-5.05,9.51-3.68,4.06,1.06,7.76.84,11.39-1.4a10.06,10.06,0,0,1-6.72-.09c-1-.42-1.74-1-.74-2.19a11.06,11.06,0,0,0,5.41-3.45c.17,0,.33,0,.5-.06,10.19-.56,10.63.1,6.61,9.93C1201.79,552.84,1198.89,551.51,1196,550.07Z" transform="translate(-712.84 -460.09)" style="fill:#c1bab6"/><path d="M804,604.94c.1-4.28,2.36-5.46,6.41-5,5.07.58,10.2.68,15.31,1,1.84,2.1.16,2.84-1.42,3.43-1,.4-2.28-.07-3.35.44Z" transform="translate(-712.84 -460.09)" style="fill:#1e1c2a"/><path d="M1196.89,539.14c.27,3.76-1.81,4.47-5,3.8-4.75-1.05-9.59-.3-14.38-.67-.5,0-1.41-.16-1.43,0-.39,5.35-5.58,3.16-8.06,5.19-2.53.47-4.83.31-6.15-2.36,2.28-1.15,4.37-2.93,7.26-1.44,1.11.58,2.86.81,3.43-.63.88-2.25-1.13-2.63-2.67-3.13C1178.87,537.87,1187.91,539.37,1196.89,539.14Z" transform="translate(-712.84 -460.09)" style="fill:#98948c"/><path d="M1188.08,565.11,1187,563c-.94-2.73,2.73-1.34,2.82-3.15,3-.75,5.83-2.74,9.1-1,2.33.23,4-.21,4-3.14,0-1.15.08-2.71,1.95-2.72a4.75,4.75,0,0,1,.22,1c.1,3.28,1.59,7.12-.39,9.67-1.79,2.31-5.45,0-8.31.44S1190.74,563.84,1188.08,565.11Z" transform="translate(-712.84 -460.09)" style="fill:#56514e"/><path d="M961.91,505.88l8.27.11c3.22,2.05,1.31,5.14,1.57,7.79a9.62,9.62,0,0,0-5.8-.48c-2.38.61-4.62.06-6-2.36a3.77,3.77,0,0,1-.41-4.79A1.7,1.7,0,0,1,961.91,505.88Z" transform="translate(-712.84 -460.09)" style="fill:#c94d5b"/><path d="M1143.1,513.85c1.18-.06,2.6-.69,3,1.2,0,.49,0,1.41.06,1.41,4.26.24,5.09,4.54,7.82,6.55a7.85,7.85,0,0,1-2.11,6.08l-.34.1-.35-.09c-1.93-1.38-1.53-3.71-2.29-5.54.14-.7-.78-.1-.12-.07.1,0,.07.17.06.48a2.43,2.43,0,0,1-.93,2.08c-2-.3-1.86-1.84-2-3.27-.11-1.18.29-2.72-1.71-2.73a3.46,3.46,0,0,1-3,.82,8.14,8.14,0,0,1-3.53-1.89c-2.54-1.12-5.23-.34-7.82-.62-1.87-.2-4.12.36-5-2.13,5.79,0,11.59-.15,17.38-.12C1144.62,516.13,1144.56,515.35,1143.1,513.85Z" transform="translate(-712.84 -460.09)" style="fill:#6c5d59"/><path d="M1204.86,553c-1,1.08-.63,2.45-.76,3.72s.52,3.1-1.13,4c-2,1-2.83-.9-4-1.82-1.17-2.87-3.28-5.41-2.94-8.78,2.55-1.33,5.71,2,8-1.06C1204.29,550.34,1204.57,551.66,1204.86,553Z" transform="translate(-712.84 -460.09)" style="fill:#2a2727"/><path d="M1151.87,529.09c.19-2.21-.39-4.68,2.11-6.08,3.63.2,8.77-1.92,7.92,5.15C1158.79,531,1155.45,531.38,1151.87,529.09Z" transform="translate(-712.84 -460.09)" style="fill:#d1c5b9"/><path d="M882,467.94l-19.07.32-41.09-.45c1.44-1.23,3.18-.71,4.77-.71q26.05,0,52.1.15C879.83,467.25,881,467,882,467.94Z" transform="translate(-712.84 -460.09)" style="fill:#9f2634"/><path d="M735.07,535.19c-1.48-1.25-3.15-.42-4.72-.34-2.87.15-3.86-1.15-3.37-3.85-.69-1.24-2.38.27-3-1.09,1-2.23,2.73-1,4.22-.95,2.63-1.82,5.21-.74,7.8.14l-.07-.05C736.63,531.23,737.69,533.46,735.07,535.19Z" transform="translate(-712.84 -460.09)" style="fill:#e3d2cf"/><path d="M761,525.11c-9.45.36-18.79,5.2-28.36.72C742,523.78,751.53,525.45,761,525.11Z" transform="translate(-712.84 -460.09)" style="fill:#874549"/><path d="M988,507c-2.61,1,.8,3.49-1.69,4.72-3-.38-5.89-2.26-9.07-3.6-1.16,1.67,1,4.32-1.2,6C975.84,505.44,979.17,503.45,988,507Z" transform="translate(-712.84 -460.09)" style="fill:#e7dcda"/><path d="M721.91,532.93c.77,3.46.58,6.25-3.45,7.9-1.51.63-3.3,1-4,.35-1.25-1.2-.23-2.66,1-3.7.44-.37,1.15-.83.41-1.57C717.49,534,719.08,532.24,721.91,532.93Z" transform="translate(-712.84 -460.09)" style="fill:#a6a09e"/><path d="M829.93,583.92v-8.06c3.62-1,2.07,3.95,5,3.11-.17,2,.63,4.15-1,5.92C832.81,583.78,830.5,587.48,829.93,583.92Z" transform="translate(-712.84 -460.09)" style="fill:#676065"/><path d="M736.15,605.9c-2-2-7.18,1.76-7.07-4,1.23-.66.61-2.14,1.5-3.3,1.78,3.15,3.37,6.38,8,4.65,1.12-.42,3.22.32,4.4,1.67C740.89,606.45,738.28,604.39,736.15,605.9Z" transform="translate(-712.84 -460.09)" style="fill:#5a5a5f"/><path d="M1099.88,509.1a97.07,97.07,0,0,1-28.73,0Z" transform="translate(-712.84 -460.09)" style="fill:#a49a99"/><path d="M978,493.49c-1-2.23-2.5-.29-3.72-.55-2.47-.51-5.55,1.66-7.36-1.68,3.63-.08,7.29-.42,10.89-.17C981.14,491.33,978.8,492.61,978,493.49Z" transform="translate(-712.84 -460.09)" style="fill:#8f242d"/><path d="M724,529.91c2.91.13,2.91.13,3,1.09-3.24.35-.79,4.43-3.54,5L722,533C721.79,531.39,721.52,529.76,724,529.91Z" transform="translate(-712.84 -460.09)" style="fill:#938e8d"/><path d="M1164.91,588.93c2.1-2.28,4.07-4.72,6.94-6.14C1170.53,586,1169.39,589.34,1164.91,588.93Z" transform="translate(-712.84 -460.09)" style="fill:#bfafad"/><path d="M820.94,604.8c1.28-1.67,5.45.23,4.77-3.87L827,599C828.36,605.3,828.29,605.37,820.94,604.8Z" transform="translate(-712.84 -460.09)" style="fill:#6b6970"/><path d="M736,529.1l-7.8-.14c1.05-1.28,1.6-3.22,3.82-3C732.45,528.09,735.07,527.51,736,529.1Z" transform="translate(-712.84 -460.09)" style="fill:#874549"/><path d="M829.93,583.92c.86,1.34,1.72.77,2.68.07s1.22.12,1.36.9l-3.77,2.24C828.39,585.87,828,584,828,582Z" transform="translate(-712.84 -460.09)" style="fill:#4a4650"/><path d="M713.94,551.05c.73-.58,1.83-1.81,2.12-1.64,1.77,1,1.84,2.89,1.79,4.73C716.28,553.46,714.6,552.9,713.94,551.05Z" transform="translate(-712.84 -460.09)" style="fill:#6b6f71"/><path d="M972,565c0-1,0-2,0-3a3.8,3.8,0,0,1,0-5l2-1.15c3.41-.77,3.24,2.13,3.77,3.94.89,3,2.84,4.07,5.62,3.44,14.09-3.18,28.32-1.43,42.5-1.3,17.55-.72,35.1-.07,52.65-.39,5-.09,9.94,0,14.9.05q5.38.06,10.77,0c.59,0,1.18,0,1.77,0h3.53c12.29,0,24.58-.2,36.85.52,1.63.1,3,.34,3.56,2.07v1.61c.38,6.89-4.32,7.22-9.29,7.19-13.11-.09-26.23-.28-39.34-.28q-53.12,0-106.23.15c-5.56-1.24-11.26-.22-16.92-1.22C973.72,570.87,972.42,568.71,972,565Z" transform="translate(-712.84 -460.09)" style="fill:#fbfaf7"/><path d="M1150,592c-8-.54-16-.62-23.82-3.45-3.79-1.37-8.42-.45-12.67-.51-5.2-.06-10.45.28-15.34-2-1.77-.85-3.17.17-4.71.74-4.64,1.71-9.45,2.23-14.08.4-2.91-1.15-4.86,1.25-7.58,1.07a133.42,133.42,0,0,0-19.7-.31c-5.28.45-10.55.07-15.11,3.45a3,3,0,0,1-2.31.63c-6-2.51-12.62-1-18.7-2.92,10.33-.49,20.83-.09,30.27-5.52,1-.54,1.88-.12,2.87,0,6.36.89,12.76,1.59,19.12,2.51,3,.44,5.3-2.25,8.11-1.94,11.1,1.23,22.27-1.22,33.38.77,2.83.51,5.94-.66,8.85-.35,4.51.49,9.07.62,13.12,3.68,3.59,2.7,8.28,1.8,12.59,1.84C1146.4,590,1148.75,589.45,1150,592Z" transform="translate(-712.84 -460.09)" style="fill:#2e080c"/><path d="M853.77,556.68c3.73,3.06,8.24,1.32,11.36,4-3.07,1-6.07-.61-9.2.1C853.46,561.34,854.33,558.64,853.77,556.68Z" transform="translate(-712.84 -460.09)" style="fill:#242029"/><path d="M853,559.18c-.09,1.11-.7,1.34-1.67,1s-2.2-.25-1.86-1.71a1.82,1.82,0,0,1,1.91-1.31C852.68,557.17,852.94,558.09,853,559.18Z" transform="translate(-712.84 -460.09)" style="fill:#242029"/><path d="M938,563c.06-.94.11-1.87.16-2.8.49-2.31,1.45-4,4.26-3.65,3.6.48,5.86-.79,7-4.52,1.07-3.5,3.68-4.92,7.38-3.46a5.16,5.16,0,0,1,2.67,5c-.07,4.81.46,9.64-.29,14.44-.44,2.85-1.83,4.42-5,4.07-2.13-.24-4.31,0-6.43-.19C941.07,571.16,939.38,569.56,938,563Z" transform="translate(-712.84 -460.09)" style="fill:#f9faf9"/><path d="M959.15,568c-.07-4.64-.17-9.27-.21-13.9,0-2.32-.63-4.22-3.1-5-4.24-1.64-4.6-2.72-.89-5,3.34-2.08,2.65-4.91,2.76-7.77-.25-1,.33-3.17-.67-2.9-6.61,1.85-5.35-3.68-6.69-6.77a7.7,7.7,0,0,1-.26-.94,9.69,9.69,0,0,1-.31-2.34c.07-1.78.41-3.41,2.27-4.23,2.09-.63,4.09-.67,5.91.77,0,.72,0,1.43,0,2.14-.61,1.43-2.24,1.83-3.36,3.26,2.31-.23,2.46-2.13,3.35-3.27,1.95,2.1,2,4.72,2,7.35L960.2,566Z" transform="translate(-712.84 -460.09)" style="fill:#543d42"/><path d="M779.93,540.1c.7-2.6,1.65-4.39,4.05-1.18a1.73,1.73,0,0,0,2.06,1A15.15,15.15,0,0,1,796.12,541c2.9,1.26,5.85-.41,8.81-.4s5.9.44,8.58-1.51c1.55-1.12,3.28-.32,3.35,1.42.49,10.63,2.18,21.33-1.2,31.82,0,.12-.25.2-.38.3-6,.89-12.1.18-18.13.73A33.39,33.39,0,0,1,791,573c-3-1.35-6.66.37-9.44-2C778.21,560.84,779.39,550.45,779.93,540.1Z" transform="translate(-712.84 -460.09)" style="fill:#10080a"/><path d="M767.09,544c1.65,9.31,1.18,18.62-.12,27.92a4.27,4.27,0,0,1-3.52,1.46c-7.22-.07-14.45.61-21.64-.41-6.34-1.71-8.35-8.23-4.6-14.93,2.12-.52-1.25-4.71,2.69-4,5.24-1,10.53-.13,15.62-.49-5-1-10.48,1.24-15.47-1.5-2.41-.31-2.38-2.14-1.85-3.67.81-2.35,2,.05,3,0,3.36-.23,6.59,2.38,10,.45a1.82,1.82,0,0,1,2.48,0c3.14,0,6.28.13,9.42.14,1.12,0,2.63.14,2.57-1.52S764.16,546,763,546c-6.69,0-13.38-.07-20.07-.1-1,0-2,.07-3,.05-1.17,0-2-.59-1.78-1.82a1.51,1.51,0,0,1,2.11-1.4c3.25,1,6.53.39,9.81.2,2.19-2,4.93-1,7.42-1.36a32,32,0,0,1,7.63-.47C766.74,541.46,768,542,767.09,544Z" transform="translate(-712.84 -460.09)" style="fill:#110a0c"/><path d="M778,561c-2.77.51-1.56,2.18-1.22,3.76.22,1,.81,2-1.33,2.75-3.37,1.14-3.33.06-3.5-2.69-.31-4.94.33-9.94-.9-14.81,2.51,1,4.91,1.19,7-1C780.33,553,779.58,557,778,561Z" transform="translate(-712.84 -460.09)" style="fill:#36323d"/><path d="M737.21,558.06c-.07,2.77-.13,5.54-.23,8.3-.11,3,.77,5.18,4.21,5.38-.26.75-.91.67-1.5.72.37.71.82-.13,1.31.08.83.37,1.5.61.78,1.63-4.22.47-7,0-7.29-5.61-.42-7.62-2.18-15.17,1.34-22.49.84-1.74-1.4-3.49,1.38-5.19Z" transform="translate(-712.84 -460.09)" style="fill:#68646a"/><path d="M778,561q0-6,0-12c.06-3.09-3.62-7,2-8.88,1.45,4.47,1.05,9.09,1,13.67a83.09,83.09,0,0,0,1.2,17.11c-1.92,1-2-1.19-3.06-1.78A20.72,20.72,0,0,1,778,561Z" transform="translate(-712.84 -460.09)" style="fill:#585460"/><path d="M741.78,574.17c-.51-1.52-2.49-.32-3.24-1.91l2.65-.52,25.78.2c1.37,1.07.9,2.53.83,3.91-3.59-.45-7.31.83-10.8-.82C752,574.27,746.75,576.23,741.78,574.17Z" transform="translate(-712.84 -460.09)" style="fill:#afa7ab"/><path d="M735.07,535.19c1.39-1.9,1.25-4,.83-6.14,1.44.92,2.92.64,4.4.11,6.42.81,12.87.11,19.31.37,1.79.07,3.64-.43,5.36.44,1.12-.5,2.08-.71,2.06,1-.09.92-.2,1.33-1.48,1.09-8.33-1.56-16.78-.9-25.18-1.22-1.76-.06-2.86.32-3,2.33-.1,2.42,1.59,1.5,2.75,1.57l7,.37a2.37,2.37,0,0,1-.72,2.5c-2.73-.17-5.48-.66-8.17-.41C736.3,537.41,735.63,536.65,735.07,535.19Z" transform="translate(-712.84 -460.09)" style="fill:#874549"/><path d="M791,535c-2.35-.28-4.82.28-7-1,1.12-3.57,4.43-3.44,6.87-3.13,7.39.94,14.87.23,22.22,1.48,1.39.66,2.85,1.47,2,3.29-.61,1.38-2.16,1.41-3.48,1.27-3-.29-5.91-.55-8.88-.55C798.85,535.9,794.68,537.57,791,535Z" transform="translate(-712.84 -460.09)" style="fill:#10080a"/><path d="M740.05,552.06c5.79,0,11.58,0,17.36,0,1.22,0,3.05-.28,2.9,1.64-.11,1.35-1.68,1.38-2.85,1.34-5.86-.23-11.8.95-17.56-1Z" transform="translate(-712.84 -460.09)" style="fill:#4f4246"/><path d="M803.83,541.87c-4.15,1.15-8.1,1.75-12-1.21-1-.78-3.44.35-5.22.41-1.37,0-3.74,1-2.61-2.15h2.07c3-.33,6-1.26,9.09-1.32C801.52,536.86,802.37,537.28,803.83,541.87Z" transform="translate(-712.84 -460.09)" style="fill:#846e69"/><path d="M776.28,528.29l1.55-.06c3.76,1,5,3.17,3.17,6.81-2.86-1.46-5.92-1-9-1-1.56.17-3.09,0-3.37-1.84s1.37-1.84,2.51-2.4C772.81,529,774.7,529.18,776.28,528.29Z" transform="translate(-712.84 -460.09)" style="fill:#f7ede3"/><path d="M812.85,533.19c-6-.24-12-.29-18-.81-3.83-.33-7.46-.41-10.84,1.67l-1,.93c-1.48-1.11-2.21-2.36-.72-4a2.92,2.92,0,0,0,.59,0c8-2,16.17.25,24.25-.39,2.1-.16,4.39-.31,6,1.72C813,532.58,812.92,532.89,812.85,533.19Z" transform="translate(-712.84 -460.09)" style="fill:#312e3a"/><path d="M746.41,537.64l.72-2.5,3.71.06c2.09.64,4.23.16,6.35.32,1,.08,2,0,1.88,1.5C754.93,538.73,750.73,539.47,746.41,537.64Z" transform="translate(-712.84 -460.09)" style="fill:#f5e8e2"/><path d="M791,535l11.79.12c2.61,1.53,1,2.65-.59,2.51-2.83-.27-5.54.55-8.32.34-1-.43-2.38.8-3-.83C790.23,536.4,790.74,535.72,791,535Z" transform="translate(-712.84 -460.09)" style="fill:#d0b9b9"/><path d="M776.28,528.29c-.46,2.66-2.9,1.52-4.36,2.28-.94.49-2.7.17-2.58,1.71.1,1.23,1.75,1.24,2.71,1.8l-3.86,2.26c-.15-2-.28-3.63-.41-5.27C769.9,528,773.08,528.09,776.28,528.29Z" transform="translate(-712.84 -460.09)" style="fill:#a68286"/><path d="M764.9,541.86c-2.44-.42-4.6.87-6.93,1.12-1-1.44-4.93,1.13-4-2.93l11.77.09C766.73,541.32,765.47,541.43,764.9,541.86Z" transform="translate(-712.84 -460.09)" style="fill:#826b65"/><path d="M753.93,540.05c.05,2.77,3.3,1.12,4,2.93l-7.84-.06c-.84-1.26-3,0-3.67-2.34C748.91,539.66,751.43,540,753.93,540.05Z" transform="translate(-712.84 -460.09)" style="fill:#dac9c3"/><path d="M759.07,537c-2.46-1.86-5.63-.54-8.23-1.82,5.22-.6,10.29.28,16.17,1.28C763.92,538.82,761.47,537.42,759.07,537Z" transform="translate(-712.84 -460.09)" style="fill:#874549"/><path d="M757,575c3.64-.3,7.29-.66,10.8.82l1.16,1.21C765,576.33,760.51,578.48,757,575Z" transform="translate(-712.84 -460.09)" style="fill:#36323d"/><path d="M753.74,548.82h-2.48c-1.26-1.35-3.11-.44-5.16-1.39,4.35-1,8.12-.52,12.07-.3C757,548.88,754.91,547.65,753.74,548.82Z" transform="translate(-712.84 -460.09)" style="fill:#b7a2a7"/><path d="M782.27,531a4.11,4.11,0,0,0,.72,4l-2,.06c.23-2.87-.34-5.37-3.17-6.81C780.28,527.59,782.09,528,782.27,531Z" transform="translate(-712.84 -460.09)" style="fill:#a68286"/><path d="M790.9,537.16l2.13,0c.73.91,2.87-.64,2.83,1.61l-9.81.12C787.34,537.42,789.5,538.35,790.9,537.16Z" transform="translate(-712.84 -460.09)" style="fill:#10080a"/><path d="M764.9,541.86c.27-.57.53-1.15.8-1.72,1.11,1.29,5.71-.43,3.32,3.86l-1.93,0A2.18,2.18,0,0,0,764.9,541.86Z" transform="translate(-712.84 -460.09)" style="fill:#36323d"/><path d="M1109,562.91l-3,0c-1-2.31-3.24-.95-4.83-1.55-.66,0,.11,1-.08.35,0-.14.16-.31.44-.17,1.09.57,3.17-1.25,3.41,1.39H1094a1.66,1.66,0,0,1-.08-.48,1.4,1.4,0,0,1,.21-.4c-8.28.87-16.45-2.16-24.82-.48-4.66.93-9.54.5-14.31.4-8.42-.18-16.84.07-25.25,0a9.46,9.46,0,0,0-4.79,1c-8.34-.07-16.68-.21-25-.18-4.92,0-9.76-.22-14.6,1.92-5.25,2.32-8,.22-9.13-5.61-.27-1.43-.19-3.09-2.26-3.27a5.79,5.79,0,0,0-2-3.87,3.68,3.68,0,0,1-1.36-3.06c.33-6.31-1.29-12.66.38-18.94,3,.37,3.71-1.61,3.94-3.93.21-2.16.53-4.25,1.93-6a2.67,2.67,0,0,1,.91,1.09c1,4.47,0,8.9-.2,13.35-.23.65.76.08.09.16-.07,0-.09-.15-.05-.46a2,2,0,0,1,.13-.48c1-2-1.6-6.53,3.71-5.6a6.44,6.44,0,0,1,5.31,8.15c-1,4,.75,7.9,0,11.84-.4,2,.47,4.41-1.59,5.94,2.43-1.87.62-5.46,2.83-7.42,2.22-1.23,3.94,1,6,.87,5.61.13,11.21.15,16.82.14l2.41,0a19.61,19.61,0,0,1,3.06-.15c2.3.37,4.66,0,6.94.49,3.93.76,4.36,2.06,1.69,5.76,22.73,0,45.24-.92,66.36.68-2.15.53-2.58-1.48-2.22-4.21a3.52,3.52,0,0,1,.67-1.23c3.49.67,7.59-2.06,10.53,1.84.43,2.86,2.77,2.72,4.8,2.94a35.94,35.94,0,0,0,5.39,0c.76,0,1.51,0,2.28,0,3.53.08,7.08-.28,10.59.28,3.51.84,7,1.49,10.43-.35a2.55,2.55,0,0,1,2.22.39c1.91,1.86,4.46-.09,6.76,1.25,1.43.83.79-1.81,1.31-2.75.64-1.16-1.94-4.25,2-3.45l3.87,4.16c-.55,4.37-5,8.42-8.62,8.69-9.87.74-19.74-.26-29.6.15A3.48,3.48,0,0,0,1109,562.91Z" transform="translate(-712.84 -460.09)" style="fill:#07060a"/><path d="M993,549c-1.9.11-2.67-2.61-4.81-1.91a11.87,11.87,0,0,1-1.44-9.5c.76-3.27.14-6.17-.3-9.23.67-3.7-1.17-7.73,1.44-11.18a3.9,3.9,0,0,1,3.78.72c4.38,4.95,10.53,5.56,16.19,5.53,3.53,0,7.29-1.5,11.1-1.31,3.33,1.14,6.46.07,9.61-.9A6.12,6.12,0,0,1,1034,523l2,3c-3.66,1.73-7.32,1.45-11,0-3.33-.61-6.43,1.15-9.71,1-2.62-.14-.36,2.88-2.18,3.18l-.54.48c-5.55,1.09-11.2-.58-16.76.67-1.55.35-3.35-.33-5.29,2,5.26,1.41,10.08.05,14.79.24a11.78,11.78,0,0,1,4.38-.4c2.56.88,5.16.19,7.74.14a11.36,11.36,0,0,1,2.61.84c2.22,1.23,4.76-.08,7,.86,1.33.5,2.62,0,3.93-.14,4.72,0,9.45-1,14.14.5,1.85.61,3.43-.83,5.15-1.26a20.19,20.19,0,0,1,7.86-.15,60.74,60.74,0,0,0,15.36.35,5.65,5.65,0,0,1,1.59.14c6.93.43,13.85,0,20.77.21,2.5-.12,4.88,1.1,7.42.69,1.58.15,3.31-.71,4.72.65,1.94,1.94,4,.58,6,.25a40.55,40.55,0,0,1,5.92-.06c-1.39,2.31-3.46,3.12-4.77,2.63-5-1.86-9.8.73-14.69.22-2.87-.31-5.57-.19-8.52-1.47-3.9-1.68-7.91,1.56-12,2.29-4.62,3.15-9.43,1-14.17.53-4.49-.55-9-1.59-13.52-.6a7.4,7.4,0,0,1-2.89.07,10.79,10.79,0,0,0-9.93,1.95c-2.07.39-3.89-.44-5.74-1.15a8.16,8.16,0,0,0-4.89-.71c-9.55,2.17-19.15-.15-28.71.4a60,60,0,0,0-6.59,1.08c.9.42,1.75-.38,2.69-.38s2.13.07,2.61,1.07c.57,1.22-.54,1.88-1.36,2.27C995.39,545.35,994.33,547.25,993,549Z" transform="translate(-712.84 -460.09)" style="fill:#171217"/><path d="M1029.9,536c-1,.17-1.91,1.43-2.89,0-.5-1.43-1.32-2.25-2.89-1.37-1.31.73-2.62,1.22-4.09.5l-2.29-1c.23.63-.27-.77.3-.44.18.1.45-.39.38-.72-2.78.59-5.75-.43-8.43,1-1.25,0-2.54-.15-3.56.85-1.39-.64-3-.09-4.34-.62s-4,.35-3.84-1.93c.15-1.82,2.67-1.49,4.17-1.64,3.55-.35,7.17.32,10.7-.6v.06c20.59-.14,41.18.47,61.77,0,21.29-.45,42.59-.16,63.89-.16,1.42,0,3.17-.6,4,1.1s.22,3.31-.71,4.71c-1.33,2-2.32-1-3.75-.42-.63.26-1.56-.21-2.35-.35-1.8-3.1-4.63-2.6-7.46-2.14-8.59,1.41-17.21-.21-25.34.63.23.18,1.48.38.92,1.76-2,2.58-4.48.06-6.67.55-7.79-1.32-15.65-.62-23.48-.93l-.44-.22-.48.13c-4.69.33-9.39-.31-14.08.06l-9,.15c-4.63,2.54-9.17-1.49-13.88-.15C1034.14,535.46,1031.87,535,1029.9,536Z" transform="translate(-712.84 -460.09)" style="fill:#c3b4b2"/><path d="M1093,543.86c11.81,0,23.61.08,35.42.17,4.3,0,8.61.2,12.92.35,1.35,0,3.08.26,2.36,2.14-.38,1,.36,3.36-2.79,2.65-4.15-.93-8.57-.69-12.87-.95-6.09,1.61-12.28.41-18.42.69a14.39,14.39,0,0,1-9.28.31c-3.4-1.11-6.88-.22-10.32-.24h0a2.27,2.27,0,0,1-2,.65c-5.59-4.53-12.27-2.3-18.48-2.87-1.73-.16-3.63.69-5.37.22-2.82-.78-2.19,1.28-2.48,2.66-.4.31-.84.75-1.28.7-10-1.05-20-.64-30-1.19a3.06,3.06,0,0,1-2.87-1.6c-.11-3.14,1.94-4.27,4.54-4.75a33.31,33.31,0,0,1,5.38-.22c12.1,0,24.19.18,36.28,0A117.6,117.6,0,0,1,1093,543.86Z" transform="translate(-712.84 -460.09)" style="fill:#998c8a"/><path d="M1023.17,521.91c-4.76-2.54-9.72-.67-14.59-.63-5.19.05-9.44-2.52-14-4.28,34.51-1.13,68.89-.84,103.27-.68,2.14,0,4.34-.37,6.42.5-2.21,2.43-5.16,1.42-7.82,1.61-3.4.24-6.83-.15-10.23.12-3.14.52-1.22,2.74-1.41,4.25a5.35,5.35,0,0,1-4.9-.68c-4.91-1.67-10.06-1.41-15.12-1.77-.78-.05-1.91-.33-2.26.47-1.64,3.78-4.75,2.16-6.79,1.32a7.61,7.61,0,0,0-6.92.25c-5.46,1-10.79-.16-16-1.3a9.18,9.18,0,0,0-7.45,1.25A1.87,1.87,0,0,1,1023.17,521.91Z" transform="translate(-712.84 -460.09)" style="fill:#d8c7c1"/><path d="M1093,543.86l-55.83-.17c-7.52-.74-15,2-22.59.1,2.28.54,3.26,1.63,1.92,3.87l-.5.5-2,.85c-3.35-3.87-7.6-2.23-12-1.7,2.16,0,3.8-.84,5.5-.75s4.17-.51,4.54,2.43l-19,0c-1.09-4.2,1.9-5.23,4.93-6.66l-6.66-.52c8.62-4.69,17.24-2.77,25.49-2.29,3.59.2,6.71-1.1,10.12-1,2.52.08,5.17-.66,7.12,1.71a8.78,8.78,0,0,0,5.72,1.19c14.86-2.09,29.75,0,44.63-.35a3.15,3.15,0,0,1,2.65,1.1C1088.65,544,1091.36,542,1093,543.86Z" transform="translate(-712.84 -460.09)" style="fill:#292129"/><path d="M1087,542.16c-16.54-.12-33.09-.2-49.64-.45-1,0-3.54,1.79-3.36-1.49l6,.75c2.84-1.39,6.09-.88,9-1.9l3,0c4.38-1.1,8.76,1.21,13.14.05,4.93.7,9.86,1.51,14.86.77,19.94,1.57,40-1.8,59.89,2.31Z" transform="translate(-712.84 -460.09)" style="fill:#666266"/><path d="M1084,518.27c2.33-2.42,5.28-.94,7.93-1.15,4.09-.32,8.22-.22,12.33-.3,6.82-.48,13.68.52,20.49-.59,4.49,1.9,9.49-.65,13.94,1.61-1.25,1.67-3.17,1.1-5.93,1.82,2.56-.14,4.66-1.35,5.12,1.06.18.9-1.34.63-1.93,1.15a5,5,0,0,0-.92.3c-2.6,1.12-4.58-1-6.9-1.32-8.63-1.22-17.26-2-25.89,0-3.59-.08-7.17.88-10.76.34C1088.8,520.84,1085.86,520.9,1084,518.27Z" transform="translate(-712.84 -460.09)" style="fill:#ede1d9"/><path d="M1104.13,535.31c-.89-2.18-3.43-.64-5.74-3.26h14c6.23,0,12.43,1,18.68-.67,1.71-.44,6.5-1.76,4.92,3.68-8,.41-16.09-1-24.12.27L1108,536C1106.83,535.05,1105.16,537,1104.13,535.31Z" transform="translate(-712.84 -460.09)" style="fill:#e6d5ce"/><path d="M1109,548c3.48-2.46,7,.33,10.58-.1,2.76-.33,5.61.17,8.42.3-1.09,1.43-2.82.43-4.14,1,1.17,2.86,3.87,2.38,5.82,2.1a5.88,5.88,0,0,1,6.3,2.6l-2,.18a14.87,14.87,0,0,1-10,1l-12-.14c-1.57-6.44,4.23-2.22,5.84-4.22C1115.19,549.17,1110.65,553,1109,548Z" transform="translate(-712.84 -460.09)" style="fill:#3b363b"/><path d="M1048.86,521.75c2.87-3.14,5.93-.61,8.89-.22,1.73.23,3.62,1.44,4.06-1.53.14-.93.88-.87,1.48-.87,5.71,0,11.51-.33,16.63,3-5.7-.63-11.31.21-16.93,1A26.61,26.61,0,0,1,1048.86,521.75Z" transform="translate(-712.84 -460.09)" style="fill:#8d807e"/><path d="M1084,518.27c5.78,2.58,12,1,18,1.8.77.4,1.56.79,1,1.89-6,1.87-12.1,1.21-18.19.84C1083.27,521.52,1081.43,520.29,1084,518.27Z" transform="translate(-712.84 -460.09)" style="fill:#8e807f"/><path d="M1048.86,521.75a67.78,67.78,0,0,0,14.13,1.39c-3.15,1.63-6.42.69-9.68.52-6.43-.34-12.87-.46-19.31-.67l-6-.84c-1.14.37-2.29.8-3.27-.34a6.2,6.2,0,0,1,7.79-2C1037.83,522.19,1043.3,522,1048.86,521.75Z" transform="translate(-712.84 -460.09)" style="fill:#372a27"/><path d="M1108,527.08c-12.66,1.91-24.35.61-36.81.93,2.19-1.54,3.8-.84,5.32-1C1086.64,526.09,1096.77,524.87,1108,527.08Z" transform="translate(-712.84 -460.09)" style="fill:#706c6e"/><path d="M1103,522l-1-1.89c6.38-2.57,13-.83,19.51-1,2.41,0,5.26-1.46,7.42,1a12.21,12.21,0,0,1-8.9.79C1114.15,518.32,1108.79,523.4,1103,522Z" transform="translate(-712.84 -460.09)" style="fill:#b4a9a2"/><path d="M1120,520.9c2.83-1.79,5.9-.87,8.9-.79,1.66,1.84,4,1.65,6.15,2.06-1.44,1.89-1.43,1.88-3.72.6-2.62-1.48-5.33-.62-7.6.49C1120.66,524.77,1120.24,523.25,1120,520.9Z" transform="translate(-712.84 -460.09)" style="fill:#5e554f"/><path d="M1025,526l11,0c3,.24,6,1.47,9.08,2.07-5.87,0-11.74,0-17.61,0A2.41,2.41,0,0,1,1025,526Z" transform="translate(-712.84 -460.09)" style="fill:#685f67"/><path d="M1147.9,526.05c1.27-1.85-2.55-4.93.32-5.48,3.34-.63,1.15,3.54,2.51,5.19.6.74.33,2.21.45,3.34-.24,1.57-.49,3.15-.73,4.72C1150.91,530.81,1148.79,528.64,1147.9,526.05Z" transform="translate(-712.84 -460.09)" style="fill:#d8cfc9"/><path d="M1136,521.87c-.11-.68,2.38-.91.41-1.79-1-.43-2.24-.17-3.86-.24a9.59,9.59,0,0,1,6.19-2l2.06,2.26c1,1.15-.35,1.33-.78,1.89Z" transform="translate(-712.84 -460.09)" style="fill:#b4a9a2"/><path d="M1068.07,527.75h-12.15A23.39,23.39,0,0,1,1068.07,527.75Z" transform="translate(-712.84 -460.09)" style="fill:#736d74"/><path d="M1140,522l.78-1.89,3.42-.05C1145.41,526.38,1140.88,520.23,1140,522Z" transform="translate(-712.84 -460.09)" style="fill:#736763"/><path d="M1168.05,546.92c6.17-3.7,12.28-7.56,20-5.93,1.48.32,3.51-.59,3.85,2,1.81,2.19,4,1.78,6,.54,1.28-.81,2.65-1.39,3.29-.1.75,1.5-.59,2.87-2,3.36-3.53,1.21-7.07,2.42-11,1.15-3.71-1.22-7.43-1.65-10.23,2.06-3,1-4.06-2-6.1-3A2.9,2.9,0,0,1,1168.05,546.92Z" transform="translate(-712.84 -460.09)" style="fill:#73706c"/><path d="M1189.82,559.85c0,.67,1.65,2-.61,1.71-1.3-.16-1.79.48-2.21,1.44-6.65.67-13.16-1.53-19.81-1-4.28.35-8.57.68-12.85.93-.86,0-2.24.54-2.44-.85s.86-2,2.19-2.08c9-.47,18-1.51,27-.52C1184,559.81,1186.91,559.74,1189.82,559.85Z" transform="translate(-712.84 -460.09)" style="fill:#352e32"/><path d="M1109,562.91c-.78-1.68,0-2,1.54-1.93,7.78.44,15.63-.94,23.37.82,3.34.76,6.47-2.93,9.93-.51.07,0,.71-.43.68-.61-.62-4.28,4.42-4.45,5.42-7.53l1-.22-1,11.27c-4.5-.35-9-.88-13.52-1C1127.25,563,1118.11,563,1109,562.91Z" transform="translate(-712.84 -460.09)" style="fill:#252227"/><path d="M1168.05,546.92l3.89.08c0,.94-.51,1.92-1.26,1.8-5.24-.88-10.38,1.54-15.6.31-2.66-2.57.19-3.37,1.59-3.84,1.59-.53,3.49-.13,5.25-.13A11.46,11.46,0,0,0,1168.05,546.92Z" transform="translate(-712.84 -460.09)" style="fill:#d1c9c4"/><path d="M907.72,494.11l.34-2c.61-2.54-.42-5.36,1.46-7.68,3-3.63,6.81-3.77,10.86-2.77a7.3,7.3,0,0,1,5.84,7.18,94.58,94.58,0,0,1-.21,16.91c-.93,2.25-.23,4.86-1.5,7-5.06,1.21-10.18.83-15.3.59a2.78,2.78,0,0,1-1-1.21c-1-3.44-.15-7-.6-10.45a27.07,27.07,0,0,1,.15-5.69Z" transform="translate(-712.84 -460.09)" style="fill:#fbfbf6"/><path d="M907.72,496c.14,2,.29,4,.43,6,1.12,3.54-.65,7.35,1,10.85v0a3.09,3.09,0,0,1,.4,3.65c-8.47,5.11-10,4.52-15.07-6.11-1.3,2.74-2.4,5.36-5.41,6.18-3.34.92-5.8-.65-4.91-3.9,1-3.65.18-6.81-.71-10.13-.34-2.94-3.65-4.86-2.81-8.2l.49-.53c3,0,2.85,3,4.43,4.39,3.89,3.36,7.89,6,13.42,4,1.51-.56,1.82.85,2.28,2s1.31,2.55,2.81,2.46c2-.12,1.69-2.13,2.36-3.37C907.64,501,906.26,498.25,907.72,496Z" transform="translate(-712.84 -460.09)" style="fill:#78121e"/><path d="M825.14,487.89c.29-.62-2.91-1.23,0-1.79a21,21,0,0,1,3.81-.08c7.22,3.75,14.91,1.74,22.37,1.49,3.33-.11,6.53-.52,9.73.58.85,2.82-1.32,3.18-3,2.93-3.15-.48-6.16.33-9.24.36l-11.2.05c-1.11-.07-2.23,0-3.34,0-2.7-.2-5.5.11-7.94-1.48A2.61,2.61,0,0,1,825.14,487.89Z" transform="translate(-712.84 -460.09)" style="fill:#b7696e"/><path d="M848.93,490.11c3.16-.11,6.26-1.24,9.49-.21,1.24.39,2.67.13,2.6-1.81,3.2.42,6.29,3.92,9.7-.51,1-1.25,3.41.79,3.15,3.29-.23,1.11-1,1.42-2,1.5-7.71,2.84-15.17.1-22.72-1a1,1,0,0,1-.34-.81C848.82,490.26,848.86,490.11,848.93,490.11Z" transform="translate(-712.84 -460.09)" style="fill:#5d2f32"/><path d="M871.93,491.87c.65-.33,1.3-.66,1.94-1,3.14-.76,6.69-2.54,7.24,3l0,.34c-2.54,2.37-5.59,1-8.4,1-1.4,0-1.49-1.46-1.2-2.69C871.63,492.28,871.78,492.07,871.93,491.87Z" transform="translate(-712.84 -460.09)" style="fill:#ce8781"/><path d="M853,474c3-2.71,6.79-.93,10.08-1.93.69,1.81.32,3.19-1.84,2.48C858.47,473.63,855.73,474.24,853,474Z" transform="translate(-712.84 -460.09)" style="fill:#99222c"/><path d="M849,491c3.94.83,8.55-2,11.86,2.2,2.32-4,6.91,2.35,9.29-2.11.76-1.41,1.52-.3,1.79.78l-.07.11c-1.46,3,0,5,2.36,6.62,1.13.78,3.5.69,3,2.6-.6,2.45-3,.73-4,1.18-1.16,0-.1.94-.44.37,3.66-.75,7.43.15,11.08-.68,1.81,3.31,3.75,6.5,1.27,10.48-.65,1.05-.48,3.47,1.7,3.28,2.51-.23,5.61-.61,5.3-4.36a2.48,2.48,0,0,1,2-3c1.93-.59,2.21,1.12,2.61,2.26,2.82,8.15,2.79,8.16,10.72,6a4.54,4.54,0,0,1,1.48.16c.12.19.24.38.37.57.23,1.72-.44,3.54.53,5.17,4.26,1.54,8.56-.56,12.79.18a3.24,3.24,0,0,0,.85-.66,5.06,5.06,0,0,0,.43-2.74c0-.65-.06-1.29,0-1.93a7.28,7.28,0,0,1,.67-3.44,2.57,2.57,0,0,1,1.18-.85c3.1.13,6.41-.49,9.24.52,3.68,1.32,1.09,5.38,2.35,8a17.83,17.83,0,0,0,1.3,2.09,9.79,9.79,0,0,1,1.66,5c.26,5.64.86,6.22,6.53,6a2.86,2.86,0,0,1,2.82,1.63c1.89,3.32.5,9.64-2.94,11.4s-3.47,6.24-6.68,8.17c-.64.39-.93,1.37-2,1-.23-2-5.94-3.54-.35-6.26,1.61-.78-1-12.77-2.83-13.92s-2.16-2.85-3.09-4.37-1.17-3.66-3.68-3.25c-.7,5.76-1,11.56-2.22,17.16-.81,3.72,1.83,8-1.74,11.17-3.87-1.19-7.38-3.64-11.79-3a2.52,2.52,0,0,1-2.55-2.54c.71-5.18-1.4-10.16-.76-15.33.39-3.16,1-5.09,4.83-3.8a8.89,8.89,0,0,0,7.16-.57c-1.23-1.63,1.33-1.85,1.11-3.38-4.76,1-9.64-.61-14.43.79-10.24,1.44-20.57,1-30.77.37-8.29-.53-16.55-.46-24.81-.74-2.1-.07-4.39.42-6-1.52-2.44-1.65-5.19-.56-7.78-.85-1.31-.15-2.74.18-4-.19-2.31-.71-4.48-2.42-4.8-4.62-.35-2.43,2.48-2.7,4.3-3.26,3.3-1,6.58-1.79,10.17-1,4,.84,7.95-2.89,12.27-.7.56.28,2.2-.53,2.14-2.16A9.58,9.58,0,0,0,850,506c-5.25-.77-10.44-1.85-14.92-5L834,499a27,27,0,0,0-2.39-3c-1.48-1.9-.49-2.53,1.43-2.63,8.19,6.4,17.55,8.48,28.21,7.72-3.47-1.95-6.49.54-9.69-.44-3-.93-5.64-2.42-9.25-3.86,3.61-3.13,6.8-1.46,9.91-.68a38.21,38.21,0,0,0-4.55-3.21C847.56,491.87,847.29,490.73,849,491Z" transform="translate(-712.84 -460.09)" style="fill:#1c0304"/><path d="M846.06,527.87q28.77.64,57.56,1.31a11.11,11.11,0,0,0,5.3-1c.81.68,2.22,1,1.74,2.53-2.47.21-2.73,1.81-2.65,3.87.12,3.25,0,6.5,0,10.67-2.47-1.67-3.71-3.17-5.65-3.76-1.57-.48-1.9-.89-2.58,1.06-.85,2.44-3.86,1.75-4,.19-.42-3.73-3.28-2.72-5-3.2-3.7-1-5.64,1.13-4,4.57,1.91,4.12-.22,3.76-3.12,3.94s-5.42-1-7.42-1.93c-5.42-2.49-10.75-1.21-16-.9s-10.22-2.36-15.44-.4a2.72,2.72,0,0,1-3.27-1.66c-.4-1.14.71-1.66,1.66-2.09,4-1.77-1.4-3.35-.12-5.07a7.42,7.42,0,0,1,9.26.24c3.06,2.52,6.82,3.3,9.8,5.45,1.48-.87.81-1.85.51-2.71-.69-2-2.29-4.29.06-5.87s5.45-2.53,8.43-.87c5.77,3.22,11.8,2.48,17.56.53,4.78-1.62,9.1.87,13.22.12a53.75,53.75,0,0,0-17-1,38.48,38.48,0,0,1-9.91-.68c-11.31-1.8-22.54.67-33.8.15a59,59,0,0,1-8.91-.92c-1.28-.26-2.27-.83-1.28-2.38Z" transform="translate(-712.84 -460.09)" style="fill:#9d1b2d"/><path d="M828,582c-.48.66-1.54,1.62-1.37,1.93,2.45,4.56-3.33,5.12-3.9,8.16,0,.22-.47.5-.74.54-9,1.32-18.08,2.34-27.09,1-3.31-.5-6.55.1-9.77-.55-1.75-.35-2-2.19-3.12-3.15-1.55-1.12-3.84-1.35-4.42-3.64-1.76-2.93-.63-5.75.36-8.58a3.31,3.31,0,0,1,2.45-1.06c2.85,1.38,3.38,4.82,6.18,6.76,1.25-1,1.76-3.07,3.73-3.44,1.78-.34,4.25-.28,3.87,1.62-1.29,6.33,3.44,4,6.13,5.05-1.14-5.27-1.1-5.37,3.81-5,3.44.28,7.76-.76,7.78,5.06,0,1.4,1.58,1.36,2.79,1.38,5.14.09,9.67-4.47,10-10.4.36-6.27.09-12.56.31-18.85.19-5.44,1.83-10.81.81-16.3.34-1.17.31-2.69,2.18-2.55.06,1.07-.17,2.23,1,3,2.09,1.92.78,4.73,1.84,6.92.45,1,1.74,1.77,1.07,3.17-2.42.63-3,2.57-2.87,4.62C829.29,565.79,827.29,573.83,828,582Z" transform="translate(-712.84 -460.09)" style="fill:#4a4650"/><path d="M831,528.06c1.25,2.31,3.88,1.6,5.47,1.65,7.1.21,14.23.92,21.35-.39s14.24.44,21.29,1c4.72.39,9.51.07,14.13.15,5.06.08,8.72,2.1,12.82,4.17-3.9-2.06-8.24.79-12.18-1.43-.88-.49-2.82-.63-3.33-.07-4.81,5.23-11,.53-16.25,2.4a2.13,2.13,0,0,1-2.54-1c-2.13-4.23-5.46-.59-8.19-1-1.36-.21-1.51,1.79-.73,3.16a21.59,21.59,0,0,1,2,3.93c.32,1,.46,2.41-.88,3.06a2.13,2.13,0,0,1-2.74-.48c-2.59-3.24-7.48-2.45-10.11-6.27-1.45-2.12-5.34-.71-8.13-.89a17.15,17.15,0,0,0-1.73-.73c-3.54,6.66-7.23.47-10.81.12a4.33,4.33,0,0,1-1.31-.65l0-.58c2.37-2.6-.34-3.93-1.51-5.61C828.75,527.68,829.88,528,831,528.06Z" transform="translate(-712.84 -460.09)" style="fill:#bc2e40"/><path d="M828,540c-1.16.72-1,1.9-1,3-3,3.13-6.53,1.43-8.51-.53-1.79-1.78-3.82-5.28-.29-8.09,2.69-.42,5.48-2.08,7.89.69Z" transform="translate(-712.84 -460.09)" style="fill:#0d090f"/><path d="M826.06,535c-2.68-.78-5.38-.18-8.07,0-4.42-.68-3.38-3.29-2.12-6l.15,0c3.33-.63,6.65-1.14,10-.09q1.59,2.63,3.17,5.26a.5.5,0,0,0,0,.59C828.37,537.45,827,533.72,826.06,535Z" transform="translate(-712.84 -460.09)" style="fill:#c8b3b2"/><path d="M910.66,530.71l-1.74-2.53c4.63-1.18,9.41.64,14-.68a1.38,1.38,0,0,1,1.9,1c.18,1,.31,2.06-.92,2.45-1.05.33-2.35.07-2.94,1.38Z" transform="translate(-712.84 -460.09)" style="fill:#a39596"/><path d="M829.91,551.07c-2-2.52-.45-5.45-.94-8.14,2.35-2.53,3.9-1.79,4.88,1.21A8.8,8.8,0,0,1,829.91,551.07Z" transform="translate(-712.84 -460.09)" style="fill:#a28584"/><path d="M829.91,551.07c.08-3,3.06-4.37,3.94-6.93l.46,1.9-.36,7.32c0,.85-.2,1.76-1.32,1.26-.41-.18-.51-1-.75-1.6C832,551.61,830.1,552.2,829.91,551.07Z" transform="translate(-712.84 -460.09)" style="fill:#f4dedc"/><path d="M815.87,529c.79,2-1.85,5.14,2.12,6-1.29,6.1,2.3,9.29,9,8,.2,12-1.47,23.88-1.08,35.88.19,5.94-7.7,11.93-13.57,11-1.28-.2-2.28-.88-2-2.33.91-4.27-1.43-4.85-4.86-4.6a28.89,28.89,0,0,1-4.87-.43c-.85,2.54,2.12,2.18,2.77,4.24-4.82,2.59-8.79.12-12.94-1.78.25-.6.37-.9.5-1.19.52-1.15,3.06-.13,2.55-2.31a1.13,1.13,0,0,0-1.58-.78c-1.47.53-3.57.31-3.59,2.68,0,.9,1,2-.56,2.44-1.33.36-2.24-.58-2.89-1.54-1.61-2.38-3.09-4.84-4.63-7.26a1.29,1.29,0,0,1-.65-1.1c.8-1.55,2.28-2.1,3.81-2.6,8.79,1,17.59-.32,26.38.07,1.68.08,3.71.07,5.19-1.33,1.84-4.93.86-10,.95-15.1.11-5.74,0-11.49-.42-17.66-3.22,5.38-7.71,2.58-11.67,2.62-1.86-3.09-4.41-4.39-8-3.08-.94-.54-1.88-1.08-2.83-1.61,3.09,0,6.19,0,9.27,0,2.31-.06,1.36-1.07.51-2a26.13,26.13,0,0,1,9.36.6c.83.24,2.2.57,2.3-.86,0-.52-1-1.12-1.62-1.69l.27-.35c.62-1.23.71-2.72,1.77-3.74l.47-.14A1.77,1.77,0,0,1,815.87,529Z" transform="translate(-712.84 -460.09)" style="fill:#312e3a"/><path d="M826,528.9,816,529C819.35,528.14,822.65,525.4,826,528.9Z" transform="translate(-712.84 -460.09)" style="fill:#873e45"/><path d="M778.2,585.81c.72,2.42,3.42,1.79,4.83,3.16-.73,1.38-3.56.92-3.09,3.2s3,.55,4.08,1.84c0,.67,0,1.33,0,2a99.07,99.07,0,0,1-30,.13c2.29-2,5.07-.87,7.63-1.11s5,0,7.36-1c1.14-2.17-2.86-4.06-.84-5.66,1.83-1.44,3.91,1,5.94,1.48a12.48,12.48,0,0,0,2.21.15c-.47-1.14-.85-2.09-1.24-3C775.39,584.74,776.77,585.2,778.2,585.81Z" transform="translate(-712.84 -460.09)" style="fill:#23232c"/><path d="M769,594.06c-.22,2.5-2.07,2-3.68,2-3.77,0-7.54,0-11.31,0-7.1,0-14.2-.12-21.29-.12-1.78,0-3.75-.22-4.65,2-4.13-2.23-1.46-6-2-9,6.6,6.71,15.13,4.53,23.09,5,1.64.09,3.31-.06,5-.1,4.24.07,8.55.84,12.61-1.05C768.15,592.13,768.09,593.85,769,594.06Z" transform="translate(-712.84 -460.09)" style="fill:#7b7a7d"/><path d="M958,519.9h-5.85a4.41,4.41,0,0,1-1.52-3c-.45-2.51-1.86-3.63-4.49-3.59s-5.33-.27-7.4-2.32a3.61,3.61,0,0,1-.55-2.46c1-3.29,3.72-2.95,6.16-2.68a78.46,78.46,0,0,0,9.45.72c3.74,0,5.61,1.68,5,5.57C958.52,514.71,958.24,517.31,958,519.9Z" transform="translate(-712.84 -460.09)" style="fill:#f7f4f1"/><path d="M971.05,530c1.3,7.29.9,14.65,1,22-.31,1.42-.43,2.94-2.6,4.06-.63-10.24-1-20.12.17-29.95.42-3.41-1.68-7.56,2.3-10.21.05.42.09.84.14,1.25a11.32,11.32,0,0,1,0,9.7Z" transform="translate(-712.84 -460.09)" style="fill:#4d1823"/><path d="M958.81,512.12c-.84-2.2-.78-5.35-4.62-4.39,1.44-2.45,3.31-3.31,5.88-1.57,0,1.59-.05,3.18-.08,4.78Z" transform="translate(-712.84 -460.09)" style="fill:#6a0c15"/><path d="M972,557l0,5c-2,.17-2.65-.42-2.67-2.73S970.48,557.05,972,557Z" transform="translate(-712.84 -460.09)" style="fill:#4d1823"/><path d="M826.88,495c-.25.4-.81,1.06-.71,1.18,3.35,4.07,1.16,7.62-1.3,11.73-.73-2.49-2.39-3.93-3.77-5.58s-3.59-3.22-2.52-6.43c1.91-5.76,4.95-3.84,8.26-1.79.34.18.46.38.36.58S827,495,826.88,495Z" transform="translate(-712.84 -460.09)" style="fill:#cb324a"/><path d="M833,494c-1.23.13-1.88.58-.8,1.74.89,1,1.89,1.82,1.76,3.3-1.82-.74-2.7-3-5-3-.33-.34-.66-.67-1-1-.13-2.39-3.13-3.39-2.86-6,0-.05.23-.1.35-.1a2.13,2.13,0,0,1,.46.13l8,1C834.26,491.48,832.41,492.43,833,494Z" transform="translate(-712.84 -460.09)" style="fill:#410c0f"/><path d="M826,489c-.2,2.28,3.24,3.3,2,5.93l-1.15,0a2.22,2.22,0,0,0,0-.89c-.46-1.64-1.89-2.52-2.89-3.74-1.31-1.61-.4-2.22,1.18-2.48Z" transform="translate(-712.84 -460.09)" style="fill:#730f1c"/><path d="M1048.85,514.08c2.2,0,4.37-.14,6.07-1.81,21.33,0,42.66-1,64,.05a13.87,13.87,0,0,1,6.11,1.73c-6.84,1.6-13.79.74-20.69.72-6,0-12-.79-18.16-.52-9.53.42-19.1.08-28.64-.26C1054.61,513.88,1051.74,516.25,1048.85,514.08Z" transform="translate(-712.84 -460.09)" style="fill:#6c5d59"/><path d="M987.92,517.14q-.09,5.25-.17,10.49c-3.09-.59-5.49-3-9-2.78-2.46.17-.35-2.87-1.64-3.92a1.81,1.81,0,0,0-.16-.89c.52-1.73-.84-4.89,1.56-5C981.59,515,985.43,513.65,987.92,517.14Z" transform="translate(-712.84 -460.09)" style="fill:#d2c4c1"/><path d="M1126,514.05c5.69-.56,11.37-1.75,17.08-.21A31.56,31.56,0,0,1,1126,514.05Z" transform="translate(-712.84 -460.09)" style="fill:#6c5d59"/><path d="M972.07,526.82l0-9.7c2.16-.2,4.15-.5,2.31,2.83C973.2,522,975.87,525.5,972.07,526.82Z" transform="translate(-712.84 -460.09)" style="fill:#a79a9b"/><path d="M1024.69,521.81l3.27.33c-3,2.55-6,1.56-9-.06l4.18-.17Z" transform="translate(-712.84 -460.09)" style="fill:#1b161a"/><path d="M960.07,506.16l-5.88,1.57c-3.83.67-7.58-.51-11.37-.44-1.47,0-3.48-.92-3.93,1.65-4.17-2.28-8.29-3.84-13-1-1.13.69-1.48-.72-1.14-1.83,1.17-6.12.42-12.28.14-18.4-.18-3.9-5-6.48-9.5-5.65-4.28.78-6.15,3.27-5.12,7.48.59,2.41-.71,2.4-2.25,2.53-3.15.57-7.58,2-8.81-1-1-2.48,2-6,4.72-8.15a37.29,37.29,0,0,1,18.74-2.36c1.58.21,3,1.27,4.58,1.85,1,.38.49,3.36,2.63,1.57a4,4,0,0,0,1.62-4.27,24.9,24.9,0,0,1,.38-12.79c4.61-1.4,7.5,1.9,7.05,8-2.62,4.35-1,8.68.06,13-1.73,4-2.65,8.54.66,11.6,3.07,2.82,7.91,2.6,12,3.31,2.16.36,4.64.66,6.69-.86,1.46-1.07,3.07-1.56,4.52-.29,2.08,1.83-1.32,2.58-1,4.13Z" transform="translate(-712.84 -460.09)" style="fill:#37080c"/><path d="M919.86,465.16l-2.66,1.64c-3.68,4.5,1.46,6.31,2.81,9.28-4.14,1.86-7.84,1.34-11-2.08C908.85,465.06,909,465,919.86,465.16Z" transform="translate(-712.84 -460.09)" style="fill:#461118"/><path d="M815,572c.15,1.59-.8,1.8-2.13,2a123.29,123.29,0,0,1-30.83,0c-2-.6-2.3-2.43-2.93-4,0-.27,0-.54,0-.81,1.64-.46,1.69,1.79,3.06,1.78,3,.48,6.11-.44,9,1-2,1.13-4.08.46-5.27.51,3.15,0,7.16.66,11.16-.4C803,571.05,809,571.65,815,572Z" transform="translate(-712.84 -460.09)" style="fill:#958f95"/><path d="M778.2,585.81c-1.11.27-2.45-.09-3.18,1.18-1.45-.12-3.39.68-4.24-.51-1.17-1.64.75-2,1.85-2.59.89-.5,0-1-.2-1.49-1.23-3.54.93-4.34,3.76-4.54a1.24,1.24,0,0,1,1.8.27l1.27,1.44C775.39,581.05,778.83,583.78,778.2,585.81Z" transform="translate(-712.84 -460.09)" style="fill:#36323d"/><path d="M779.08,569.91c.83,1.45,2.76,2.1,2.93,4,.47,1.87-1.72,1.21-2.14,2.23-1.77.85-3,.2-3.92-1.37l.13-1.72a1.34,1.34,0,0,1,1.89-.24C779.27,572.22,778.84,570.94,779.08,569.91Z" transform="translate(-712.84 -460.09)" style="fill:#585460"/><path d="M776,574.8l3.92,1.37a1.52,1.52,0,0,0,.37.8c-.36,1.14-1.33,1.1-2.25,1.16l-1.8-.27c-.72-1.07-3,0-2.92-1.76C773.3,574.59,775,575.18,776,574.8Z" transform="translate(-712.84 -460.09)" style="fill:#ccbcb7"/><path d="M725.2,583c-.07-2.37-1-4.83.77-7C727.66,578.51,728.52,581,725.2,583Z" transform="translate(-712.84 -460.09)" style="fill:#23232c"/><path d="M778,572.84l-1.89.24c-1.31-1.19-1.8-3,0-3.47C778,569.14,777.9,571.37,778,572.84Z" transform="translate(-712.84 -460.09)" style="fill:#36323d"/><path d="M938,557c3.25-3.54,3.51-9.63,9.63-10.85,1.5-.29,2-8.54.86-9.91a1.7,1.7,0,0,0-1.71-.58c-7.24.68-7.9.09-7.74-6.74,3-1.26,5.84.23,8.73.64,1.31,1,2.82,1.81,3.84,3.21.12,3.25-.91,6.51,0,9.94,2.92-.42,4.76-1.85,5.34-4.8.18-.94.5-2,1.81-1.94.29,3.72,1.1,7.33-3.66,9.48-3.87,1.75-.55,2.2,1,2.75.07,0,.09.32,0,.47s-.19.27-.29.41c-3-.18-5.65.51-5.41,4,.3,4.68-2.66,4.44-5.72,4.58-2.43.11-5.46-1.21-6.58,2.46Z" transform="translate(-712.84 -460.09)" style="fill:#2b272f"/><path d="M920,476.08a22,22,0,0,1-3.84-2.22c-3.14-2.78-2.79-4.75,1-7.05a15.19,15.19,0,0,0,2.93.09c4.18-.65,6.85.27,6.71,5.29C926.69,477.51,922.63,475.4,920,476.08Z" transform="translate(-712.84 -460.09)" style="fill:#f8ecee"/><path d="M814.89,529.1c-.12,1.47,1,3.5-1.77,3.74-6.21-1.65-12.6-1.31-18.92-1.65-3.77-.21-7.56-.17-11.34-.24,1.18-2.24,3.49-2.16,5.28-1.82C797.08,530.83,806,528.16,814.89,529.1Z" transform="translate(-712.84 -460.09)" style="fill:#a68286"/><path d="M765,530c-7,0-14,0-21,0-1.25,0-2.7.58-3.68-.8,6.67,0,13.33-.14,20-.11C761.88,529.05,763.66,528.43,765,530Z" transform="translate(-712.84 -460.09)" style="fill:#ab7983"/><path d="M784,594c-1.66-.82-3.27,3.35-4.95,0-.6-1.17-1.44-2.39-.86-3.73,1-2.32,3.19-.93,4.82-1.35q1.05,2,2.11,4.08Z" transform="translate(-712.84 -460.09)" style="fill:#07070c"/><path d="M1025,563c3.7-3.74,8.55-2,12.77-2.22,9.58-.43,19.52,1.64,28.73-.22,10.18-2.06,19.64,2.06,29.47,0,.07,1.93-1.69,1.32-1.93,2.33L1035,563Z" transform="translate(-712.84 -460.09)" style="fill:#252227"/><path d="M1105,562.91c-1.66-1.8-4.06-.33-5.88-1.42,2.35.27,5.29-2.55,6.94,1.4Z" transform="translate(-712.84 -460.09)" style="fill:#252227"/><path d="M958.78,536c-.29,4.07-2.24,6.69-6,8.67-2.66,1.39-2.77.54-2.79-1.53,0-3.76-.24-7.54.94-11.2-1.42-2-1.64-3.88.23-5.71,1,.86.71,2.11,1,3.2,1.21,4.51,2.09,4.71,5.59,1.15C959.57,532.14,958.74,534.17,958.78,536Z" transform="translate(-712.84 -460.09)" style="fill:#110a11"/><path d="M939.19,510.85a46.1,46.1,0,0,0,5.28,1c7.29.5,7.29.46,7.64,8.1-1.75.91-.92,2.6-1.19,4a.82.82,0,0,1-1.21.08,2.18,2.18,0,0,1-.63-1.31c.31-4.92-1.53-7.79-6.88-7.76a4.15,4.15,0,0,1-3.23-2.1,2.33,2.33,0,0,1-.27-1.39Z" transform="translate(-712.84 -460.09)" style="fill:#857879"/><path d="M958,522c-.76,1.5,1.61,4.25-1.69,4.64-1.07.13-2.89,2.29-3.42-.55-.31-1.66-.21-3.36,2.35-3.29A9.82,9.82,0,0,0,958,522Z" transform="translate(-712.84 -460.09)" style="fill:#b2a7a5"/><path d="M950.25,524.11a2,2,0,0,0,.67-.24c.08.79.16,1.58.23,2.37-.07,1.9-.14,3.8-.22,5.71-2.21,1.44-2.14-1-3-1.79,0-.2,0-.4.07-.6a16.84,16.84,0,0,0,1.16-4.06A1.81,1.81,0,0,1,950.25,524.11Z" transform="translate(-712.84 -460.09)" style="fill:#524951"/><path d="M783.52,557.8H812.1a132.61,132.61,0,0,1-28.51,1.38Z" transform="translate(-712.84 -460.09)" style="fill:#473d40"/><path d="M812.42,552.08c-9.54-.57-19.07,1.94-28.6-.35A124.94,124.94,0,0,1,812.42,552.08Z" transform="translate(-712.84 -460.09)" style="fill:#534b4b"/><path d="M803,547.86c-5.84,1.17-11.66-2.28-17.54-.09a1.62,1.62,0,0,1-2-1.6c.08-1.29,1.35-1.2,2.32-1.16,6.41.28,12.87-.37,19.2,1.09C805.52,548.09,803.45,547.11,803,547.86Z" transform="translate(-712.84 -460.09)" style="fill:#5b4e4e"/><path d="M803,547.86l1.94-1.76c2.15-1.16,4.52-.36,6.79-.67,1.29-.18,1.47,1.08,1.27,2.13s-1.06,1.5-1.82.91C808.5,546.41,805.65,548.41,803,547.86Z" transform="translate(-712.84 -460.09)" style="fill:#312e3a"/><path d="M797,572c-3.81,2.54-7.91.29-13.19,1.46,3.17-2.16,5.38-.77,7.3-1.57Z" transform="translate(-712.84 -460.09)" style="fill:#f5f1f4"/><path d="M764.53,558.86c-8.59,4.68-16.22.15-24.83,1.58C743.83,557.84,755.68,557.27,764.53,558.86Z" transform="translate(-712.84 -460.09)" style="fill:#4e3e3f"/><path d="M765.4,566.12c-7.84.78-15.7,1.22-23.53-.38C749.72,565.73,757.53,562.14,765.4,566.12Z" transform="translate(-712.84 -460.09)" style="fill:#3a2e30"/><path d="M1088.14,549.14,1090,549c0,1.44,0,1.44,7.31,6-13.6,0-26.17.54-38.68-.15-12.32-.68-24.63,1.43-37.48-.34,1.4-2.13,4.09-2.06,5-4.09-2.9-3-7.14,0-10.2-2.26l.09-.28a12.38,12.38,0,0,1,12,0c7.36.4,14.85,1,22.06.52,4.11-.25,7.94,1.48,11.89.45a53.93,53.93,0,0,1,20.18-.47A35.68,35.68,0,0,0,1088.14,549.14Z" transform="translate(-712.84 -460.09)" style="fill:#20191f"/><path d="M977.08,520.93c1,2.5,2.18,4.13,5.47,2.84s3.3,2.75,5.2,3.86q.22,9.71.47,19.42c-.41,2.1-.86,4.2-1.23,6.32-.48,2.73-2.31,2.89-4.5,2.46a1.3,1.3,0,0,1-1.19-1.34c0-.41.42-1.11.73-1.16,7.79-1.28,2.45-7.16,3.41-10.7.67-2.5-1.2-5.67.92-8.47.12-.16-1.05-3.76-3.27-4.47-1.2-.39-2.46-.59-3.84-.91-.56,2.71-.35,5.55-2.17,9.36Z" transform="translate(-712.84 -460.09)" style="fill:#4f464d"/><path d="M1109,548c2.47,2.72,5.49.91,8.28,1,1.17.06,3-.36,2.81,1.55-.12,1-.76,2.34-3,1.9-1.29-.26-5-1.44-5.08,2.46l-2,0c-2.92-2.36-7.5-.61-10-4-2.92-2.71-7.06.7-10-2a14.76,14.76,0,0,1,9.93-1A19,19,0,0,0,1109,548Z" transform="translate(-712.84 -460.09)" style="fill:#20191f"/><path d="M1100,551c3.14,1.84,7.89-.35,10,4-3.78-.16-7.76.76-11-2.11-.54-.47-1.73-.65-.85-1.63C1098.43,550.89,1099.34,551.05,1100,551Z" transform="translate(-712.84 -460.09)" style="fill:#3b363b"/><path d="M1012,549c-3.25-4-7.5,0-11.21-1.33,6.44-2.95,11.08-2.44,13.22,1.35Z" transform="translate(-712.84 -460.09)" style="fill:#5f545d"/><path d="M1124,555.11c3.45.76,6.61-1.34,10-1C1131,557.77,1127.45,556,1124,555.11Z" transform="translate(-712.84 -460.09)" style="fill:#1b161a"/><path d="M1013.12,530.09A64.39,64.39,0,0,1,999,532.5l7.4,2.38c-4.57-.19-9.11.85-13.7.23-1.51-.21-3.65,1.7-3.77-1.77-.11-3.17,1.67-3.35,4.09-3.37C999.74,529.91,1006.43,529.07,1013.12,530.09Z" transform="translate(-712.84 -460.09)" style="fill:#1b161a"/><path d="M1074,534.93c7.87-.92,15.73-1.45,23.47.93l-20.35.15C1075.94,536,1074.76,536.06,1074,534.93Z" transform="translate(-712.84 -460.09)" style="fill:#1b161a"/><path d="M1029.9,536c4-3.36,8.91-2.34,13.16-1.6,2.34.41,4.66.2,6.93.69-1.17,1.33-2.83,2.41-4.37,1.8C1040.42,534.81,1035.11,536.57,1029.9,536Z" transform="translate(-712.84 -460.09)" style="fill:#1b161a"/><path d="M1010,534c-.26-1-.66-2,1-2,2.12.07,4.33.51,6.34.07,1.53-.34,3.39-2,3.86.38.37,1.91-2.23,1.14-3.48,1.64C1015.15,534.56,1012.54,535.83,1010,534Z" transform="translate(-712.84 -460.09)" style="fill:#dfd0cc"/><path d="M1059,534.9a37.25,37.25,0,0,1,14.08-.06C1068.38,536.85,1063.68,535.79,1059,534.9Z" transform="translate(-712.84 -460.09)" style="fill:#1b161a"/><path d="M1049,539.07c-2.34,3.8-6,1.15-9,1.9C1042.31,537,1045.6,537.72,1049,539.07Z" transform="translate(-712.84 -460.09)" style="fill:#1b161a"/><path d="M1065.13,539.08c-4.39,1.89-8.76.57-13.14-.05C1056.38,536.75,1060.75,538.75,1065.13,539.08Z" transform="translate(-712.84 -460.09)" style="fill:#1b161a"/><path d="M1020,535.13c1.34.11,2.21-.72,3.31-1.3,1.55-.82,4.69-2.27,3.67,2.17C1024.81,534.66,1022.11,537.36,1020,535.13Z" transform="translate(-712.84 -460.09)" style="fill:#1b161a"/><path d="M1088.14,549.14c-.1.14-.21.38-.31.38-8.6-.06-17.21.25-25.79-.69l-2.32-1.53c.92-.61,1.34-1.87,2.76-1.84,7,.14,14,.37,21,.26C1086.19,545.68,1086.32,548.39,1088.14,549.14Z" transform="translate(-712.84 -460.09)" style="fill:#cdbeb8"/><path d="M1028.09,547.86l-12,0c.26-4.9-4.74-1.6-6.69-4.67,9.63.29,18.69-.94,27.77.48C1033.79,544.36,1029.24,542.41,1028.09,547.86Z" transform="translate(-712.84 -460.09)" style="fill:#675a5d"/><path d="M1015,517.26c-3.27,2.83-6.54,1.22-9.82,0Z" transform="translate(-712.84 -460.09)" style="fill:#ded2c9"/><path d="M924.79,506.14c.42.55.45,1.58,1.68.7,4.33-3.1,9.53-2.17,12.42,2.1l.3,1.91a1.67,1.67,0,0,0-.46.37c-2,4.47-6.17,1.77-9.26,2.64-1.32.38-2.87-1-4.28.15a.53.53,0,0,1-.52-.22c-.81,0-1.44-.12-.87-1.15C924.4,510.52,923.4,508.15,924.79,506.14Z" transform="translate(-712.84 -460.09)" style="fill:#cb4752"/><path d="M923.8,512.64l.87,1.15.24,4.07c-5.42,1.81-10.66.12-15.94-.8l0-.08c.07-1.37.13-2.73.2-4.1A40.87,40.87,0,0,1,923.8,512.64Z" transform="translate(-712.84 -460.09)" style="fill:#b6a19d"/><path d="M909.12,512.86c-2.32-3.44-.87-7.22-1-10.86C909.93,505.49,908.43,509.28,909.12,512.86Z" transform="translate(-712.84 -460.09)" style="fill:#b6a19d"/><path d="M883.89,502.07c-1.73,1.64-3.06,3.37-6,1.3-1.62-1.14-4.48-.49-7-.67,1.78-1.46,4,.22,5.86-1.65-1.59-1.39-4.07-.95-5.4-3-1.64-2.46-1.3-4.23.57-6.11.28.94-.36,2.43,1.59,2.34,2.54-.12,5.08-.1,7.62-.13C881.85,496.88,883.7,499.18,883.89,502.07Z" transform="translate(-712.84 -460.09)" style="fill:#5d2f32"/><path d="M833,494c-.55-1.05-2.6-.61-2.47-1.93.18-1.8,2.76-.44,3.4-2l3.1.18c1.09,1.91,2.76,1.3,4.31.94a6.82,6.82,0,0,1,6.74,1.63,32.52,32.52,0,0,1,4,.29c2,.4.89,2.72,2.08,3.67-1,.63-2,1.53-3.13.62-2.19-1.77-4.63-1.36-6.64-1.22,5.23,5.64,12.49,2.25,19.19,3.39-1.84,2.28-3.65,3.6-6.53,3.07-6.65-1.24-13.61-1-19.72-4.71A15.22,15.22,0,0,1,833,494Z" transform="translate(-712.84 -460.09)" style="fill:#553536"/><path d="M848.11,492.78c-2.9-.39-5.71-1.32-8.75,0-1.32.56-3.59.18-2.3-2.54l11.87-.1c0,.3.05.59.06.89A1.63,1.63,0,0,0,848.11,492.78Z" transform="translate(-712.84 -460.09)" style="fill:#410c0f"/><path d="M909,517.06c5.39-1.26,10.63.37,15.94.8,0,.72.05,1.43.08,2.14-3.3,2.32-7,1.46-10.52,1a6,6,0,0,0-5.59,2C907.28,521,908,519,909,517.06Z" transform="translate(-712.84 -460.09)" style="fill:#432f31"/><path d="M908.88,523c-.17-3.27.53-4.6,4.47-3.58,3.68.95,7.75.42,11.64.54-.09,1.09.09,2.25-.89,3.08-3.22-1.89-6.85-.63-10.23-1.26,3.38.64,7-.57,10.22,1.27-2.6,2.5-5.92.09-8.74,1.27-1.59.67-3.29-.47-5.14.7S909.27,523.82,908.88,523Z" transform="translate(-712.84 -460.09)" style="fill:#af9999"/><path d="M925.19,514c2.47-2.26,5.47-.57,8.2-1,2-.31,3.81-.4,5.34-1.79a1,1,0,0,0,.31.74,3.49,3.49,0,0,1,.64,2.12c-.72,2.9,0,5.95-.89,8.85a2,2,0,0,1-1,1.05c-2.52-1-2.57-3.06-2.14-5.28.57-3,.48-5.24-3.62-3.87C929.64,515.63,927.51,513.91,925.19,514Z" transform="translate(-712.84 -460.09)" style="fill:#37080c"/><path d="M947.88,530.16c-3.07.57-5.93-.45-8.83-1.2q-.63-2.49-1.28-5l.45.07c2.28-.45,4.52,0,6.78.18,4,.31,4.79,2.2,3.15,5.57Z" transform="translate(-712.84 -460.09)" style="fill:#524951"/><path d="M938.86,514l.18-2a7.7,7.7,0,0,0,6.27,2.23c4.4-.46,5.34,1.76,4.9,5.52a34.05,34.05,0,0,0,0,4.4c-.12.57-.25,1.13-.37,1.69-2.53-2.41-4.8-4.36-9-4.56C937,521.05,938.72,516.71,938.86,514Z" transform="translate(-712.84 -460.09)" style="fill:#d4c2bd"/><path d="M938.86,514c.15,1.65.25,3.31.46,5,.15,1.12,1.09,2.18,2,1.78,5.42-2.44,7.33.7,8.57,5.1.29,1.71.25,3.28-1.73,4,1-4.88-2.79-4.1-5.4-4.4a11.06,11.06,0,0,1-4.53-1.36C938.49,520.69,936.94,517.21,938.86,514Z" transform="translate(-712.84 -460.09)" style="fill:#857879"/><path d="M924.09,523.09c-4.18-1-8.79,1.21-12.7-1.89,4.21.87,8.9-2,12.71,1.88Z" transform="translate(-712.84 -460.09)" style="fill:#ecdedd"/></svg>